<mxfile host="Electron" modified="2025-06-25T14:16:27.606Z" agent="Mozilla/5.0 (X11; Linux x86_64) AppleWebKit/537.36 (KHTML, like Gecko) draw.io/22.1.2 Chrome/114.0.5735.289 Electron/25.9.4 Safari/537.36" etag="iNKmILcqLz1QiYoUSn_6" version="22.1.2" type="device">
  <diagram name="Page-1" id="-vwOE24Lo1v-VtGJujB1">
    <mxGraphModel dx="644" dy="597" grid="1" gridSize="10" guides="1" tooltips="1" connect="1" arrows="1" fold="1" page="1" pageScale="1" pageWidth="1100" pageHeight="850" math="1" shadow="0">
      <root>
        <mxCell id="0" />
        <mxCell id="1" parent="0" />
        <mxCell id="WSmRnzZEHJ4d43bFwBce-4" value="" style="shape=image;aspect=fixed;image=data:image/png,iVBORw0KGgoAAAANSUhEUgAAAcsAAAEyCAYAAACVn/uWAAAgAElEQVR4Xux9B4AdVfX+nfL69k02lRSSEJJAQghC6ITeEUQQEBAVpVhABBUBEUEQRMU/FkREfxYU6R0iAQ2d0EJJQnohbZPtr0/5f+femd23m4Rsks2+ebtndNnse/Nm7nx33v3mtO9ogjdGgBHoFwg0v/bC9Hdm/fe8V2fPOmPVsoW1esQU1UPq6qdNO/D+gw87+F/VR5z+qqZpVr8Agy+SEdhGBLRt3J93ZwQYgRJDwHVd/SfnnzProzdfPTRq54SbzYh41BSpbFro0YhI5WwRD5eLCXvv88KV/+8Pn9Vqa1tK7BJ5uIzATkeAyXKnQ8wnYASKh4C7fPmu3/vOpc+sXbR4nJ1sE7nWRlFbWSHsXFoY4ZBozWWEEQoLTYRFxtbFmKlT5990710HaxVDNxRv1HxmRiB4CDBZBm9OeESMQI8g4C5ZMvLKb17y1KpFH08M5XPCFLZIRCIim2kTYd0QralWES6LC9cwRS6dE1o4KpKuKWpHj55/13OPHahplQ09MhA+CCPQBxBgsuwDk8iXwAh0RQCu18hVnz367fp5iycKcrdalojFoyKVahPRMGgzj78TcdGSSQnNNAT2F5puirzQRQ6EeuEV37voyC9ffBcjywgwAgoBJku+ExiBPoaAu2pV7UUXnLWoYdGCqirXEHFdE45jiVwO8Ur8OxQJi3w2JwT+rRmGsBxbwNDEaqAJMxIVG1JpUTNy1Prfv/jWGCT8tPUxePhyGIHtQoDJcrtg4w8xAsFEABZi7NZvf+X/5jz7zOllsCajliPAjCIej4tkKgVrMoGEnjx4UROuA3IM6cK288JybWGYmrDwGQtu2VY4bW+7549HjZnx2f8E80p5VIxA7yLAZNm7ePPZGIGdisCfb7r6zsf+/rdLy6y8iDl54SSTYgASehqaWkQkFhV5VwjLhlFphuU4HCsnDKwC4YghsvmMiCDZpwVkKsqrxecvueSKEy75/i926oD54IxAiSDAZFkiE8XDZAS2hsAL995z2e9vu/m2ULbNjGi20KyMCOFDunCE5urCxb9sjf4yhKPr8nCmQ+85wnZAmmBNG1aoiMIKNcLixPO/dvNZP7zx6q2dl99nBPoDAkyW/WGW+Rr7PAILnn3qs9d949IHyzSEH0GSwkrDxerKWCVtkiwlURJpGpI0aQuDLK1cViTKoohpZhDD1EVWM0SbHhJf+s73rzjuosvZsuzzdw9fYHcQYLLsDkq8DyMQYATctnWDvnrU8Qsza9eXR2EZJkLIbjUskcokhQ73KjyvKpMPhEl2pk+WGt4w4YaNIuGntbVVxCvKRTKdEk4kLlqR+PPj3//uqMkcswzwzPPQehMBJsveRJvPxQjsBAR+ftHZz8yZNfuYcCYjKjRTGLojMrmUiMBaTKO+0m3/luuwMJHYgzE4sCx1/CMagpIPiDJEwgT4ycDSzKHeMjp40IZ7XnhzFBKBkjthyHxIRqDkEGCyLLkp4wEzAgoBqqV88le3fPcfd//mRqulTVRFo7AUkb0D16uNuknd1IUF87GdLPGP9i88WZkaYpX5vIigrhJ5sSKL91stuG7LysUF37n8Gyd85ZLfMNaMACOgEGCy5DuBEShRBN5//qmjf/6dbz6eqv8kPKCqWliZLDJblcXogDSpDMQMR2BFOjK5h8hRfunxvi5dsohghjWRSiIRyIQVilISK14hyoePWn7rH+/Zq3r06KYShYaHzQj0OAJMlj0OKR+QEdj5CLgNi0eccdKpH0fWrookbAukF4K4gCvSqYxIoKbScHRhQmnAhkg6kaVK6FFkSf8ykAEL21S0WUlRXlElbMsUGTcktJoB7i/u+fO4yj32WAoXrPoAb4wAI8CWJd8DjEApInD7ZV//56vPPX1mFXReo4gzJtFNJBKPwf2K8o+cBTI0hE6iA34GLB6LiTSJMIkoDbhpyT3rxsOiuQ1yeGZCVA4Ztvpnv/79SYl99nm7FDHhMTMCOxMBtix3Jrp8bEZgJyDQ+O6bU79x5ilvhzNpEUGZB9VJuvCtOkjsoeQd2jQiS7haTSOK8hFX5GFhavDPUjmJbWVhdToij1pLyywXbXlNxGoHpH951x+n10ybNncnDJkPyQiUPAJMliU/hXwB/QkB122qvvDgwz8w1n0yNIyyD8tBaYj8Fiu3KhGm3CgmCcJMp/OiPF4mrLwjwigpCYV1lIc04y1b2KilzOgVIlpZl7rj//6yX/nEiR/0Jyz5WhmBbUGAyXJb0OJ9GYEiI/Dv22/+3sP33HVLIpsUGsQEdOi4UhSy0LqUXEmRSZBlCEo8JspJ8ikk/yA7Ngt3bdbNCDMaFi6Sf9rchLj86h999YDzzrunyJfGp2cEAo0Ak2Wgp4cHxwh0IJBd9v6Ec0847aMyaL66qWYRR2st2+7IcKU0V1VDST+qTMSFgI+GfSI6tGDRZSQPl61eFobrNSuyRkicc9EVN55y2XevZZwZAUbg0xFgsuQ7hBEoEQTu+MaFD73xzDOnRsGAmguRdFiJJnpQUqkIlYNIi1ISpfqhFzUbcUrQZhjWZTaL7iImellCsafRzoqpBx/2wnV/fuBkbsNVIjcAD7OoCDBZFhV+Pjkj0D0Elr7ywrE/uOCCp2PQbzXRfxKNtEQiERNZJPkYMC5JmUdtJJYOsqTYJcgyRD0r0aZLR5KPhhhlFhZmC14fucfkFbc8/MwEEGWqeyPgvRiB/o0Ak2X/nn+++hJAAEo98YsPm74gvXrl8DIQpYP2W1kq+wARmlQK0k6WSvvVRomIJV9Ej0q4XYksNbhjTXQTaUiDZIeNcA8++dSfn3/t9VeVwOXzEBmBQCDAZBmIaeBBMAJbRmDxzJknXHvJl59IoI2WjqQeStSxTWSyQvcVya2dyJISe6ie0idLHeRK4gSCVPC0sEibcXHOt77x/WPO/srvtZqaZsadEWAEuocAk2X3cOK9GIGiIACrsuLrBx3wUWbN0mExkYdn1UKsEkNBJivJ2RkIWBZalrJnJdVbgjAduFsN/Oiop7QRu8xpEVEzevwHv7z374dpw4dvLMoF8UkZgRJFgMmyRCeOh90/EJh57x+++Zef//zX8WyL0CEmQPqulNGq6RFJglBClwk+SubZ61dJWrCeUp3lIr4JdrUhXhCtrcv86bEXd9OGDVtZSujhgQGmsYhuwAVuWNtU6+Zby1qzerll5ELpZDKCJ4GIG9INTTNTmq7biVAoZ7uhprgRahs4anBrvqnJLquqsgdqWmspXTePNVgIMFkGaz54NIxAJwQuO+7wxevmfbhrtakJJ58RjgHhAZKwg6UYCkVQGuKTJRFlx+b6aj6ow3RCIZEGoZ589gU3f+Gan/wQST2+0E+g0AYpht/fsGLPlesbP7Nmdf2kxpZkTc6OxFqzVmVrOrtfcyofhecZhjS4E+SPIlOhoXwGn5PX4eLBQIrDw+es6VKxCHJFWU0HcPGYZtXWVr4aS0TWaIa7MhE2WmoqqhvGjNpjycDaynkTNW1NoMDgwQQOASbLwE0JD4gRUAi8/ug/zr/9yqv+HANDxEEALiX3UHYrlHisPMiA5Ow8eWep34NvMyhVfpasTRJPR5QT/SnD6CaSyN0/65lBWnUwOonUu2750vXL91y/oXXX+pYNY9esWz9l7frGY5ta2qI5G9cVSggjXC7o3znXFJaLOlGUv7gGHhC0kKDyUtjX0ML17xaqn1HatxDxA1HSu+SmhlXtZAgFdFahrKgspP9SwjA0EcfDht2G0hpdd6vi4dbBgyufHVFX+drAuqFzR9ZWLt2jsm4NZwvzt9FHgMmS7wVGIIAIkJV10eH7LUmuXjksip6TGn5CsKKkC9Ygr6RQEnaUvIONykXI9UqtncluNFBoaYNc0rDA8om4uO6Xd5w48agTnyzWpeJ6tGXJZYPeXJ46/KP5K49a8UnreSlb19NOFgSItmJwKWuoGSW6x654MKDfZEFT1i8sSDwW6Hhfg1UprxJsSVi4sLRdPBm4eDAAsakHhfb+EHgfbmp6mR4i1IME7FL6m+K5+HwYx7SyiAPjLRNJU5QM5aJ+VThpK2q0uXtO3OXBsWMHPDhh9IhXw6J142htdKZYGPJ5i4sAk2Vx8eezMwKbRWDtCy9Mv/JbX341BCtIeLWUYST15EGasDHRpzIkCUN3iGBAnAYWfErmIcsK7bkUWSL7FWQwbPKUV25++ImjQSbJ3ob7o5Urx72zeN7nl61du+/Kja1HNFuxspQVxTWUCy1SDksZYwdTOd4PFb8Q6RFpETkSicr30J/TtnHl8KzS+whR4olAPSCQiDx5YolkqeuKdMvCGqXfJkQYYDlKFy19XvcSnoiFLWjraniNSFITSJgiLy4+hz9xXiLMZmDZJKIhtDFDwHhwbfyZccMGvzB2+NhH9x89YVlvY8nnKy4CTJbFxZ/PzghsggAW+eg1Jx/38qr5c/cO2Rlp6YRJro4sJmrQjIVeDxEBgBxBlqTWQ2RJpEHWErlgQzak8ERY6NV16d/MfnmUVl6+vregXuKmR773waIjl6zZeMy785Z+PmuHhRYuE21pEBNqPcmCtDDOfA5jxXWB+qSlRyQo24ZR+zD6wRXYIEp6XYMLVf7GD5GnJEQHblayJP0EJ1ii0gqVpiQYj+xI7/PqmKrzijwP/k0PG2SrhhDTpdfyqEfF/9GujDq5qM9SdxYN8oIGXLlhYGzlmuXvsSOHPT5iWM3/Dtpt2HPjq4e/H9Q4cG/NeX84D5Nlf5hlvsaSQmDBzKcPuuHSi2fHLFiVLiTt4DfUsfjn0uhZGYIAOhZ+CNcpy0lEPcsyJy1LittRKYkJsrRQKnLwaZ/7x3m/uPOcnQ0ACSfMWb166ux337roo6UrvtiYwRjR/ksza0Uqq4tIpBJkhKSkMETd82kVT4Tr1HWI1OA4hcKQ6rfpNalGbJY2yuMhYnVAjHKjmK1HmmA7EYY12C71R1alrDOlxwrlnqYkIPVZcvWSwDzivuRzhQVO1iuJzOdyOUmeeghWOo5PbxOyBoiccobk8XEME8Cicyh2QWu0MEg32ywiyWYxZvCAlr2nTP7BYdMm31+haUja5a0vIsBk2Rdnla+ppBG497rLf/X83/7+7TJpGpF71Uvegc9SuinJy+gRCxyuIpVOi4rqCtGaaUGPSkfE0ZIr3wxZvPIa9w9vzhqmJUbttEzPxa5b+d83V1zy2py3v9/Y2lKhhWNwrSJOCrJxIdRu2XAXU2KOHLlHPBRbBQF6bCbfk9dEEn3UWswre/EncYupu9jP70jmH4t+tyv/yT+8423muO3j8U60yecU23rjJkUkRbKkjKRT7BiED7qHSD0IONsqYnDdTpsw6t8nzTjwmjHR6MclfRPy4DdBgMmSbwpGIEAIwEKLXXr4tCXpFSsGh3PI6kTyiyRLb9FGPksnsqREGIrL2UiUQWtLWHOayOUpCzQmZpx42r8u+NVvv7AzLu+9VGr4e/OXXPjfN5f9oDGrhaj7iUmlLLCA84gD5khij9qHkWlYsPnZuoXC7ztjfL1xTCJxkhykJKIYLjNqwt5P1sPWT4upu424d/p+e917UN3Q2b0xFj7HzkeAyXLnY8xnYAS6jcATd//8a/+444679OZmkaDMTFqMPbKUWa4FZNnubiS1HhBkCD0qk7AytVhCOIky8dM//O7I4fse/Xy3T96NHd9Zs2bUK3MXXvr2x2u+24i8UIv0AswwSjEQI4XRZVHGDmW2wqokF6jXQaz9yH2JLFVmrYodO7aXUETyg3peRLQ2EUaC0OjB0UeOm7HHDfsPnPguxzW7cYMFeBcmywBPDg+tfyGARdf89omHvVf/8fyJlZSEkiVrkeJwtClXpU+WStIOf8PyzKbhcoV1ifxRGW/LRWPiM5896b5Lfva7c3pqgV7U2lo366XXf/TuwhWXNORgyYZqZUxUpwQYjFXK6dnUPBMpMyBKKuWg7NO+bFnSrFBGrYHr1UXMy8DFiyRgT7FN0SoSEdR05hrFpF0H/vWow/f93j470SXev74tvX+1TJa9jzmfkRHYLALuqveGf+mUMxfm6+ujA+Jov5VuE7bnhtURc6P4HJElbYosZeaJqh9EyQO5QiviNaJR0/L3zn56tDZg/Cc7CnWz69Y88uY7l7757orrVzfkdNdEJBW1FQ4SjyxqQg3fL6noGGj/RfWfNonmeGUcMhbp1T764+iwLFXMkki1VDe6Ph3lPJkMmdg2YpYhEZIPCcAFHgEyrnNOGvWxSMZCMlB1yBWHTR7/68PG7fmLXYfGlpfqdffXcTNZ9teZ5+sOHAJP//r2b/31jl/ekUB6jJtFn0rKHPWSewxK7ikgS+oqQmRJZQ0qZolFmmorLVNMmXH4rMv+8o+jQFSFCnjbdL2wcvWZi+aeeN9TLz2aFBWIwlUjYacK7EbFjVROkZKycgbilO11krLKE2RJ5RcoDyHXrMo87dj6ElmSQlIaJBmNRkWClA6QVatBfpA2BzjlaU4Qt81C07eiHA8YmUYRzTWI4ZWGc/T0KZ87fvLkR7ZpUnjnoiLAZFlU+PnkjIBCgBR7Lj1kv1WZVZ8MjIAAbVhulMBpoR0XbUSWpurnLDdFliArKrRHjJAqDm0dqSWou7zxnt+fNGbGCU9sL7ZL2toGPfPqW799Ze7i07KhKpGCaDtJzuXh9zVBAlRuYUKGjsowSD2HSjNkPSOIgQiSXK/0dx71oFI8oM+SJS4MDzSZTAokmRExlJ5EyJIm1SEH9aNGDOUoZSKTRVmPmxfhMJXLtIhMao1A8rKYNKLu7xcfe/IltRpe5C3wCDBZBn6KeID9AYH5zzwx45YrrpilNW4UZSHEKcExKRtScFT7h43IqTC5B39KspQyeLDuSEOVpO2GTZi84GdPzpwEq5L0aLZpo+4e/3jzrW/MnrPgV2uaYbGW1aHJdBhEiWUCpEikTHWHNrT1DGi1hkCOedSCmhBIUHFLlFBgX6m6Q/oJIEwSquurZEnPLXk8tJCgAlnZBA7VuFI5j476UaohtS3K+KHkHwgyRGB8Wo1IxKJaTyQA2SkxZfCAV6ePn3Dr8ZPHs5W5TXdr7+/MZNn7mPMZGYFOCICkQg/dcsOPH7rr7h8Mgkh6NtUssmQrxkCCXnqPJEtYl+TGpBpLnyyp60gknBC5LEQAoglx3lU/vPKIr37t59sK8Tsr14+b+e6iW99esvazrbCKXNRLUvkHGba+3iwdExpBsmA/75WEkE6QUtDZ2qbcsf6C49dZlnbMkgSVVKKVao+mNlULC7c5idkjSzkaQTyX5PWgxKTDZU7WeB7/NiHqXi4yImInxaEH7H3dl/ebejsLt2/tPire+0yWxcOez8wISARAlonrP3fSrBVvv7tvHPEtaO8IOwLSROyS+lCS69VEaYJK7vHJksTDHWXdQVDd1BNiI4yb37349MQBo/acty3Q3v/qqxe/+Nbi365L4VixgSILd24eiToGqeVAbo8k9Ewo7NBG46EWYXmyMkELpievt/Xz9T2y9K/ZU+SVpEkWtSRMKVpA84P/4oGm3X2OhGGKL4fwMBKLIq6ZXIN4Z1JEIac3ZdzQhy8/4dgzQJieXNHWUeU9eg8BJsvew5rPxAhsFoF1K+aM+e7xZy2KJZPCQPwrFEYMMqKJFMoSSOaOLBQiS/Vl7UyWJBxukYycFhejp+77zrWPPLp3d2Fe3uTu+sDLL9y4YNWGs9Y1orE0JOnccKVIIUeFMmvDEGvXYRHRok+LPynYSA0bECV1OVHlLMqC2vLWmSSlAk6nrXSzYSmoTNa+7Gki8aAHmI45IqtTls9gM1GLilRi1GNCst1MyCzitrYGJP5k0dS7AS3YkiJhtYmj9p14/emHHHkbW5jdvYt7bz8my97Dms/ECGwWgcd+fevVD/zmtzfFICgA/RsKcYlWahMFl6xckCmxBmQp3XpIiVWuP7UwE4c5KFmg3o/X3PqrE0addNJT3YH5rfrktN/8+Z9zWpG8k8fiTceANxgkiN9ws7ZnvZLl6LW26iBL1TVS6q1KotwS4XUQY8dC03fIUqPuLgUPC75L1v9N0FD8ljrFaLDITfTidPAZ5G/hISgMvVxkM1vrRMhtFGXwIxyy1+53nHjY/tcOECK5I5nM3Zl/3mfbEWCy3HbM+BOMQI8icNVnj35n47wFe+lJJH2QrxU/LUjuiaAkARI5sO7QGQNkSVshWdLfBhbhLMgtPnRY253/m1PVncSeJz9Yc+nfn3jmTjdegazahEjC+MlTvQfcqwbIkxZ26h8pY5UQGpDxRXgGpZsR5yTLkvp1SJokRaFNrMWu8GxaweLrsJJlWqobJfOEkMSkGm3T3KiG2+0as15zbsoQzlNGLPAMRaCdi99ZNPQOYebK3CZRE8qLL5x6zOGHDhvwJrDIsBs2mHcEk2Uw54VH1U8QcKGM89Uj93/PXlc/GBowcNtBrg5u2KwkJwMZk6o3pSH7VqrEHgeJrrQgUxwMGt4ii2zYur2nvXHL/U8c+GkL7UoIDDz45Oxr31686rIUFExzWkxkYOWYKKw3kHVLOrOWhXgpVAWkJURlH9R92RcQxwj8ZJZ2YfTtIEqa2r5AloR/SD4HkLWvxO3VYwERJqUr4zfakMkWYPSOA7e6QRnDafnwUYZWX8dMn/az86aNvYHdrsH/wjNZBn+OeIR9GIGV77w27kcXnP+R29BoxlEykkH7Kh1kmQMhUj1/lJoRU6kGyNLPgrXBkL70XRjvZeIJccxV37rqtK9ceduWoHpl/fqxr7877xevfrDkJAu1k1lEybI5HBdWDyUJUWsqIkrZIxOvEVlSnWR7qytJAUTQfgxS2pjeq4Vn3bwOQqeOHkSWfjePEp5bWTDiZwWjjlK2HaPaGokMJUKhvMaMitZWdCSB0noF2nolm5eJuJ4U+0wZOeczUyb9YMagMf8pYQj61dCZLPvVdPPFBg2B/91958W/vfH631YQQcHlSVYjkWUGGZSkOQpDRNZYkquPrBeZWCMtPSzV1L+REkUiYfG3mTOHaqMmbrYV1/ym9Ohf/999H6+GYoFeNkBkXMQpLYqhIemEmh4jpkYkGQ6jkF42QYZ1SUUiOD/VTcqCD1hJMtGHzkuuRxCDimGq2GXHVnpkSbFFP3nKz1ql6/GtaPnvTjeOul66dorxKmqkLGZqEq2uH/akzBrG7KFkJCXKQZQiWy8SiE8ec9Bed5673yHfDNq9yOP5dASYLPkOYQSKiMA1JxzycuPypQckm1pEGAk9pHhDFp0t44Qo8PeaGPuLOJEZEZsGCyYHSbkUCM6oGZj7+yvvxDaXFPLkWx9f8OzrH/5xaaur29FKEqgDCeK4JHhA3TJwDJnQ074pl6IkQBlP7FgiVHxSuWU1169u8FyORcLQJ7GucdNC0us8tA5ilwlSnutUCT4o6lf9QpXdTO5UJTmAhCq8SPjrUDBSjAhKRGKUI+O6yGrFQXTMH8pTZXkIebE1JGrFoNwj0mvFxF0HPH3OUfv9YHzZoPeKBBefdgcQYLLcAfD4o4zAjiDgrlkz8CtHT1+vtzXLlZlcohrqGYnEUL0uD60WbUUJtIjLOKX37wwK3JPRuPjseefffPb3fnR117E89Pa733nmpYW3r27D4l1Wg2QeiLNnXCzeuoiIFKxS1HG2W0B01EKrkJJ4VLPpggCjl+xD+3WQ5ZazYXcEne59dofJkq4aGFMtqU+W/pl9siTr2gXzSZIkcvWSeqg9Vz4L0QHS8M1ngaWNDFdkE4MgbZT9xKHYo+XaRDxs2cceuM93z5468VfduyreK4gIMFkGcVZ4TP0CgY+ff/aQH37lrP9WYJENow5PWnpQfKFyA6Slyho9av4sydPbJFlKwoS7VA+LdKRMXHv7raeOP/7UTnJp98yee/tzs+d+JxcqF1l0CdErQiIDd66djokoShhMu1VYiI9qIZzXtyQ7adCouKKysrq6WVXNpbLeipvNSpah/yCx+ZvmU8YnLWc/e9WLwRZqz5PrGTFJaVGCUXUSS5dKPBlpkZKAvYY5gNcaRCrNSBBlm4iZ0InVW4Sbrhd7jh1x6w9OPuNaWKSoBeKtlBFgsizl2eOxlzQCz959x9f+ftstd8UoS5KqGWGxuOhiQRYmtXjKoYsFLch+5qukJo83iajySMxpsg3x7xefnaCNnjyf3l/qutEnZ8+++T+zV1wWrxkFfVkXPynUIySxsIfQkLgWqjuIhUIxxkDNpg13qq864x+/429FNH4yTuckna5iA8WZih0hS3ldEOGl2KLUdvXrSdsvxSdLzy8rVXnIosYDDbllMUdp+FwjEZTbUMxXOrlbQZLrxIQR5f/vmP32+eWho3ZfWhxk+Kw9jQCTZU8jysdjBLqJwF0/+Nadrzz0wKVmFl0ryFqk+kVy8eG36QmTS7Ki3ohe7JCsTN/SzIFUa8bs9snP7/33FG348I31rlv+0Guv/fi5Nz++3NKHilQOCTxkDcGosdBkK4yEHtMpF1YWot44TzSKXowoVZGEU2ChFdYJ0vmJTGR8z7MiO8hU1RgWdxHZvMhBhy2+ZctSJeioriiqXlIJ15E71peuQ5mrtPJVJxUL0V3UStJ8YJ88YpUuROQdNwMVHqgv5ZvF0IpI5tCpEy45e9997+3mbcC7lQgCxb3PSwQkHiYj0NMIUIeP68869X9L57x2gAl3KNU0kkVJ5RtEmCEQpmy9hb/pt99EuZAs04iVDdxz6pqfP/iHXRtFZeTux2bf9uaShgszkQEinS9D2UIcXsM8Ymc4DtVvUtIQWVJUWwnrkjZbJ8tSkR5tXRcEn3RUHSHZU4o8/U1poBZz2wGy9B4ANDCjIZOmOix3X60I6KC5NXYEQboQbiD5PyJMHRY7YRqKEOWmoe+aE3uNG/7DK4464mfdEYYoJmJ87u1DoLj3+faNmT/FCJQ8AiC9yIUHT91grV1XFoKaiyAew00AACAASURBVI4aSyJFG2UcRJamT0i0iMPKpB/HsyrJ0qR9M9GIc80//j6lcvIey5/536Ifznpv0fcanSqRQw9FoUF0IIdSBizwJOady6WoBgWyeMSIVDaCTiVp1QtTkqTHin7vDPk3yerJN1WxvZ8Z2p4ti9eKTZZdu5d0x6L0bx7KoCULWynwqIQmRwrF0x4q4YnaU1LmsU69Q/GbHj6o0wu1JUugHMRNrQVJjrzxoAP2/t1BAweuLvkbky9giwgwWfLNwQgUAYGG+W9N/uoJJ75XTZ09skgYQfzQX6LJwqQFnOofTSkQoL6mNhZ2Wsgp6Uc3DZEqK9v4q5n/GfPiksbzn3hp7k0b8rEyt2yQaE46IhaJSs9qiPpL4jOWA1G8KJKCoB6TATmHzUovMcWTrfMIszNpdiS9+PabT5gKMlV7WcxtR8iSiD4M1yo5mMkdKwkTP4o4CXN0B8GDhp2F5Y9m3FHSbqCSGystqsqjYkRt2e37Txr152Mmjv2gmBjwuXsHASbL3sGZz8IItCMAq9L849WXPfrsv/55fAVVOVJij0eWtHAXugNdipOR+xNuWuUCRYoJxcvgDiybNGXtoVff8OOZ89d9a0VDdoIerxU2smptJP2EHCSdWFRPCSsSHldbyyCZJyeJVlYTWsiQRXlKHtFMqdpDarD4LBhZun5DFKejWkoZy+zcMUplxxY3C9YHc1Oy7DIuP5sY1yWvkxo1e25t2ZAZDxNkLZI1Ly+J9pfatypdhzJhHbRNo4bcRr5FJNC0udLMtB1/yPQvnDh14pN8W/cfBJgs+89c85UGBAGKV/7uO1+785WnnrgomoeLrwtZ0jDbS0RocSc3IeVh0oKPbswO1fyhfZYYNT6jH3rK86ujA0aKSO0eDkpC2jIojidhdT0m8hmUpECXVFqlSPKhpsNUCiF5wYLcAWXdIh5HAgjUkkuKmpOeKUiFmj7r0g1LvRh9C9PLCvWsyiA0bt4aWWalEhI0dpE5bFJvSVy8lcvK3/TgIK1HiEGYML9tPJhQ6Y4s4aEqEc8dXlmGEp2mejEwYVpHf2by6afvM/YZWPvoacZbf0KAybI/zTZfayAQoHjlTeedOmvRa68eEEKpiKxl9CxLar3VLj7gZZpSJiy5BYnUHJSSQC9G2Fj4o7vv05yYce6LS91EmaVr+9pmpNwhqxLC6nAqigx6Y6JGBCUj+AzqAZGTgiQVFWdEsyip5JOXL6DPIhRnXGo5BYk7IkwHVqWMR2JcqlyCMmbV2FRhZmGNYvFg3RpZ+klTZKFL5SJcDcUgpWub2meBMDM5ECTSXsN4CKFMV1ROirCWFxHwoZPeKPYYN/y+cSPrHvzc1KlPs+B58ea62Gdmsiz2DPD5OyEAIglhQUK+JtZkWGDeqkz3Kf79fjTXuHFYS0tyYLI5WWMlkwNQBhELWZaW140aLHQbW9NpIxyLNOtGNBOKmWuHDa5dFhk+wEu8mEaF4TaO35EHUgT83abl1ZefdsYb9R9/NDZhRlQqiexRSTykhiaF0mVWDTRaaQ/KjCUhAiopgaWUhGLMAWd+6f1PKnf/cI1RWa1Ftd0sPTQ6l4X8Gj5nhpB8YsDJCnFZRD7hukU7LhelJDgGtck0oDCTTaMlGDJlNcQ/NbwHIxeEEpPWJ1lkBBORpdSBlXTdQZaykbG3enQVSe9NSLdGljKBCeRILtd2hR6K/eInT8lTMQjK48LhZRVlsLJ1ZCaLdLNIIMO1Ku6kPnfssV88bPwuD/fmNfG5gokAk2Uw56VfjQqkGBaL/rXHunWr9s4mW47VI1adbmcGZPNtVU3Na2OGacXCph4hAqCsRJmlSVYPpOHI5UgbEQRZDplsXgqCU+yJLCpZ8kAkgwURPQQbXVdPlpWXtSTKKjeGzMrm1qbEY6NHH/qctusRyzEO8OjOJ1KcJ3b5kdMWpVesHKrlFTluiSypXyVdnA1GsrDwZ4k8E3FJljf97g9Hjzvi5NdXZbN1CxYvnv7RwiVHL1mRPrk1la8UZhYKPxaFJkVrHlalMQzZPpXAISOJIgYLMoT3ddEsZe80tOtKYywweuHihQuXxBFQmmJTnYknmk51iFRmoVzEwJZI3CP5Yt2w/mz5hO3XgvrjoXgktciS4jt4QKBrlXWSeOCwIV/XBGdqPBYREQs4JOvFoJgjpu4+/O7p48f9bsrIkQvYkizWzAbvvEyWwZuTPj0it3VRXWvjO+PbWpL7pNev+kzj2o+mVoTc3aMR0t1EAorADy3y+TaRs1pFHP2PNfT9kwLe0raipBPVBkmJilN6KDEi4mxYFDOZjFS9sb0yizx8j5S4IokThErGGold0+bacfwMFOlMVISi5W7Wir5aXjtiphkd+M7Q8ZNf1ir22bAzJsN1V9VePP3wJfa69RXSapQlC56AeYFlqaxLdY2yXB4LfAqJPUYiKixc499fnjlIKx+7vusYF250J61cv/jAtQ31n6lva91t8fJ14z9p1AdpYZSUUF0lHjIMOwbisC0z1GKm4K6Nxaql5ZkjsgzF0fUExEjJQJIMCXdp5srxqNimp13bnpi0M5Da+jG3RpaU0EMWJbleHSQuGfjbMAEsMKBEpgi0dXPJZlFXYbjTdh9x616TRvzxgLq6RVs/M+/R3xBgsuxvM96L10uWGk4XFmsfGbLo/Ve+kU2u+1LYTNUapJ2JGrW25EaQGDISkU1Ci5pD/ROpLyD+HSKXGDiNatpkRiYWN/rx1WtQwi+VbWzsTwo0dCIiS18iThIjJWhQKigt89JnSMkr1NZK3fawMtH0GG5HWKdwTorWNpQIgFCgbQMuKBfJtLlk2MhJX6+detQrQkxL95TV2da2dPDlhxy+Qt/YiGo9RZY2SEcOqwtZakRasC51WILkgs1i9zxIs3rY0PW/eX7mBE2rbNjalNI8rMi1TVy6eu3n5i98/7QN65qGZloMu6nVKjMqw2WrGxpEJDEAeCZEKo8RhculTB6p11BBvpKU84opSC+VXpfNqDtirVsbw856f2tkSSTvQmmHEpYMSnDCPUbWJpXTIF9HlDutn8w4cO9bz5i2x+9Zv3VnzVLfOC6TZd+Yx8BchSTI1FuD57/67NnlUev0lo1Lx8Ui+VorswG1f1ikXFiMkAWLxwUsR9SsgcyoFEIqyBDpUQE+JaJ4TXTJoKS4E7Wq0qhkQRImWZLKBaihLRKclFJ0nNxtRJbSDSs3tbBTpidtRDokHKdUcKjQX676smMEnYM+Z8A1l4M7MmdTUV0FTlcm7FBt0hUDFiZzZU/utddJv9SG77dxRwBvWTp392+dfOKHRmuzHpZhWVLSwZg8l7Ecq4wP4oHBz1AlHVJcoxNCuQdijBP32vvN6+668xitamTjtowF107sHF2z5qUJM2e9cqdRHp8+f+lyXGsUGgVmuDkFYolXyThnTtYeYn6ACdUhOlD9cfEgAY034IfYKPah1ykrVs4ZGfmFCbOKTdul9DqP0xdA7yj12GzsczOf7+Qo98TQO3dMUfcSxVqpz6QG7d0QHsoM0sFFJmxloqx+j4l7/OOw6ePvmBwVq/wY+bbgyPv2PwSYLPvfnO+UK3bXzRmz4sMXj2jaMPfcWHnyIM1twNM8NE9BZDI1heJcnisPBYBYzFQxeCexNG8V9KXXOg9U3aodC6VSWFEL7JbydTZze8vFdTNbuzaqIi2iKwduSdi4+GcCVipcnxaaJtuIb8Uq3qguH3RfIjHmf6HJX5uHxRZZId3f3n76iZNvvurih6LpNiMG65caBqMhiHS1yvPJNBwq2QBZol5S1gDiZQvWZxslq0QTYv8ZRz94+Y9uuUAbOLC1O2emDNzcun/vlsmunDF/3pzzIro1DfRHgTylDoRz5mBNNqWyogXlJ5YehwhQlVi2PinSeGBoyiERRlSJtmxCGLFBImtHYX1ibEY5HOdIHCLDH6QpNWypRyYeSOjBhTJz5Tz52b4y2YZcvPAEUO1ojrJylfVPtaPUDks+MJHwgtTKJQ8BSI6yhvE6VXv46kb0wGPoUCpCm6xQGC7qtlZRVo65suCKh6s+jNpSw21GrWmDmDRukDOwIvHR8IGD/nTgpH3+kRCifnP9P7uDJe/TPxFgsuyf894jV41FLyGWPjP85ScfvaeiMnPgkOGGaEl+DNdnE2JBlshlWuSCSN3iSZOU4lyKiMjlqEoR9GKmUkqeLSBPSZgqgUhueM9CVwkDZRcG6hbJorJRn+g6SBjBa45eK1Y3xDcmaib8eeKhR90u4tNoAe5cwb8ZpJ+9+//deM/tP7064eQ1k+oAqSRE1jSS6iiRC1E1Xqf4IMiS1HqyVkrgnyJDWbGIwZ505tl3fvHa2779aQs+EaRofGvQyrkzL6qv//iysNESq65xkQW7FmdIwdpCMpR6LFA1h+TmxXigsw6LEQpAaBZtQemnOYtMWXOwaMnFxAcLN6DpdJXQwlWiAfZ2c4aaHZsiGi+XlntbGxKOkeEbAaFnKWEIREiGvXwooh6dZK3KhyRKuwKWqGukz1HCDWX8ku+dlIps6QZWovL0MhGkTrFpaowNC5tYlLRaqfkyvUZufbIidQd6rVArclMbHOQMO8OHhBqrE7p77JEHnFlZUbmxOjx+uabVtvTIF4AP0q8QYLLsV9PdMxfrus8m3nnkyRuiWvMpYbN1jI7efbqeweLYIOIJslHyItnWIirLKoWdI98ixbeIMKmJrkrUceRvcr8SWRXxNtyELKVOTjtQKuwK0iLTjsgexED1iFLZhSwpJCa1ZVG3GKsT2VxkbThctwoxzwW7DBr/z8geI17RtGM3iSn+7YqvPDrzwQdOjnhkQCejmKVqGVVIlvQ8gaxVuJeTKGcwY3AzgzjToJuvXvS1G4749udv1LR9ZJmN5PaWOQM2LH3jgA1rF33OtVonxyPZXfK5hlpDQE4PbbqiIZSRoMMJZRRTzC4aDcv2XdSmS5WUUAmJyiwmUtMgcpDO4PAGxXARy9UgepAFKYUTIEFY2dSQKp3FPiCtSFzgn2Lpqo2Ie5JoQrVoBJmKSAWShTBuNworFA8coYR0juaIkEF6cfjjs8jQpYcSeiiQCjp0Ld5DlFTdkW54ckzTh1QfzRCCkBGkuFrAJaonhZ7bKEYMxANMyyoxedcBIuq0UNIO3m8QVZUJxKMzGOOAdH1j9F8HnHb+VZp2SH3PfBv4KP0FgSKuUv0F4r5znetWPDWmcfmcLzWs+OC8YdXaCDPUACtkPQwJtCjCYp/DQkxammRN5jMo7Iagt4OEEZ8oaZWjzEpywTqqlFKWIBSXLFWiSjtBSqvSd+uSZUNZtFSXR8E4JALJuKcpX6esXQ19ItNEQCHUMTpxWEiVcAeSixHVGyjV+GR9Y2Nl2dDF1XXDltfWDp8fDdUsvvPaW749f877UwwQbx5kbcsQLArjyVFN2agSEWVxarCPTCqeB6HoEcQJkQXbkm9xv3TxFx454KC9F25sbhzS0rZ+DBo5j4mEc4MiUXwO5OGir6JlQZ4NerAmHkxyqKmMIN5pg5TKy8pEGslMaWjEagkqD8E1UzaxjD163TVk42NVYkFklSbVGxw1jN6NRGgZ/I1Dwf0ZhWsaZEmJUXCJJtPAyqgAWVaKthxoGtfTnBSiKZkHiQIzM4r7pQw6tXDnYjwtLU0imUyKbBbWIOnkeuU+dE6DenmCH4kkZZyZkr1gbZOIeRzat7Ew1HcEDp5vEqOHlouQtVFUhxCjzNSLStSYZpMbRAXakLW0tIhYGaQAtWqQdJ1YtzHcMmT4PncPGD7hr2XjT3qv73xD+Up2JgJMljsT3T5ybNd9vfajJ++93Mmv+WEshEL2MBbfHKwBJynKKlwsRuvxGlxxIdTzka4oXGOGHoGsGJUcqHiU3GQZArk5fbKExQCXptQbKNbmlUBsnixVopHq+uGPUWXTyrgbPQbgwYBKEGihJ/3WcAjkQdX9cDtbIFgNbT50WGVtKVhkWg3KHyvEL39yr8ihKCUCUqFEGhmvBC5kTBWSJZXJRDA+iwTVQRyy6whk2zKIB59+/gwxceogNB5uheuUcnwo8xdkC6FvcktSEjB5NkGiXtkH1E5hudG8+Rqp0RhqK+GyJLcoZReT21nDuGXyE6xnFctE7BFEHYkhfosHIlIFIs9nJI5emGm4XKEYRC5pIk4ZQwQZghFBoJTtQyU8FBlV/9bgkiUcLViUZFXKek+IAlBsU44J5EkPDISnfJCSYgkqNt3+QAPsqfyDLE0dyV2kd5vLtaHEyJTZrvlkq7wPFfGr3pRkMStReowZ82Aj/hw2a5G4VC2yZt0fd9v9lOu0UYesKdYtyOctDQSYLEtjnooySrfxnaoXHv7THbVlzScOq8vWWJmVWGha4DZrE4nKAeheAddrrlXUVmPRx2KUTmbkQiXtIkq6gPvQL/VQCx5ZlhSr9GKWWAiLb1mq0o3OZOnDrUpVpJKN1/mDFnj/mjQiAFiHssAdaS4OFfBLwQRYYGArag6cxU84CksONR/R0GAhkgPE7Tc8ILQ2kE+uHJYlZZxSAgyVwCiylEQBy1uHezQMcsmngSvqAa08ibqCEMNN4uQz9wBZVqLkAxYk5oRqR2kcykhU45Uap6SBSuQiW3Gp376lRokzMuuYLDp6GCBi8lzMlDUsfbWEDMZHRGyBiJE7LDVU6eGIzpFHgDMBK5HGRvcAJfRIdRz8OwIrVGLjkaNffiKvj0o5iMRwnyhXK6x10qrFKWVMksiQxor31Oa1KlM+Wjlun2CTmbQoR2JPKpWSZG2RdB1qRemhhYiX5sIE0VPWs3qgQ04v3k8jFuuEdxEbWuJNeXfQY/uecepFmnbANiVrFeWLySctCgJMlkWBPdgnpfKP3NK/nr5k7nPXxkTDntFISrr0bBdWBQq641AKaGlFEg8sE1Kko2xEaSV4iyNlLpJ1QxZk52xVVVyv8mJVSQHpj7Yn1BQDli1lx9JYvFIWUgvyF2e50MtcFLJtED9EvDIMV5/tkCsa6zhlbuLSo7AwcyBKXdYphvCAQUkqdcJuGyh+cvWDIpStFA7EEMil6JBVaaSl89dxEdfzyJIsS7K7LQT4InBxEm9QtqiIbhSnfXGcmLh3JQ4KyxDWlcyNkdmjCk+6LCIdDa+FiCDwb3J1UuJMDORGljAp2lDcz2+zJS1mcgl7/CTnCJsJ0Xay/kjwoaaqWlqXREQxxGvz6JNJxElWJR1bxwOEIjhPJUdip4jO751J9bTt9bJUeuL36aTVyHP/+j07/YcTUmuSx4H1KPVdfWvf8wxYdkaOI5WCtwNu5lQKiT6k3ANrVnUUUdm5sRhip77cXQ7lQnod5iksGiE678brFtQNnX7TkCmX3c9C6cX4Mgb7nEyWwZ6fXh+dm3pq+NI3XnzTap0/OCI2iriZxMJECzml7dBCjCWclFCoDFGyg3LbSdcdyMORVoFy+dECpgJwZO6oSJwiS5JKU25NOqoqIwnA9illJVJeTy7QqjaTFm5yPZJ7kdyHlDhD3SsMWGZEGuTy88nSQqzNxX4G3H56bpi45rsPi7hbi5q/hBRhELAiHR0xO0lUJHFOCS2eUpFNNYKw0C3qnBGVOqYivF584csjxB7TqmViECXo0OYTOgkJ0NzkUXwvMcdYqSwjHkPNKBEaNY4Ge1MXDpMItSChiaZHNqEmL4B0NVO8VFmMlF9Dakg2MljDyHi1UKKhh9DFA/PsW6YU2yWXMf1N5GRgf5/wVGssxcQd1jnFKXEuELWygsmd3WEVyyxZb/MJ07+fVKEKjk/SfLgf81YSMVW8hhgt3aNSyAF4mXCFy/QpL/YaQeyXiJ8s4nwKblpcmwY384ZWhA0iI+FZHvPJ2DHHHRwbdczSANyVPISAIMBkGZCJCMIwGufe+ZONn7zydd1aOzBqNsOKIfceLZhSJE5ls8o7RiWlyGxWLPRq/VPE6cugyevxlF9kwoxHmFBflftQQbv6FOJefqlGUUAorNGUmTbeKLrWY3pxs4IEIF93Vl4q1ZOSWxkJOYLqM5HFKhGChF8IZQ15CDCEjCqRa60SP7nuP1QDAlWGKimCoOoQ4eIkN6wsHVEyc0RZGqxOB25DQ8QkAVuw4kV4jbj8mmmicnCrJJ+O6hs15k30Ub25UhemrkN1NyHRAxCbFxf0XeSSFdvnjzJyaW5VPJMeBmh8dK00RgtShORGVk9FakZVnWxn/NQ5um5KSk9mRheUEG2pmqi9xtZTPlB4ewlaMnEMDyVwZ/tatiq7mN6nuKnKxu4YhSoR0rw6U3Jju8j2zaGWNuNUoUxnTKsWHnP3bgf98Gq2Mjczdf3wJSbLfjjpXS/ZXfLkyPkL/3Ofm12+f7nZiKWFBGrgckXHCmk1Un4GSMBfxGRsTbpRSXCA9FwpU9QnSi/21b7YkjXqLb5yIVcLaYdl2VGm0ftTUVgm4i+jPmF2Jc2CJBOP3NUrKt5JkUAiCZmwROo2RJg4lIlkqEy2RUmtWXC7imHi2qtnCtKt090amEMKDcoOlvE6uGyp3tKvRaXjytggninQQAolEzEgvkxcd+shUNpZJYv05bx0KsFR5EZbB/EUurv9BwRK5PHVjoi4/H2onyNdnSJBui4iOyJLX1GI/pbjRRYvWbc+OW6OKAvnVRGe2l+dr7NXQWLaVQ6oQBaoE+XKa/SzmT1LHA8n6n7z5ks+mNE9SQ8vBZnPch9qrK3k8AzyGlBjMxwzD8GFvF6DzOPhcM8OfXXsxKO+XjPmhPd7//7kMwYJASbLIM1GEcaSefuXRzY3vfNcY9s6ZO0jzgPdVqrJM5DMESYVFW/RlUun1C+lRVVlgqo6SbKq/MXaJ0pFIMpi9LqEbOJq9Rd05Z4tzrYtZOmPsIPcFaGoazUoa5b+InciiQtQ7I4+gvpTB67UKBXnZxHbzAwSP752FuKQBl4bhKJ8xBuBkePFd+EUlJahaqwMyw0uVoq9OZQyC3PepYeW0Cfi2p8dLKDqKjV1JelsYrkpWiHrcdOtgHL8z0lRBLWpOVaWY1dL278fiCzlw4HnAva9A4WnU5qydLyOUhz1fge5GrieTa3ODlx9fLtaqvKWo0c1uuXwW3rH5UMLZWDTg4unDUWkLi1LUmOipz71IICovNwvTO/72bfyVqQkKcqYpeuPgzzhLjeGiF12O/rk6K7nPV6c+5TPGgQEirVKBeHa+/UY3Ka51SvnPvRPt/Gto6NmA56kUZeGMgI0OpSZj7RkU9d4Q65uyoqgxU8tNLIVscSPFk+1IHsLcMHi62fAqpKRLhZkJ3dnsW7DLZClXImVu7Fj8x4APHJUJOC7PEGPIA1lYZMlTvRHajXIwITyThmSSjTEzjS7QiSbKsTPbnoRyTawdOwqEZJxQWUJKQuRFnZFliqGCeserCRjd7CSMhAJKKtoEN+6em9RORBtpSjj9VPg6ywd2HnHztKBvtVfeF2KODfZyEUs5x22Gt5WUneKBH2Sp6NJD4T3eV+MvXCsdAwDlnhnstyap6HAkYrjQ1DJI0tyJ6sZIw1YFTrwwwdEmNSujeaG8KJSH1JIQp0oykgoIZiyfCkZS8ZPKSmJ3LP0QAC3uIV5a0nVikTd1P+MOPTbp2la9yQG+/UC0wcvvlirVB+EsnQuyW19uW7x64/8xcl8fGyZhs4fTpNcIKS3Cq5Xm6xAaTYoa0ZZEWoxkjwiSdOrhWsnFW+Ra19cPz0WuGmcrFj4FY6TxlDwlehkrW2OLCl2q14P+RaW1+dR1U7SoosMTFiGeSjIhLValIsMEtdf+xROExOZZFhEqKNIe3mEjwGxpNdcGfMgheJxHFmoj6xYM7JeXHn9gSJSvkGSsiIoRVbtv715kM2RCyy7Tu9787rlayY46JjeQ0W7a7Ywjk2PVX4SjsqC9Wm3kGg7LMrCeSbCpXur4zMd73YlzU4OWHmejj0oHolEKzxoyEuFi5VavXV2/3eEB0gAguKb0rVsQyWWamJx30NEVpI7tfNC61TZi8ZAQpSDWlLXQKmJNkCkjZGzdtv/9LO08mM2aY1WrDuYz9s7CDBZ9g7OgTmLu+x/Q9585Q9P1ZRv3CtioDIewgKUpBOm4nmsRxaesKkbCCVtSPkxL3GHEjsUwSly6LAUCxbqwoVVXrHnYm3/XEcszXfjKkWfrVkTOxu+LsTezdMpC1DtLNV2yLAkpypZlh5Z6rT4Im02jEQULVcGa2a4uOI7jyJrE2SYL8fnfC6jZBuiAGWd0lItM5BRuxmJQwknSw80VD+Ims1co7j1NzOwwK+ChQTLqP1b3JUs1Zh8spQeAXl473Waofa58Q7iPSB0LAweWbYTpSJfImFp/VJ8lnRbPety8yL4vuW5GWBlQFzFe8nqVL+Ve1/9Jneo//qm55GUSWOm+lTZwcV7qEHCFBFih3Xpv0djoMQpCCGQ9e+gVIfEE0CU9D8pQgGcQxiXjHLi72wuCcUhuNChztSUqYVE4Kj3px55zlFa2ZHrunmr8G59AAEmyz4wid29hPTSh0fNffO+WXXljaMNaxUkw7DgUdE4Fj6qlbRRd0fxsUiEsjlVXZrXJ1kuSGpRJquns4tSiaIXJFW0D4gWMbVI+bEutXiRG1ctwjI7NlBbV0vz0wfnuxVNlD34nTfoNVL5kzxASSSWJuJamXAzceFkB4nbb39MbGyg+GOFxIbc2KSYIx8tSC+WTulZqHnEOyOQpHMgX0cZtfR6zYCcuOLaQ7CSr5Gk3LEVZsb6xOnv4OU0F5CP/Fz7vHWNcXa15DrctPQxSWDeHMrDeBy/+Rgp7dHZTd+es+O79ds/T7gRGfukru479bfXvs37W47dk00U5E6lMhJp5QIHxIoL70lNKkV5mbpeGIFmmh5sXNKeJeuexBEAqD8XdF8bSNAidaW2NJUGVeBhZahobUaSVWv1ykn7nba/Nv6MTwJ1+/JgdhoCQVupdtqF9vcD13/wr5MWffDA4tJjvwAAIABJREFUHZWxNaMrY60ihvZZmWwSSTtYYKhWUIpVexvJtPmcIf+h4mnyX9KKUG5CtXV0EOlwA/oHKiTL9oN7bjK1mKsyhyLehp1irGpEHdvWE018K4gSSpQVpCwhm6TigJ2UZqPaRlLwMai2slb857kPxcuvrhDNTagCMcoklqqMo7N7kx5KyLrPWG3QUYXmqQECwHb4MePFYUfXQMQdsWYq8G+3GDdzl8vr80p+Oj3keBaY1yrN/2QH2RWQZfuDEs1wwetk+cn2a1u2zP2sWd/q7hwnpZKZrl4F/+8tuccLSZxcp3iAoFnzLEuVXEUPb152bHvcsiORSPVOVS5XqcuLH7LwyXtiSHeuegxAtSYk8WCB4lgmPUDiocfKROBOh+4vHnSWrTE+2fuYr18QGnkK0pt56+sIFHGV6uvQBuf6Whbcf1DDksdn685CiGm3YSFIQmYN4yOZs/aYUefxdixqikA6XH2d3XWdXahbWOAKY3+bxDSDfAsWxuD8uFrheNWDBG3yVXmdiG9Jmwv/lteKhRarM6nwEDFqTq3YgGjXXb99EQXxKLdshaZuBGo+yIqVLkCKUcK6MQ3E0lD351BdI5KuLKcRxJgStYOE+MblR6On5CcQB89LmbkOy2tz91wXfDvFYWng3XCBd/1M4Wm28vlOVSBkRXcZ4iaJX9v8tfHLkry4qWc5y3kpvInpYWSTY3dOjqKHQPURtacaW5d9ZGkQPdwgzikS0NatFrtNOWO6tst5r2/z0PkDJYVAkFeqkgIyqINd/dY/J1gNL822U2/VRvR1cCXheRmLQEYLY2GGHBgUXDZdRIJ6NUEcl/+A4Gde+v07FVlqyLq04UqVsnZIFNFQ8K5hgf34o3px713voL0U9s9HpRwdWfcmummQOhsJflONaywRhwcA7bmikJWL2+IL535GjBlfhsgyykYM9G+kHpHFtMyDOCW9NCayYg2tAtqyVRvH7HvF5MSIo1f30qn5NEVAgMmyCKD31imzK/8zed7bf3kkLFaMjhstsCqpAwUWb7gMLXI3UYd6WDPK6cTbjiHgkWZ7kkmHm5OqPhzqjgGPYTw6AO3L0PXCqBMP3z9bvPPqBliYEBuIkBg5XLdkVZJEHCyaCNprpdKNsgUauQv3nBoWnz9rBgxYeg19KKFHy0S5Y7O2I58msszD0rScgaKxYcDSsXufc1LtpJM/3JFj8meDiwCTZXDnZodG5rqrat94+Kez48aCCQnEtiKmSqcntRKl+YnaP+kypKxBJsvtBrtTzNNz2xZmDZMblkoqodNKlqKpl6M7C8V90fMRFuayBSnx+EMviIZGCN2FYyKLRsrU5stCFmwWflq8JMqrhPjs56eKCXsMQauvT0RFVRgC7o3QPyXNVl+BZ7uvgD+4nQiQqz2Hh85IpEZk2spEQ0v1h5858RuHaJUHbNLweztPwR8LEAJMlgGajJ4aCsgwMu/Zb78ccpZMM9x1WHzRIBe1ZQ5qAUmw2oCkmknZg9TtgQiU6s5423YEChNmuiTK+BYfJftSD0kqFSGB8UwaNXxmAmLkqLE0y6HgEwF5amLOG/OQ+LMc1iV6RYL/mtFAetAQIfadXif23GukqK4j+78VOrP4b1szWnZFJblmMqgnZDfsts9dD3yCHjHTeAiKogWbhnZftg1FJnPye6OOueIgTavDDPLWlxBgsuxLs4lrofZay16/+ZFc48snJ0L1SApUdZR5ECJJp5E1GdaiyBnxWxeRQgyT5XbdBpsly8KSDdX9w4Y1L3tiyuQd0noIyXrJtlZYjijVsXOo6zOgRWqBJanujywWlInEE0gicZuQCUtuWDR5zsGVDiZVra4MkUL/0Egkvl1D5w/tOAKU7exQw2m0Pouh2bkBPdmstYuwwuOe3PXIW06Bpm+HKPKOn46PUGQEmCyLPAE9ffpVb//sooa1L/6uTKxBey2kW8ouEUoWDJFKmVJPGbAGLBvZVgt6ZTuekdjTV1Eix+sGWZIIumxyjGxXakFFbbyo5RX1WSTOozpM2U5KQ7suSKu56K1ooJxHttVCCyxXz4my8ohobtmIPo1w06K1lm07yKCFbimSgmSrK3ajF+mGQWVnRBfJZKuMM+vIXk6n8TsyDonM0785asb37izSwPi0OwEBJsudAGqxDumufG7cogV/mmc6i42w2wjPK4lFU/cLSJKhd6GN5B4UMWBtpeIGqq2kRr1Up1esEZf4eQtik+2i8XRJRF7+e1RiADIMh5F9DOKk2lZqnp1B/0vS4HURm/T7gpJqj4WaHtKOCYfR+YL6SMJ929TUIKqqquRx6LV4nJobZ6Rb129HVeJIlujwIbiOBxpyiWfxMKThASiKGHJjE2ox4/vma4YdNrV80tmc8FOis9t12LxM9pGJhIURm/fsxR9FxXujyuOtItnQIsrjyLCE1JqUZZPF355Yt6/1Ka+9yKIApY4/kWJXmb8uZNnRGkra+EpZxtPW1WQ/xq5fQxL+9rfOakmd4VJzypZlcW4i2enEmygp6E6udppfNwYSHSKy7uglux307X20qsmNxRkhn7UnEWCy7Ek0i3is5S9f82sr9d43jdxCZFm2ivJYjWhuTSOmRc2EfUUTkvSivpRQLpFNcklzk+v0dmzaugoxFGYW0wqqZNaU7B/xIhElJeWocJZG77cTbod6TWdpQf+hputImSh3bO527NOSLL3m0xbptFOIQ84raeZCEs8ejk4+e9056cSbv7ljZ+JPBwEBJssgzMIOjmH93L8fv2rp356sjq4TZr5NxNBqyECXhKwFSS9P2kvT0rLHHy3esjUihKOV8ovf9WEHB9EvP96h4NNhoXeRfpPuWOqK4Qt5e1Zlu8i337GDACwUOPAA7RqP7KSmw16Bot52mAtNPmx6jayl9KMiTXoosiFAYTnjRMXAQ44ZtM+lzxV1rHzyHUaAyXKHISzuAVz3ldiHz/zz/YrYvDFOZpmsnjSh9dqWskQ0Rs1rqb6SsjH9DgxKj5W0S32ZNFbw2d45LCTLjhZQHW5ZaTsqHV1pYXqEKBfTgo4Ym5y+wDpt7/bRWatVfYTJcntnrkc+5z8I0SxLoXc/5EHzmwZ1RnArDIVi1viFux511xTErNM9cl4+SFEQYLIsCuw9d9LFs675qZP+4Achcz3qJ5sg1u2ibi+NejwIdEttHiU0LdtryUU6K0nSgZuIWhQRkbKCz/bOB/nhKEZV4G71W0QVPJyoRqEoCyl0t3Z6v+vjyiYKqop0/a2TIDq7Yrd39nric6TiQ2EOEmJXj0IkpE+5AeSOJUUmagI+CmrM+90w6djrf9QT5+RjFAcBJsvi4N4jZ3Xd1yrm/PvGJUMqmmuTqQaRKKfsVtRVwt0aNklvFHVg6PiueutSdxFFlupbjXo+csHKhBNW8Nm+CSkkS+qn6HVikV0vqPlwYT9FJcCtNnrfb2m2Obu+UKz+0+x+b954/rZv+nrgU3IGqLsMhTjk90oJ6ctZltrASOmCHF5bctc1k049d5ymHQOFEN5KEQEmy1KcNW/MM/921aO71b53clRbBVcPavTw5UxbTdAfRS1fphVfWQPyaqoFlI1sWGlR4rPSeYd1XrUqYqLc/lugK1l6yTyU5CH7KdKDiW9y0Hueq1Zi7tWr++7Z9oxafzTkvvXinXIR9rNuvWSt9ozmwpjn9l8Jf3J7EKCOJGo+ENiQB9Btrwk1vnPUHDsvW4Ghl6k7UKxcFXro0K8+9rntORN/pvgIMFkWfw62awTJ5bOmLXz7gTl18bnCSi8VodgAshERi0QhO1o5JSDCTW2hhAOFl05kqRrgKver34Jqu4bAH2onLM8N62cW+xmvha5WLxGkw53aVXjdd6f6ST4+WXqlI5uQpS8Ow3HL4t2IHWRJD0WyJyY6y1BCl4OHICJLGy/moYKv6Qh7uCPF8F3Omh6edDq38yrepG33mZkstxu64n5w6dOX/9nIzTvfDK3F42wbfVVl42FVxwdHkO8WKrBmlA2pXEQcp+yp+SsUT/fx7Up8Bdbi5k7bToSbeXNzvSQ7WaH8Fe6pmdzW48hul16hpUH9MukF729EMVXsEtrLpO6TyyJ+6Q4Temz6vaMOv/nL23ou3r/4CPA3rfhzsM0jWLn4gXHJOX/9sCa+OmQbKeEYVLfHGyPACPQmAtKZDjcNNY02kcgjeRIuWSJQlW2OFDrpXSB/QgQ6v3WiJT1STNz7lHHaLmcs6s2x8rl2HAEmyx3HsNeP8NID33xqsLHwuPLQerh5kN0K/VDeGAFGoHcRUJalMiYNWXOpykeIJJHaI3+7ebRogyyhnUfdpagSOX2kWN9a98jBZ/7h1N4dLZ9tRxFgstxRBHv58677VOT1++5aN2pgttLKrkYDZ+i9cteQXp4FPh0joBDw0+P80hF6TSbSEVFKlV9TCemjTZsw0MorOlQsXB7aeMgXrx2hafug0wFvpYIAk2WpzJQ3zvkzL7sxkvvwhxGzFaUhzRDh5jq7EptCHm4fRECj7i9yU2IfPlkaDuKV1M80hJgmhNYbU+g8E98dmQX7/XDC0Vf/tA9C0WcvicmyhKaW6io/fPim5rryDSJrU1IPWj1RRiaXf5TQLPJQ+xoCHUQpc2Kl5J1fpGVq6PqDlmqRCL6t6DDThmbd0bLdRGPDrmKPUy+o1LTpLX0Nj756PUyWJTSzy1/+/elay8P/DjtLhYP2TvSl1CBnxxsjwAgUB4FCopRWpVTw6SBL10Lyj47SEdTc5u2M0MMR0doWhaU5RSQqDz558MGXPl6ckfNZtxUBJsttRayI+899/DtP1ppvHm+6K0ReR5E7+lEyWRZxQvjU/RyBjhItsigVUVJpllekBadPyAiLbC4NciSRdWTKglA1rQZNoqtRVDLxwfEn/r/PQzO2a+uafo5rMC+fyTKY87LJqNzmV2qWvXTPxrCYCw3YDcKIoAUQMuzYBVsiE8jD7IMIEFmSFAjJe0CEgMQIPOF7qY6FjRZYatvlyrZs2CA76aKMRDgxkbbHiDEHfb9aq57a1AfB6XOXxGRZIlO6+KkbLjPzb/0yGlmNPnkboPnqijAI05FfVt4YAUag9xEgWzInLUrqXylF1WVTb7Rbp1ISWUBCYRKqvfSEJl2Sw1NlJhl3uMiHjrt4t6O/8/veHzufcVsRYLLcVsSKtP+aF66YbTXNOciMQYdZT8svouNQTRdruxZpSvi0/R4BnyxRR0ldfDwFLZKSVHWXSjBf1V5SL1lq1RaTrxvoBpR1B4lQ+XH/HXLwdYf1eyhLAAAmyxKYJBrixw9/fmNULK5xw9B0NWxIa6FPJXw9TJYlMoE8zD6IAEUglRu2nSzhbpVkKPWXlS+WvqOQh5X7CSciO/2YIg1FnxrRZk2u3+3EvwxB3JIz9QJ+hzBZBnyCaHjZ+Y9O3rDyT+9pNrJgqYYLbbfoC0cuWCp45o0RYASKgQDIUqr2kLMVLfDwrdTRyID+MmFIyrglWnbZOjVbV2IFtKn34Zp1KkQO4uojdz9zsjbmi+8X4wr4nN1HgMmy+1gVbc/HfnnKS1MmtRyYyy4WsQhUQBCvjERCwrJzECbgB9KiTQyfuN8jIMmSLEuNknvIdszCxQrLESES2XAdliS9l8czrQ2lLQ210dTEIERNoZHkY8O6XLK6YtYhFz5+RL8HM+AAMFkGfILcxheqVr35QGNLdraoqkQHA7QAyiYzIocC51DYhFAzW5YBn0IeXh9GQHOob6VAKZfq+EN9LQ0k/YQQJtEdCBS45XglJMnSgo6zhg5BlG8QzpcJw4qJjOUKy5wgdj3hvjhcsek+DFXJXxqTZcCnsHnOXfs1rHn2Na1sBdyvDcJEP2EDiQRamL6IiFnafl/2gF8ID48R6GsIyCQeZMJiFZUxScQmycVqUHgEYiEaXLCuk8B78AJBltKGjjO106N4pgmy1Bwox4YMkbR3EQN2vXCvsvEnvdfXIOpL18NkGfDZzM69+ZyN65//W2tmlYiEXRGVaepoAWQ4SBBAIgF8P6pDJW+MACPQ6wh4/UZ91R71XaTEH8p+pb98sQJ6nbJjVcsuHUQpNxBs0tpF7Lr7JaebY05/sNfHzyfsNgJMlt2Gqjg7Lnr2nD+Y1rwLXfSsNPF0auSpoSza/YRgVUJGS0fIksmyOHPDZ2UEdhQBnSzL9AAhyo+8c+wh139zR4/Hn995CDBZ7jxse+TIb9x37AcDy1ZPCsfwXGpnRQhak/SEmjfhy/GUtZgsewRqPggj0OsI2LaFpgiDxca2iXOnn3XPlF4fAJ+w2wgwWXYbqt7f0d3wyrD3X7xp1cDyNcikywsrnxZxdDGgXALIMss2QNSlnTdGgBEoTQRchFJcfYhobh3lTjrt5gGatktDaV5J3x81r7QBnuPFL//xBKP5iScSoZUi46SQzJMVMT0CIWYNUlmQ2cJvtioDPIE8NEZgKwhQsp7tVOFBeKyoGXfEEeW7f3kWgxZMBJgsgzkvclQfzbzt1nj+hSsj+grUY0EZBFXOIUpHRw1XHlalZqKDQXvT2QBfCA+NEWAENo8AaqatfBzdSUaLfHTS9SOP+OmPGapgIsBkGcx5oYzXyLIXbrnfSc08OayvpKQ6lIwgTJknWRA8jeIPqE7iNe7uE9Ap5GExAltFQKMvth0WpjtQ2Ikp/x5y2C/O2OqHeIeiIMBkWRTYt35SkGVs+ayrZ+v5V6fpYhVUs6iLAazJHHobmFD/MEyRymZEGL+5TdfW8eQ9GIFAIoDyElOPiXybEOHa/WfXHfq7QwI5Th6UbLfGWwARAFlq7z/01UUV8fm7Gvr6dl1JE24bqS4pOxx4+pPceSSAM8hDYgS2jgDpyZpI2hNpR7S4Y5fudsojeyAnIbX1T/IevY0Ak2VvI97N8xFZfvTvc1cnyhcP1o16ZL4imQc8acgYJZU8K+UQaBOwZdlNTHk3RiBICNBX13F0EdINoeds0WqPWj/2lGdGgCyh08Vb0BBgsgzajHjjAVnqSx45xw5FF4IRG0GOSgMWPQwkadLfTJYBnTweFiPQDQSILF1I4iFPTwqvt1qjxa4n/rVc0+rglOUtaAgwWQZtRnyyXPfUmE9e/dsiN7wQPWOJLEkeiyiygyxpV+pgwBsjwAiUJgLkIaJSsBC+x8ncCDFs7PenRHY/cm5pXk3fHjWTZUDnN/XGnWdsXPb8v/TEKuGYTUjtQVxDkiVpSxJBwtIk7UmOVwZ0BnlYjMDWEbDhHnIhuh4CYaZBlmb1OeePPPgr/7f1T/IevY0Ak2VvI97N8y2578o7y4zFl9rxlSDLFtCjyno1XJAlESR1NCBJAibLbiLKuzECAUSAupbAWwSuFNncSNHYeMjde5973UWwNtllFLDpYrIM2IT4w3n1F+e+OGFk+tBseLmwQm2KLMmyRMs7DRJZiHLI3gasdhfQCeRhMQLdQECHdiWJjJAr1s6PEvM/HPvfI6/8zTGc5NMN8Hp5FybLXga8u6d76rrDFu07JTzGjmxAc9i0zH71LUvZ/oeyYZksuwsn78cIBBYBarlHVdS2PUq8/lr8w8/d8Mg0JsvgTReTZfDmRI5oyaNn5MqMj0MWGsa6mgUhdXqV+lfS10rm0cn9SB+WN0aAEShNBIgoyapEJ3d8l4eIdH7P9NgTr6/jjNjgzSevtMGbE5K605c+e6IdFwtBiyRAgM4E3kwpsqQNjSzpda+kJICXwUNiBBiBrSAgU/VAlq5N3UcGijZ3jDX+mHOrNO2YJIMXLASYLIM1H8pahNTdoqeOS8Xcj4VuhpgsAzhHPCRGoCcQIM8QkaVj2RAeGSDa7NHu7gd8rUarntHUE8fnY/QcAkyWPYdljx3JddeXLX32glYiS5da+LBl2WPY8oEYgSAhYMMNayLJhyxLIsuW/Ggx8cRz4YY9vj5I4+SxkG4ab4FDwHU3Vix99rxmdsMGbmp4QIxAjyKQt21JltQ8iNywRJYTDrtwiFY2Y22PnogPtsMIMFnuMIQ9fwC3aW710td+0BCx5wsNXUXYsux5jPmIjEAQEPAtS0rwsUWtaM6NEpMOvHiEVnso+vLxFiQEmCyDNBveWFx3Zc3ymZdsjDoLOMEngPPDQ2IEegoBP2ZJbljLrZFkuceh547Rqk5c0lPn4OP0DAJMlj2DY48epWndnDH1c65ZlNAWoZwSarAcs+xRfPlgjEBQELAgSEBuWFk6Qtmw9hgx/rhLajXtgIagjJHHoRBgsgzgnZBe88KoVW//bGm5sYQtywDODw+JEegpBGSHPU+UIO9Ui6QzVkw44RtMlj0FcA8eh8myB8HsqUOlNv53l9Wv37KiTF/MZNlToPJxGIEAIrB5sry4RtMObgzgcPv1kJgsAzj9TJYBnBQeEiOwExBQwpX0o4mcXSVS7jix+/GXQ5Rgn+adcDo+5A4gwGS5A+DtrI+6yTlDlvzvutVUOsJ1ljsLZT4uI1B8BDZPlhdXaNpBrcUfHY+gEAEmywDeD27ry3VLXrppHYkScIJPACeIh8QI9BACXckyo41zdzv2qyDLGW09dAo+TA8hwGTZQ0D25GFc95Wapc/eJEtHmCx7Elk+FiMQLASozpLk7nw3bFbs7ow77lvlcMOmgjVSHg2TZQDvAbdpNkQJbmFRggDODQ+JEehJBHxRAlLwoZhlVuxmjzvuEpDlAemePA8fa8cRYLLccQx7/Ahuw5zKpW/8uIkUfKjns0PfJK+HpXBDQsefmsh7XUcoPYCnsccngQ/ICOx0BEi1B70sUWdpuKbIWJXCEmPtscf9pEzTRmd2+un5BNuEAK+y2wRX7+zsuvXl8x8/t6UmshxfnqxwdAt9LKmDJaTvREwOwhRp1GdRiy6Te1r2zrTwWRiBHkYAVGlQqz1D5PIhYZpDRSY92Bp34hVxuGHxNMxbkBBgsgzSbHhjUV1HLm6NuwvQ9BmhCzR/JmuSiDEnEtKiDLsgS1Cp64aZLAM4hzwkRmDrCNgi78KApM5CbjmcR3VCd0blR53w5wgaQqvu7rwFBgEmy8BMRcdAiCwXPX5pc5lYoLvhNGSw8vgSKbK0tJh0yLaTJVuWAZxBHhIj0B0E4II1LHyf4R3SEyKbqRFmflx65Cl/iHfn07xP7yLAZNm7eHfrbNT8+Y3/O/7jkdUbh7tmEl+kLKxIcrkasCVBlnjoDJEblixLCmpyzLJbuPJOjECwEFC5CBZ+mWaZSKVqROO6QSv2vfBfI4M1Th4NIcBkGcD7AGRpPHHzge9+ZoK+hxZuQcwyCzesA5esDnqMFJAlESgn+ARwCnlIjEC3EHAsGxrqKB0xoyKfHyTmfVj53gnff3ivbn2Yd+pVBJgsexXu7p0MZBl67OYZz0+fGDpYMxqRBJCUT6A2YhuWFiLlZdiYZFkyWXYPUd6LEQgmAoYGF6yDZVjXELccId55q+q/J11932HBHG3/HhWTZUDn/80/nf/XMXXNX7TcT/BFakMSjyJLG2TptpMlu2EDOn08LEZg6wi4OvxCBvbD99rJItN9tFi0aOzjh3/zN2ciwYfrLLeOYK/uwWTZq3B3/2QfP3jFz2LOgqsikXohjBa4YB24X3WZDEBWpo7vkrIsOWbZfVR5T0YgQAiALDXUVxr4XuctJPKJsWJD0wG/3eucay8DWXLpSICmiobCZBmwCfGHs/LpG79lZufeYegrQZZNwkKhpU2zhS8XlY5IspR1lmGexoDOIQ+LEfhUBCRZ0g9luudhXY4VSfuk740/+ZLbuHQkePcOk2Xw5kSOaMPs352aqf/vQ2FzOciyQeRNRZb0JErJPpqWlRYmk2VAJ5CHxQhsDQHPDYscBZSG5UUG7bmM6Dnn7nLkF/+2tY/y+72PAJNl72PerTO6Kx+dvOrtf79nGgtRi7VR5BDaILI0HAMRDpAlyd0xWXYLS96JEQgsAmRZYnAmMmJT9hhRvcul+1dOOf61wI63Hw+MyTKgk++6L5Uvf+KPLWFtHr5JRJawIhHbMG0DOpLkPyfLUgkVuOhawBsjwAiUKAIO+Ydios0eLUad8P1aiKg3lOiV9Olh8yob0OmFa0Zb8MiXnERkPizLemlZElmGrBDI0sEPNCW9chImy4BOIg+LEdgKAiQwghQEEbLjojk7Uow79THownImbBBvHCbLIM4KWYwgy/f+efaamqolgzSQZZ4yzOGAJbI0wZMkT0CZATasSnhweGMEGIESQ0ASJb7XTh4FJPmoaM6M3Djh9MeGgixzJXYp/WK4vMwGdJqJLN++/4vLaysW7aKbyrKEOoGI5MMCuT6wLIksIZUFAR8my4BOIg+LEfgUBIgsbcpsR9s9M1smWtKjPhn/+QfGgCxVjIW3QCHAZBmo6eg8mA8eu3BhIvTRWNNYJ0mRWNF0KG5JxczU55LimPQT4IvgoTECjMBmEaCGCDbCKaYeFSGnQjTlRi3b7aT7dmeyDOYNw8tsMOdFjmref78xN5r8YM+oqIeYeg6kaMu6LErvUWIEtOErR0EP3hgBRqDkECC5OwcPv5pRIVrdMQvGHf3XKUyWwZxGJstgzosc1YLXvjc73PDWQXF3HQgxA0F1NIvFjJF4uoO+I/Tbd8cG+DJ4aIwAI7AZBEiMgOTusohQ6uEq4SSmvjXioN8eyGQZzNuFyTKY8yJHteLtGx6z1/7vpLi7BkRJMUoiSyWejnxYjyzZsgzwFPLQGIEtIkBkSZZlBv2fRaRaRKv3e65u31+czGQZzJuGyTKY8yJHtfjNn96n1c/6QkysAVGCLEmEAN8wsi4lWZJIAcpIeGMEGIHSQ4DIMmSEhWWZIqtVCaNin0eG7//zs7l0JJhzyWQZzHmRo5r32k+/G2qcdVtcoPOIjEvSj0+WqmSEBAp4YwQYgdJDgMjSzkONS68QbfkKYVfsfcPEGb+4iUtHgjmXTJbBnBc5qnf/e/uZZcnn/hnXVqhReoRJ1iW1wKNN51Sy4cSeAAAgAElEQVTYAM8gD40R+HQETCTqaaEa0ZobKMrrDj2+bu/Ln2bMgokAk2Uw50WOqmnhg3vXL/rjW3FtmTdK0oSlChJq10UKPkSWKjuWN0aAEShBBCzUSmvV6DYyWkzY/8wJ2oDT55fgVfSLIfMqG+BpdhvmVH782g1NcX2pTOkhNyz1sFSxS1tal0yWAZ5AHhojsBUEQpDwSeUqRdqYJHY/9h6WugvwHcNkGeDJgYqP8fp9x9QPq62vpi4jBtyvuUxWxOIR0GVO5HI5YRghtiwDPIc8NEbg0xDQ0Z4r6w4Sq5pGNBx01n21jFZwEWCyDO7cyJG99Ndj3x1WvX6KGbaEiWyebCotwiFo36GUhPrgUaUWu2EDPok8PEZgCwiQimXaGSKWNuz61uHn/HkfBiq4CDBZBndu5MjmPnr+owl94cmhUJswTUtYWUsYxI8Caj46MmOZLAM+gzw8RmDLCCjLchexwd7/gX1O/OnnGavgIsBkGdy5kSNb9+r112eaX/mR7a4WYQNSH8jrMXREMNFZXW74N2+MACNQogg4jshrY0Rk0FlXDZl6wW0lehX9YthMlgGf5rYP7jx/w8pn/2y7y0TITAvDMYSOtlyOQyIFRJY8hQGfQh4eI7BlBECWWX2sGDbxitMiuxz9MEMVXAR4pQ3u3MiRZT66+6hVi558zoisQHeCVqFDdFn2fUb5iGFQbiyrEgR8Cnl4jMAWEEA/S3x90+5YMWTClQfGRx3xCkMVXASYLIM7N3Jk7sL7Jy768P4PQ3GUj2iNwrAhoE7Nn6UKM6n4sNxdwKeQh8cIbJEs0W9EtDm7iuF7XT86NmT/ZQxVcBFgsgzu3CiybHlhwJIX/1ZvRN7HX+tFWAvLTgUO3DfkitVUtg9vjAAjUEQE6NlVJtu1P7wWenyoVVDB99Tbhz4j3LAky3HHP8Y1lkWcv+6cmsmyOygVcR+Uh8SWPPrdpBZ9Q7PspaIqViGsHDJhqcs6RNShI1nE0fGpGYH+jYAmy7fAka7qAiQ9PVJhy0vAk++i96yLemjX9MRF8JBLmXp4zc6UCTsySYw87l6kIkj65C2gCPBKG9CJKRzWU7ed/d7ue6ydHI2vFVYyI+McuqkjEZayYvn7VQJTyEPskwiAHv2vn4PwiOaTpaXIkohTWpQgSyeC3/jO0v7oIKRpWbwWE05mgFiyrvyNQy56Yr8+CVEfuigmyxKYzPf/cd2NVYPf+qGVnSdb+oAnRTadFpFIBNYlk2UJTCEPsU8i0EGWLlmO7ZblpmSpE1n6rlgt55FlAi1qR4j1rcOvnHLW3T/vkxD1oYtisiyByXTrnx6//J3fzk+1vitqa2rwRJoT+WxWihIgaEmPqiVwFTxERqCvIaCyWeVWSJbIUXd0csNS8h2ebOGi1eGCVWpb9HUFWUK+0nXKsctYMXTqV0dpQ09Y3tfQ6WvXw6tsCcyo675e+/5D12yoqqjHlysvbCsjyuIhkQNhMlmWwATyEPsoAgVkSc3YfTKUZEn1XU5HowNJlvRYSwSK90CYtlMjGjYMSk7+4l8GadrgZB8Fqc9cFpNlCUyl675W8dFjNy+uLt8wIJ3aCG1YF6Lq0IZFRiyTZQlMIA+xjyJQEAKB9dhuORJN4vtJZqeKaXZkwyqyJI8QpCudASKT2XPJuM/+aQI3fA7+LcJkGfw5IsH0xPLnv/6mnf1wgmEmQZZ5kU+3QtHHZG3YEpg/HmJfRUCRpWzELpuwK+uRNh2Z6h1lJB3Xr9y2RJboG+QMEuHYjDlDDj3tAE3bpzB9tq8CVtLXxWRZAtMHsgyt+N/3nrXa3poRiyXxNFovIuhAQhqxttQk4GksgWnkIfZBBBw/aCnJkmKSKi6pLMquhFnotkWSnjNchCqOfXrYgd87CZal6ubOW2AR4FU2sFPTeWCv/+uSn9VVrrnKtpfDsmwFUWp4OLVhddIU8jSWyDTyMPsYAl3JUjVj79gsKydCYcQzvZpoqou2LNRJC+QcuCNFq3vQ9VNOuPbHfQyWPnk5vMqWyLQ2vXf34fWfvPh8yFgMomxAkg+aQeMrp+sUK+GNEWAEioFAZ7Iki9K3Lv9/e18CJldVpv3drbZes6ezJ4QQFsMuWwICIsvgoOOIqIjLL/KLzAzOqOjMP64zivqM4/wyyDgiizKjgAMqbuxLwKDsSJCsHQLZu9NbbXed9zvnVnenCSHprq7qqvouT6iku+rec95z6r73296PX0Ny0Hs2Ip88r6hUtwwDoRPDIcdIUTacT86096yYf9z7VlZj7HLNA0NAyPLA8Krau6OdK1ueeeDavkltnZSwu8hzfXwRWSdWvDdVWxS5cMMjUFJmhhzBkIdnkDARnYSQc4BSrwh+WRYRMQhylVaayE/S7kIHHX7BZ9sM48S+hgeyBgAQsqyBRSoN8ZGb3vvszMmdy9KpXeR7AZpBJ5BwJ2RZQ0soQ60zBPYkS55cfEuNS0XYumSytJM6GS/wue4yDVERk3rcWU8dd+HPToBrNu63V2fg1Nl0hCxraEFX3/W5G1ucVR90rC3k+pGKV9oqZCmdR2poGWWo9YTAoCqPrqs01L+5VCSuq0SUxA+KZCFu6QfQc/bxgGs2odSyBQp4S69deOa/XyGasLWxIYQsa2Od1Ch3Pnntx9zun/6HiUbQASXxpcMXE7FLIcsaWkQZav0gMOhu5azX4WTJU9S5BEGEekp4fxIJm1yPu89m0Ie2DQ+5k6ml45SPtR7x2f+sH0DqeyZCljW0vr0v3H7CzvXfWpUwNuPBNQOytMnCl1HIsoYWUYZaPwiALLUlycbksIdW9TNNlqxGGcSJPoUihESoGc+3GYr8Fpq96JyTM8s++bv6AaS+ZyJkWUPrG73y+JTNT395V8Z+mSB0B3VJH5mxkNRSqiByCAKCQEURKJElwiCGEiFAaGSw0whnwTJRorwL30/LghqsG1LKbqNi0A71njl00GkfmGG0nL2jomOWi40aASHLUUNXnQ/+4ZqzX14wozA3m+gmK8098QIhy+oshVxVEFCWJesSWPy8CqIMoAkbolWX6lWJu6vpmFR00SEIccwUSkaswKL+wjRas2PB2jMvu+EIkbmrnU0kZFk7a6VG+sx/fuQni6b3XzjgbKIw0Q+u9Aflm2tsKjJcQaAuEIBzh5wACT0sYWfBlmQvLMiSs189swiLskgtdooyRpKKvf1ktxxBz2055OYzPvKtD9YFAA0yCSHLGlto74n/OH3Xy/ffH2Y64YbdCUF1tP+psTnIcAWBekEgbsJFNpMll4nAsgyg0kNRAn+H+zWhE3+CfrhgzQQlkWeQ9edR68GXLW9desGj9YJDI8xDyLLGVjmKnnBe/PHX+5vaNibtRI/q9iNydzW2iDLcukBA9Q/BHZTdsHaoH1lDECRnEUQQVefOI27YRy1NTeQO4CdRElmwCdraOzl35Hvua4cLVsTTa2gnCFnW0GLxUCGqbm2+96oXw/Dhg61oC5n48glZ1tgiynDrAgHVmVIrpsMNy+KTqp9IHLMEYZou+caAsixNr4nSqclUyME523Lk6jmnXr9MxNNraxsIWdbWeqnRdq786v1B/69OTxgvC1nW4PrJkOsDAdaF9TlgicMGWZZ0YVXLLj5gODopj4qohQ7yFhogTIOaTzsl2o/7VceJ3/iz+kChcWYhZFmDa7121bWfCHfdds205p2UL3IRiRyCgCBQaQQ0WbJSnRmTJccttYA6N3dmsix4WUpnkirhJ19oRtnIPEo0n/Dhxad//sZKj1euNzYEhCzHhl9VPo24ZUfnPf+0xSysJjvBQROps6zKQshFGxoBJsuAyRLlI1aIshAVt8QfJfWK+kr8DuWV5KFNl4VG7cVwKsjycDrk3M/MNIw3bW9o8Gpw8kKWNbhoPORHbjjzhQXTdh9m2rAsDbdGZyHDFgRqF4ESWbL71QocJPrYKtmHyTJCyQhbmBZacRn4Ya6IxiLJBfSnTXOfO+ejtx9Zu7Nu3JELWdbo2m984MrrmqO1lxXczYhb5mt0FjJsQaB2EWCyjECMLExgwrI0QxtxSyZLlwKrqBJ+DD+l+limWhOU82eRnzr3uwtO+bvLa3fWjTtyIcsaXfv+1d+7aPu6u/474WyB5F1vjc5Chi0I1DICELJDCIQJ0kBM0oAbVheQ+Ios+UiELXDDopzEimggmk/TDrr84slLL7illmfdqGMXsqzRlY96Vx28+v5r1jSl1pNj7qrRWciwBYFaR0CXjhhccImD45ZMoCFbliyDF6DRM+orkRdLWVpES47/0hJj+mFra33WjTh+IcsaXXXUWzrP/vxvcm2JZ+yEubVGZyHDFgRqGwHddQStt9CiS7eWhYA6/hKYWm/ACRPku1CGTcyk7vwcOuIdP3Ck2XNtrrmQZW2umxr1ugeu/rZZuPtvkubmGp6FDF0QqFEEhnUdKSX0GCDHCHJ3Hnyz3A0ogf/7bgvE1OdQYtJx35z7li98pkZn2/DDFrKs4S0Q9T86ff3KL25Pm501PAsZuiBQowgosrRVkk9ocZIdCBKJPsiBRf0ll5CgI1BQIMfooGJ+CS0443K05DpFWnLV6HILWdbowvGw4Yo11/32nZ2ZaP1cXQSNL63KXUe1l37BoZe4VInJTiN+SxxiqeHZy9AFgSojoFywLESA756Zw3ePv2gpfLfiDrMgSwddSIqFyRQGJ2w+6Px/Xywtuaq8ZmO4vJDlGMCbCB995aErHrMKL5xkUh+5QR8FSZ9s9NAL8kUIN7NeJVoFKbeQHi03QdBkyWLPzJwiaDAR1lHGUHsIxEJ3iiwt1Y4dLldqUhOxI13/HEKMwA3mQmD91N8ddOaXTwFZDj7G1t6MG3vEQpY1vv4v3/8Pf5/revyfm9LdSL3rJd/hPHbUfnkBZZwkBWDJEGTpsldIkSWrjXACAicl1PjkZfiCQBUR0F1H2BUbghw5oWcYWSL3lf05RdBoLphPbdPfddXs4z/xjSoOVy49RgTkdjlGAKv98WjXrbPXrbrjlVankwyrB10ObOhRFmAw5imBp1oDhdJsWbqo8+L09oSPn8XZe5GyKq1qT0GuLwjULALcjoudrkak1AjgreEuQPg3ikX4excZTdTnzaGFh//VovSCszfW7ERl4HFAS4CoaQSe/9llf8iETx3nWF1kOc0qbskyeAaediOksnMsJVCPRXDKokmtcsOyHBeTJRIUpMVXTS+/DL6KCHDpiG7LpfMEVPmICnOgCTQl4YJthR7solWHvv2fTjeMhYUqDlUuPUYExLIcI4AT4eNbHvvXz4X9v/5qInwF39omECNcrIk8ueh44JjIzsMqx6XTcMHqJ18yOXsPAUwUTAtZToRVlDHUGgJMiqX4P3t0+HuVDDjRjruRwLaMWvDQOp+izGGfm3/yP19da/OT8e6JgJBlHeyIHc/cujy39YePpPyXEa5EUbQNl2vaR5eD/J6uAw5SRlz5xWTJMRV+BHbwKq7YOtgGMoUKIzCcLF00YefvVTLUAuquaYEsp1LenU8ds05fMfm4y1ZWeHhyuTIjIGRZZkCrcboo2tbUec9VA83BBrK8IvlRjrxkQC4y8mx8aXUrBOZGTZbsftXi6+yGZUtTtkE11k2uWdsIKDk7xCpVhNLUHhtNlgSydKgQdSCH4Gha+uZLJhmTju6p7dnK6OUuWSd74Pe3XfK9acbmS1sS/cpqdJEV6yNuwgd/qePKEXydOeFHJyAoC1NilnWyA2QalUZgOFn6pnbDlrJiPSNJ+XAeDbhH/9uxF3z1ykqPTa5XfgSELMuPaVXOGHX9du76B7/3cntqMxlmF+WRiYeCS7QH4hZC/ATMw0L9JRuXiixL4gWyBaqyYHLRmkdAxSsDSNol0H7LLZBloYwEhGla+HfBpsA5lA4+5Wqo9iwW1Z6aX23xv9XBEuopQM3H2vDry9eloycWWMYO8i0HxMixSE5rR21lnIwQor5SqfxAsEDTp4gS1M0mkIlUHAF8s1RzZ89nssSDJ75zYZQmP2yDZXnQxqXn3cSqPfIlq/jKlP+CYlaUH9OqnXHTI9+4N+y588yk/SpKQxwkGLD/FQ1pMSLH1/VggYVyEkWhnAXL6e74Hst3uWprJheuYQS4bAQ5AVyixYo9gapfTqFUpJlsC6o9TUf/esHyL59XwzOUoQ9DQMiyjrZD14u3nbxz7fcebU1uBiGizouTD/BlNvGldli5J9JNaVl1hGvAuC+CAYEusS7raBPIVCqGAAsShEpS0qeM5VLgu1TgllzGNNDmElp87EVHGTPe/mzFBiQXGlcEhCzHFd7Kn3ztb96/OW2snWNE/YhdonxEyXGZlIRlyWTJYgTgzWFkqb7ylR+oXFEQqHEE+JsTsGJP6FKzCb0B5AfkuUWXs4By4ZGdS8/59sIan6IMXyzL+t0DW1Zd9bVC16rPJq1dSDTwCMJ3MVna5EQQdlZkGRJn63EmrEpIELKs3w0hMxs3BDizPLTgoUG5VjoaQIcRk1yQp2cuprD5bV+cf9InvzRuF5cTVxwBsSwrDvn4XtDbcN2pLz1560OTW7oQi+ynImKXbFmmPRupCC5+ViQPSupMlkyTFmKWpbKS8R2ZnF0QqC8EAkWWaQpBlpmwn1K2CSEQm3rdhbTg6KvenJj31j/U14wbezZClnW2/lH0hPP7W/5505yp2zqicAd5DmvBDrlhKbYsfSiOQOdnjxrMOoNCpiMIjCsCTJZI7VFlWE1hgZJ4MO3PWrQ1O2vj8Rf/9hBkwXIrEjnqBAEhyzpZyOHTWH33V/4xk1/55eb0LhqAI5brKrmPpalilixUMCRGIG266nADyJRGj4Bq6LyPY1jmONcsBxZKsCC+3IK+sV4Of4LpZE876bJZKz7/vdEPQj45EREQspyIqzLGMUVRV+vaOy99xQ7Wt5gtSGc3EUnhps84L3dDYLLkDFk+2LoUwhwj4PLx+kHgAMhS9bNMmJTty1OzkaZ0ci7tHugoLj720oXGglO31g8oMhNGQMiyDvcBBArMnQ9/+snQfe6oQrhV6cBaaNWl2gmpHkIoF1H990CkiFhy3z05BAFB4EAQQFkWaxA4EP9wA2qxm6m3J0NO+/KXZp/xtaPhgmXxZTnqCAG5S9bRYg6fSudDX3t/fveDP2pKbSXLGABRorsIsl+1Fam1YVmMgMlSnpnqdBPItMYRgZgs8f3xfUh8RBmkz82jvH3CR5ee/Y/Xj+OF5dRVQkDIskrAV+Kyj/zw/A3zp21Z6Bi7IIeXHkGW6LsHqhSrshIrIdeYsAiU3K6vq2IVd+x5nQkEQUCOnaHAS9H2nkmbjnnfPYeKVTlhV3tMAxOyHBN8E/vDW5+4+trizl98PGkgfALLMoo7jqgEH5G4m9iLJ6OrDAJjJEtugccPov0DSWqZvuKaGad8869Blvtm2MrMTK5SZgSELMsM6EQ63e61t562e+31D6aNTpAl61iydmWs1jM8kUGIcyItm4ylkgi8Llm+Md8xJYawLG17Kg34s6l9wdlnTj384/dXcvhyrcohIGRZOawrfiUk+tjr7rrYazLXoG4kp6TulFWpNHs4hsni6nDHCllWfG3kghMEgTGRJW6fyPLxaQbl6bBgyblfajOMmdkJMjMZRpkRELIsM6AT7XS7nvzGh/pevu+GRGYb+u4NkOv6eBomSiQnUbFYJBvWppDlRFs1GU/FEHgNWb7WosRDpxoO3Ktkwu1aOkKILPtuRE7ToeSlT7tw/slX3laxccuFKo6AkGXFIa/sBaNdj83esOqG9Ynk88lcbh01pZooleQ09wK1tLWRV8SDsFiWlV0UudrEQeANyJIJkv8wYQZo9ByGCGXAmrQgRmCittJ2JtGW7sm9R531+QXGpKN7Js7EZCTlRkDIstyITsDzPfT9S++ePWftWabxMjXZSXKLPm4AqA/DDUAsywm4YDKkyiHwBmRZsiq5vMo00BvWRBcfNHjmn/thhnKFNurKzb31xIuuv0gSeyq3bNW4kpBlNVCv8DX7V//2iB2v/uD5oPhHak8lyXNzZCccKvpF1GC+cSJDhYcrlxMEKofAfpElrEu0IeBYPx8RipXZwvTCyVSMFtCso969uH3eO9dXbtBypWogIGRZDdSrcM2n7vzww5OSr6ywvC607spT0ctRpgmdR0Ihyyosh1xywiKw5/eBvx/scmWyBD+S5yHgz83UnQSF9hzqD990z2Fnf/1tE3Y6MrCyISBkWTYoJ/aJtj72/y8p9Pz+prS1FW6kLtRcQo0LyT1BwDcH2QYTe/VkdJVDYE+yNNA8nRPi2Jq0LIcsdBbh7wur9vS7M8meesF7F5/y8R9XbnxypWohIHfJaiFf4esixpJ45Lt/+eKcmV2LUukuMtDZPe8OUDLRJGRZ4bWQy01EBPbuYbFth3xPP1SaJnrCmrAoYWHmc0Xqyc9Zd+z7f3iUlItMxPUs/5iELMuP6YQ9445V3//IwM47rnfMTZRK4QYQuvqpWQmpxzeLKE6NVxmyWmydD9aWHX47CeMMWmkcPWGXWwa2HwhwyF7rJWutV1NtctZO5p+YFHAZMgjTQbN0lrbzQg8Pmmk8ZHaQkVx28YzlV9+yH5eRt9QBAkKWdbCI+zsFWJfpP9194daMuaktGNhJrRkk+4AtI75joBMJJzAoDVlla7r4H0QMVEsvZAD6zXgfhNj5VmKiL6Z6Pxp84U4jhLm/KyDvm0gIqG3P+sgYVMDlIfgBUneUZIcZcZMBm6D8CnJMIWLpkOsV8O8BshIzKece0b303H+aJ1blRFrR8R2LkOX44jvhzr7uoStvCnPPXtJm95MZZMnnmwITouHiFbQXwi3LGYL4t2r0DsLk1l4UpnDzSKinbbYqA8tVbb6ELCfcEsuA9hOBElny231FlkyegSJLnSRukhs6sCKbKZfNUlNThkLLo2xhCt614vtLz/nKpft5KXlbHSAgZFkHi3ggU4iiHc3P3XH5jqlN29JufgslUmmQH6xEM26/Fya5oy1OiaJr3BJ0Wz5tdaoWX3jC5mdvJlO+o5jSOfpA4Jf3TjAEjFidp9R9Z+jf2hlrOy2Uz+aorTlBvX0DaGyHh8nEkv4l51w32zCm9U+w6chwxhEBIctxBHeinrrv6X+9ccumOz84ZVKBCvmctioHdWNt3CWSEPXR7ljTyIIw2R0LK5PdtCjEVsQZu2Elk3airrKMa38QCOMHPvaeaGuSPS3sluUgg02hz2GGkBLcQD3RRv2F6dQ+a8V/TD7mC/93f84v76kfBIQs62ct93sm7urfHLN23fefTCY343aQAyEW8FkO4EDOixN3kMxjBi3a/QqiNNm6NLU+tBGwmxbp8yBLMSr3G3J54wREQKWwsesVWz8BnddSsg/+CrcsR+JNskP+R56SSZ9yxSZyjSNp0RHvOcZYcMHTE3BKMqRxREDIchzBncinfuQnl/xmSuurZ6etnXC4wrpUCiXMhrAgOSMWlqUmS45nFpA2z++BY4rJUr1XZ8kKYU7kVZax7QsB3sFMjJwBm/IgZYfXgGuPh5FlGkltDh4gswPdEEw/iDbuWPTLEy6+8XxBtvEQELJsvDXXJJe/b/6zd1+3oTW9HmXW0H9Wbtc4Fhm38SrJe6mYpXLTso4B3LQgy5JKnpBlg26gOpj2a8gS+94DWbIxiS6VqnwkAcUeG4SZ9yIq0gJa9OZPLTBmnbmpDqYvUzhABIQsDxCwenr7Azd/4JG50zuXp2kHpoWbQ5wFq61GpNSr3YFkesWM2pI0Yy1NzoJVpCs7qJ62REPNZaQblifvW4Gqt+QiEgusmcFrMQ8XbWoWvdIz7f5jLvqvsyCYHndQbyi4Gn6ycqtr4C0Q9d972B9/+/UXprZ0UbHQixR5xGjwFF0s5indkqF8Hsk9Dlee8cGZsBCUjpUJSqQp7b0aeAPVwdQNG0lrkK6LEG3gjiI+SkPCEF158FCYwJ5PwidbKLZQ0VgSLFh+yeHGtHNfqoNpyxRGgYCQ5ShAq6eP7Fz5qV8Ve58813J2wXjM4vbgoCsJaiy5dAR5PIHJ9ZdsV3KN5ZD7VSudsOEpD9n1tB8abS4RVHlY/5XQdgtadtjvHva5R06AbwJCDn4+okzrobQjf+htB59/9YWNho/MdwgBIcsG3w19z96wIrv9wYfz7h9wr+ihNKS80okWJDR4lEojVhP0IoYD1xRIlMmSay1507DCiZBlg2+eGp++yn6FgpUBizKE5mvA2eARsr8Ro7dBlEaQRL/XybSzdwodduzlJxsHn/u7Gp+yDH8MCAhZjgG8evnoqhs/cPfUmZ1npVOwLvOwJF3EK30olyRxA7GzSt4uVG7YEWQpVmW9bIGGnAcLEHCQwYBAuof9zdKPXCoFzyzZsCwjZH771EHbeqf/9oT33XxOQ4Ikkx5EQMhSNgNF3U/Me/bRL3W2ZLYbjt9PaRuF2D50Y4sgTocFC6Afq0XAgJZOsec6yyERagFREKhFBLCrURoVIs7gRymV2GPjwdDhxgJI7nH9ydQ9MDs89KT3H52ce8FztThDGXP5EBCyLB+WNX2mlT/96M+nT97x9jC7Di6oAWpNtpJfBCGCODlmGSnBAp0Nq1N+WGC91LGkpqcug29YBGBZ4kEQ+T3YzWkQp43IPGKW6MEVwrLMhzOoNzzyl8f++bfejQzYWA+yYcFq+IkLWTb8FtAARNG2pt/99Motc2buaE1EOyi/u4ua0q0UeDqxJ0Lig1bLZKLk15gsWQJPtfiSQxCoNQQQbkD2awArMkS3HU5uswNXNXYmxO7D5MED85Z88Ehj/vkbam1mMt7yIyB3ufJjWrNnfPWZa67p3XrHJ5xwEzWjjAR3ES1WANNSkWUcozQ4uUe17tI9/4Qsa3bJa37gStQfB4v+61pg/je7QvTP+QbHXpHXHty/kkkxQs9Kfn8S+q8Oais98gO05crMJrv1qPY+fqAAAB0aSURBVG9PP/5rn6x5kGQCZUFAyLIsMNbHSaKB52c8f8/nt81o2UV+AX37UKDNuiVMjKUbjhGy1J2+EfHPRJSgPta+FmfBRMli58rTobSL0V6LpRrRNcfg7jnchzWChjHikHq/8v90i7nSng6Q3e1wjZSHX/o+pZMOdWeT5KeODJeuuGS20Xz6tlrERsZcfgSELMuPaU2fsfeZr39gy5p7b57UjEa3YTeZ6FupXbB8cJsurrXkV7Yo46d2yYqt6TWv1cFrsuR2coitmwMq6cxE/8kSWQ4qUvHDnpokt3pGJxFFlohNKqUeSA+gdITcIiXsBBVdE4+Hs6l17jsvnrbs47fUKjYy7vIjIGRZfkxr+oxRFFmr77pifZv1/PyEsQ3dF0qyd7HgHW48nORjsoXJhAktzb27uWoaBhl8LSDAViJbloP9WBEUYLJk8YyQSZT5kT0jpX6siL0rS5QP3WEnsrhExKWkVUBiT4pcrwOCsIdvnffWSxcbxnHcPUAOQSB+1BIgBIERCHS/dOvynjU3PdKceBWZgsXBTFjtckURN/5vc8M/Fa8UV6xsoCohoFyqHBLQliK/mtw+TsUrWTwDJMlkWYplwuXKsUmOs/PveO9ylxEUFpNjFcnzkQFOR9OceeeclDjsw6uqNCu57ARFQCzLCbow1R7Wpvs/eV/Y+/QZyWQ3nr7z6Magk3n4sJDg44T4F14D3Kwkwafaq9XA148TeXTCWSmxR+9TZVEqskSJiPK5wtoEWepYJh7yEMsM0E0HxiW5hRzKpA4iI/nWn8877SsXNDCiMvXXQUDIUrbGXhHoWX/7cduevf0PLcmNkM3sJpdbXIIYOQ6kydKLyRJuLCkdkV1ULQRKZDl4fU2UpSQeSAvEZBmrTyk3rbZGVSwepSMuHvwMo50K4UJacuRlhxsd562u1nTkuhMXASHLibs2VR/ZrqeuvSq35X+utu3NhLwH1eePvVZMlja3aVC3IbEsq75QDTwA3QUntiTjpDNNlmxV8i91JqwS0yglp6lPcCsu/M4Kqb+IspHM4WQ1nfDZuSd87usNDKdMfR8ICFnK9nhdBJDsk1z3y4tfTZlrpgQ2ch0MV0ndWfhjQldTk6VW+JFDEKgGAvzwpmPnvBl1DF2TJccxS61xeL/qTco/YkENFktnRaoAMc7Amk25aFnX0rMuXmQYJ/ZVYx5yzYmPgNzmJv4aVXWE7vofH79t7e2/D8M1SM/vIdtOqf5/SSeltGOZPYUsq7pEDX1xk90dzJPxnWyQLGNUAiSiOQ465vgsku5TwoFj1s1Bzs5FV512ldTT782nucd85PimWX/2REODKZPfJwJClrJB3hCBzQ/+/R1hfuU7Mold1JfLohtJmhMIIZEXkIWbj/S0fEMI5Q3jhICqpRw8ODN7sNGqKisJ0bwZuq6ooYRDNiigNCRLzc0Z8l3EK9F+q69/MnUsOu/WtqM+9Z5xGqKctk4QELKsk4Ucz2lE+UfnP3f7F34/dVLXdCON+jR0kreQKMEl3kFUELIcT/Dl3PtGQAn788HuV/axgjCVqcmJPDZ6tELbGCGDvMeiBejRmtL1l75nkedNo1x+wfYjln/oBGPWmZsEakFgXwgIWcr+2C8Eos03/8Wrz93203y4Ge7YIiSn8Z/FdAkTUxV9yyEIVAEBtixBkNybcg8PB8iSBQg8N6RMJo0SpzzacLkgT4d297g0dfIi6oVVOf/gCy5MLn3/bVUYuVyyxhAQsqyxBavmcB+74QOPzujYfrJjdyErlm9FsCxDtiyFLKu5Lo187ZJEOgvf6Y44cV5PTJaW5VDRQ3KaXUQJFOfApkGsk8nPz6RNW+xHT7/sv1fATTuUCdTIYMrc94mAkKVskP1GIIq6Wtfc9VfrrWjj1JaWkHp7t6KNFxd5yyEIVAeB4WTJI2ChDFVKEtdTcrySHJ+8qJ+K6KJTdJuoJXMohflFXfPP/zyyX6dI9mt1lq7mripkWXNLVt0Br/vF33+6xdn4ja7872nGTIdy/VxOwp1I5BAEKo9AGBuFujSEVaX4xcArknvwV07qcVIGFaM+Mhxu8NxB2f5ZVMy/6XPLLvzK1ZUfsVyxVhEQsqzVlavSuKPoCWfNnd/9daJ5w5lBsJnS2EF8v1IqPkqrkwfG/SC0aIE+dI/Bwd6DfEOL+2HqjoNyCALlQYBjl0raLhYqMFAUXPQHyEygf6XZQvl8Byh16S+XnnfdhbA6RSi9PLA3xFnkTtUQy1zeSeY33rFgzR9/9lKTsy2RDjspYeapgIa5Jp7cvQCZsjbUUbx+SqKBdMh1cLA8AyQE6Y4PWuDaorwiVd1iSbZheVeoMc7GD2mWYVMQYL9xzBIODiZLzn7lhzdVVWJyL1Z0G2FBH2MWucEhhVnL/nJJZvbZmxsDJZlluRCQu1S5kGyw8+xY/f1Tt6174KHJiTVkBTsRF2qhggtlFDsEWSI7MczHCRcjyVJ3fDDJU7/XBCrbsMG2T1mmq9R4WLVHkSO64SCBh/9DaFJ5ONiq9IMcaoGbKPAmUf/AVJo649wzOpZ/4oGyDEBO0lAIyF2qoZa7vJN9+pdX3pSJnr2kLd1H2YEiNTUnqVjoAlnCXnQyVCwW0TyaWyDxI76l3bCx+7UkP1beEcnZGg2BSLEiHtJMxM5hQYZhBrW//AAGS5M7ihgFyhUsSmaOpVd2tt144kXXf7jRMJL5lgcBIcvy4NiQZ0H8MrP+gesepmLnsZHXTa3NBnmF3brujd2tpiouUdhopRXW69Rd69G3hH1kOnsx1vNsSBBl0qNGQGfC6gcwy0QJE4gzDGBFgizR/hn7Dxo+KGsq+JPgxzj6yYPO++AZov06argb/oNClg2/BcYGQGHDDw9Zs/qeP7WmN1GQf5VaE00gxoB6sruptb0NReFMjSDFkEmRA0ccQ+IW0hzDZJcs25ulAoCxjUU+3VgIDJIlUmBZHJ39rwgCqExYNJLDPkyBQJvQgqsjmHf8hxYbHed2NhZCMttyIiBkWU40G/RcfWtv/PMNq//7Z+2p3ZSCSop+ms/CHYv0fdVwly1IJkqdJQtta/zhbiW6Ce9wdc8GhVCmPRoEOF5p6rKlKPJAlNhLCGTaBqQYwxSFfjvlC7No0eFnX2As/dDPR3MJ+YwgUEJAyFL2QlkQePG+z33H9l66IhGtx82qR3UlyRfQINoa6kyv3LPIjo3gHoug08ltlNgKkASfsixB450Ee8eA+IDyVKCRc4AWcg72lG0kkNCTRpnIHJrW8e7vtJ30wb9uPHBkxuVGQMiy3Ig28PkeuPkDDy7o2HKaEbxMSS67VD0vkba/ByY6dmkYRfUqpSMNvGHGOHUjRGwSZMnuWM9y1QOYqRLImiE6MJV6c4tWHnPR9aeKnN0YgZaPKwSELGUjlA2BaOD5Gc898NX1GWdTU2syS8Vcl8qKdV0IWCeTSLxgwWtUWpoGucUs2ibp2kslaCCHIHCACHDSWNJIUaFQIDOFVDLUVIZw83vBdAr8N+cP/rO/XWgYi7Yf4Gnl7YLAXhGQu5RsjLIi0L/2xsNfXXf3g1Hxxaltzai1DD3Vvd7lQCXXwSk5sogc+M6U5Ym4pTSPLusSNMzJ+MHLxL5iHXRWXIwgUFCI0tTnzt617MSrlhvTlr/UMGDIRMcdASHLcYe48S6w4YFrL87n7r3BidbbqQQsyERIAwVYl3ZK5b9GEC9ogtoPW5ysuiJk2Xh7pDwzZp3FAPFxG14MdBWxZ9CufEc085C3XTT98CtuLc815CyCgEZAyFJ2wrgg4G76wWUbX/zFdRath+wdegn6UO1B3SWLruP+Rkn83Q9AlmwVyC4clzWo/5NC75Vj40gas6mJcsUZNGvRX16ZedNH/63+5y4zrDQCcpuqNOINdL1tj3/rO7u7777CipDwAw0Crr/kpAwmzdAvkKWaRw8XXG8gcGSqY0ZAVeiimbPrZpArNpumzTzpB+3Hf+b/jPnEcgJBYC8ICFnKthg3BBCTTHQ++unbvb5n3p5COQmFA5AfQ7k43GZ5SOE5SST3hKwTK6IE47YIdXzigCA6YLZRd18TTZm+/Ddzll/8TsNYCCkfOQSB8iMgZFl+TOWMwxCIol8ltz/yyP8Ue/9wnhluoWSS6+GI8qyygi72Vgj9WCFL2TOjQCCIWqAQNZN85+D7lpzzD+8wjOkDoziNfEQQ2C8EhCz3CyZ501gQiHaubFmz8qY7k9aGM1KpHnK9XjTihcIKDEquixvShx1ekclCeKWuhPgLa8uyhixeh37D4gZjGVl8Xj7FAevTqqacsUj8yM/vOY99jVBr5upDfWp/x1HCY+iTg+eJ+yHr8akDGccjBsGCEPo3YzziHqZDDzwjr6QmFfc8LfU+HXbN0vyHzVuPn7vV6NFxNnVpvPrnHPt2yAun0u5cx2NHnfWx8432FRAllkMQGD8ExnqrGb+RyZnrCgG4ZK3nf/43D6Ts9StM/xVqzxhUKPbhfohgJkpKggDZjFD2SSSgvoL+hL6HCsxEEslAJRetFl1nclF6suomzWTJf/Z+g94DwGGktCewJboYLui+r/OVfqepnBVk1KFu9qWxDLmVQ7id4zv+npfFmLnzihmwgpEWalDEH5MGzyv+YPwaf1UH56E/E6K2UDXbjofF2KiSCt3MUfUS5dgen7v0YKGSYuLzj0luUK2BJmL1AFN68FH/HnaoNdMPA6XXGLS4RRtroGuN4FLzZiuAi5UFLfBzrp8MuEeqOgfwCtKUjKZSd3bK44e964enQXSAFS7kEATGFQEhy3GFV06+xz0TXUoevuXbv1k0M7/C611DLS1QXkHSj4dazCQygJDbSNlsPzmOQ6lUhnLZPNnQly3ZP0wIik8GuUyT096tyxFbe69kGROKGqTWro3tuxELN/JrovumlMhIvXnws2wFlT7OZDVk3fFPFakNEhX/lUW/9dn45yUSe90HgBHzGCLLWBkpvvSQdaavr8gytiOHxsczGFu8GOJyasxMurwwykvAU1EXLT2I8L+GPZToEWkxCiV3qIlWKTsxsYLgzRAyifi7j4eoiPujJiPKFiC/78yA67WdundmHj/h7VeehVrK/hGLJf8UBMYFASHLcYFVTvp6CLBL9rmVt9yZtjedkbJ3Iku2QNlcD5R+0ookC0U064WlmUiaSpnFsrgQc1/OwpG/e4Mt/ZpzDVLVXshypDVXYqLhVt+Qi1DzYsmSZIFv7UrUrlZuS6ytPk0KmhxZWF79RH32tW7l0nPBnuQzSEdDXBxfY4gImfz500MPAaqHKOupxv1FFWXtr9t3H1taPzaMcD2XLNtBPGJcYgtcWcXxnFWLLTTR0kDAosQYlQXJ+FjcJNyHgAU3Fp+Ket051Jeb/dhRx7/3fGO+uF7lTlM5BIQsK4e1XClGAH0wnZfuueUuv7D6bRlnKyXtIoWeJpaEA7dhVEC3pbi0ROnLahJiy2jIhahvvnzjL7kg9fsOkCxfQxYlZyEzSYmIRxJyTJYqlrZn6YsiTPU5bU2VYpLaLcrjHfqsIk2Q5XDCKll/pc1SIr/S50duIoOVkAYtRo2hOl88Nm058nVKrlp2HTNhcteXsQtCaPLXmA0a0SXiHrQmh+NXcnfrcZUsSkvhgrFHSe3aVeuCUiOIo3sQ5E8qopyMAt2jH11y7r+eBddrXr5QgkAlERCyrCTacq1BBLisZM39//CT0H3sHe1pJDEiRdbLFwgNvRDCRHwqQhiKX7lDibod23iLbsekCYRdfjEl6cyYA0N3MEFmZHxyuDU5kixLFuVw1+WeRKCTj14b8xweLyzRi+rCUiJP/hTHN2NSDWO93CGSjN2bipeGzs/W4uBohsduFRnGZB2fs0ScTFClT2miPUDsYqT5ckOXjOOi8e/0Q83IJYmxUfNWK0kWXpUViYQdHVtlAvV1f0oIo6ta3LCdCu58hF8Pu/OgYz51iTFtmrheD2y3y7vLgMDoviVluLCcQhBgwtz17Be/sv2VVZ8xvX5qSxtkcx9MuOQsJHQUPBgPbGlil7K1wT0wNXmwpaQJY8iqPMCtvAdZxvFHdUa+yw+PZe5tnYYl8OBGPxiZ4wQkZcHp+F0ciYwTkTR5KHtpmB5uyaLiazJBqsSlERaZnqO2yErkOuj2ZFFUNewhklYPE4qpmHx1zHcQJ0VEugk3H2MnSz53KdlKPyaUMlc57jpoGceUXiJJhVnsFYBSMKgRyVz8WbTaMrH+jGOEnRAEzYhpd9CUmW/5t8nHfPrvYFGKioXcOqqCwAHeYaoyRrlonSOw9r6rP1voXf2F1qZdqWS4C8kd/ehMQuRCIi/CX3yVJ8MuT21NsjWiE0k0ZYy+a8kQoQ0loOyNLIe7TocWQ9FT/A2yILnGf7WY02KXJxO6Grd6H2d1KgNavcZUj/ez9aeJjYmL3bbawhz6auoHgzhbVNNtTJx4H7JxNVlpQtW9QodiqkNuXMWocQKNJqpSQtFoy29UMg7GP0iWsRdAkSU4bWgcOnGHj1KWrrZKdQyV5+6b2jIN4XZVsUq8P0D3kFxuoZuZfPwXFp7+V1fX+ddApjfBERCynOAL1CjD2/bsj87s2vzQvY6/ESLrvai/LIAi2BULh5xy6WkCsBDDVG2+YhbQRDpalEaSZYko1W1dkY869siS3dMFW7Li+ObOw1Dkwa/KutTv1RaWTt7RlhcTYxzT5GzYYTHOQau2NKnYQtXWIM+dFY9KyTt8iTiRSF1Hj7hEmPxwoX+ibVVNbsg0ZYKKySuw8EAyyiSfElnqOWqctEdcP9iUrl1CUyc7WXGcWbucSzHo0sOEyq4NM2jn1o5WW3Np6RF/cYqx4PzHRrvC8jlBoFwIjPo2U64ByHkEgRIC0cv3HbTqsZ/c3JrZdnJzZjtu6t24ocJCAUGyALsBt5yKU+IOawZcgwcidXQLsNEdr0eWQ0RpwowNAo9sx6R8Po+SlpQaD/8x4D6E31C9cm0ot1AxkdEbBD5u9C5qRhFn5Z9zJicsJ5stRpCV7yNWx/9ZSGYBy1hmAueG/J+TREIL5satppAJnOQeoL4Wm086mCuSnkIWn+faSsgE2jazL+K6UHcwbZAmNHc9jCtQ5IxX/DxAWQ7XrqoHDGDouz6SZdJcs8OpRTBMh1uiB47iHmHSQfdxfB4mT147zF09SoTADPOPeP1UyQmGgf+SqLnN5box/yZyw8mIT86i/sKS3x234n3vMzqO7jzwUcknBIHyIyBkWX5M5YxjQAA31+TGx7/6rWzPE5cbwauUsfOUgPWDUjslUMAkY5uIY8KX6YMIQsQ2x0aWpcGOdL/GMUK2ktiaiwOTTGZBALLEDd8AOVqGgwxeViNCjSgSlJi2U5m0sphyWSQsgVwtM4naQHCZmcGrjabXbVR0zWzkRj12OpVrb5/clXDsvBuE0Y7t23K9/f1uyskYCxfNyyQdx+rv701CwKG9mMu2G6Y7xbIpE4GQbatICTOHa+dUaYWHn/FYHZCjk0DkF0RtI+bLHV9CD+8HbuyKhTovSIv92XB14v1jtsz5YUW5U0tuVY1pqTyGyd4ruor8Qy9UNbQ+2rTxo4oPv7WLcfPhJKbTgDudnMyyaxee9oUrgPVrM6XGsLfko4LAWBAQshwLevLZcUOguPneZc89eccv29KvzrGhKZsIe8mBRcXtmHxOpIHFx4LsASv8DCbrHMhw9pIFu0dij467cWYmExEfbKF5HtRkfFzbSmgLE3E61y2AiExYf9rqDPF2E8pEkZmiYhFuVmcK9WZhNTozKUrM+va8pcd9py1zwk6aymftAw0v6tsXMeCcKhyq2QgmWf7BKauf+uMnenat+WxLAthApD7lIKcUYw09ZBZHLucOK5H6yAdhQtjBSmA8IDUfP3NhnbKJrmpYlVt2tLcBNvNd7XJlIQFktA7VcWpXNGgSyVpcEuIpAi+iDIQfONi6Vs1MDeBot8NankOd22jr8tM+fo4x963PHchKynsFgUogMNpvSSXGJtdocARQj5nZ+PBd3wzzay43vM2wyLLk2D4iduiPGeYVMdlmGglBfNM9UFfs65FlrChTqgEcRpZsSTIZsBRfOtUGjVtYdMYAyIhdi/g5J9tQGuNKU9GHOzaCJRk2PTZj3qE/zMw87IlMx/wNRCf1gCwOdLB73QmYv5nb9KOjXt3+wpt7t79ysRFkT2mCWzpju3AMo/lGkINVzm5suIVRilNkSUFYmhZIi0tyvCJcsrCMx0KWoQniZRtRkSXqN2P5v5JVGWG14AxWlnnAcVxuz4YX20nAKm+GNY6HCGsW3MGLrzno+Hd9yWg9bleDb3uZ/gRFQMhygi6MDGsIgR1P/ejcnm1P/UtEnYfaziu4NeN+CiGDDLRjgyziYSrJJT7ekIdGkqTOqtUuRH4dQZZxyYYFS7HAxfGJFpClASuyGVZjP6WT7AKNKFeAi9GeDiKaSwPFto2Jtvn3HLT8jC8axnFbK7WWUW7VnO3Pr/p/3TvWnGEFOw5O2v2YVQ+8rVkQEmTjQJCqbIWLR2DdGcicYpFBXb4ymkMnLulEHk5UGpZtq3DjbGAmS8RH8TvTycBN7MAzAAvdR85w0A5X8tzV0+eceGX7my69ZzQjkM8IApVCQMiyUkjLdcaEQBRtTHU+9qP3du9+8gdNqV7cZHPkZXcjcxaW0vCb/ajIkodWktUrVU3G5Q/csBrEkkikEIMEWTrtuMnDavRgReHnBdSFplsmUX8uSWZi1vqDl73t3TTrXc/jdzoQV4UD5G176//ryNWrH/hxk9O/OAq64a7upZYmVDD6eVh/cCUj7ppKQwgA1qbKrh3lUaLZwWzgwZrQuI5TOZATlCuyhOEU6upDzDI9A9g1B03tiz8054Tz/gcPFLlRXl4+JghUDAEhy4pBLRcqBwJR3wNTO5/83cW5XZ2fzCR3z7Ptl+HiQ2PpkcdrSPP1ckVKt/u9kSVncyLTlLM54a70PY7xpVWCzu7uHE3qWErb8qnNU2Ycds2s+Uf8gqac+lK5XKxlwQpu2uLOew4q9rx83tbO5//W8brnhdmtNLUFJRsu2qTZHhWhGhcigWpUhyr90CUgpXKZUomLqvnknyKz10UHETdohTN2GjJeF6xJty7+zqzpy241Fp+yY1TXlQ8JAlVAQMiyCqDLJceOAGfNbrn/mx/LFp79iGF2H2pHXtIgLmhnBRgtl1Z61cX6TAh7EibX/JWK4jkllMUAkA6D9+mvhaoBVP+Cu9eD5Wi2Ut6N+puap760dWvv+kOPPP3brcs+/jTeAq/mxFeWiTb84sjVT999ZZvjLXULPYfZVraVkiBLE/WsyhDW1vRwwfehmlHdFWR4ZxRVval6S+raSaVLC1evwk6lGEGVJ2qj3pzd195xyAtWauYNc4752x/UAlZj36FyhnpDQMiy3la0webDLkfqXdny+K9u/5eElX1PJl3MhP5umpRBQkkRFqeXpaYWm3LRAGJlKF9ABi2Xeagwm58i02tTZGiiZjHrofNFuhnuVLQH60dtZQKnQirnQA4JMflp31+y5C1Xtx17bic+aeKGH7fJqD3AObuWs2+Lf7p32eOr7vjMpGb//akM4pnAyHV7qK0Z8Ve3CHUhUB7c0A4eNPKFHmpucZAkhFIVTN1A3anrIpEItaFWkKRi1qF0egrlUQZipVrRas0K/XBqLrTmfPeIPz+bY7fiaq29rSIjHoaAkKVsh7pBgBtMU8+dLdS3cXZhe+fMXVtfOsLv3XZu66TE2QW7QJ6RoyTKJVgogB2HVtTau3uL9XcZo/WV1kkpn5qaKTN9WrczeXofDTTjzZkcLTo2hxt9zRLj/iyuLk35dYK6u5O0q7OFnEKzty3b1t+3c3Kuv8sI87vtYrB7aduU5m+QhS4gUFdismQhPxP1rqGHmGSPc39L28xbU9PnvDCpY+EWmjd7u2Fckt2f68t7BIFaQOB/Adh0PuQVLiCwAAAAAElFTkSuQmCC;" vertex="1" parent="1">
          <mxGeometry x="100" y="40" width="120" height="80" as="geometry" />
        </mxCell>
        <mxCell id="WSmRnzZEHJ4d43bFwBce-5" value="" style="shape=image;aspect=fixed;image=data:image/png,iVBORw0KGgoAAAANSUhEUgAAAcsAAAEyCAYAAACVn/uWAAAgAElEQVR4Xux9B4AdVfX+nfL69k02lRSSEJJAQghC6ITeEUQQEBAVpVhABBUBEUEQRMU/FkREfxYU6R0iAQ2d0EJJQnohbZPtr0/5f+femd23m4Rsks2+ebtndNnse/Nm7nx33v3mtO9ogjdGgBHoFwg0v/bC9Hdm/fe8V2fPOmPVsoW1esQU1UPq6qdNO/D+gw87+F/VR5z+qqZpVr8Agy+SEdhGBLRt3J93ZwQYgRJDwHVd/SfnnzProzdfPTRq54SbzYh41BSpbFro0YhI5WwRD5eLCXvv88KV/+8Pn9Vqa1tK7BJ5uIzATkeAyXKnQ8wnYASKh4C7fPmu3/vOpc+sXbR4nJ1sE7nWRlFbWSHsXFoY4ZBozWWEEQoLTYRFxtbFmKlT5990710HaxVDNxRv1HxmRiB4CDBZBm9OeESMQI8g4C5ZMvLKb17y1KpFH08M5XPCFLZIRCIim2kTYd0QralWES6LC9cwRS6dE1o4KpKuKWpHj55/13OPHahplQ09MhA+CCPQBxBgsuwDk8iXwAh0RQCu18hVnz367fp5iycKcrdalojFoyKVahPRMGgzj78TcdGSSQnNNAT2F5puirzQRQ6EeuEV37voyC9ffBcjywgwAgoBJku+ExiBPoaAu2pV7UUXnLWoYdGCqirXEHFdE45jiVwO8Ur8OxQJi3w2JwT+rRmGsBxbwNDEaqAJMxIVG1JpUTNy1Prfv/jWGCT8tPUxePhyGIHtQoDJcrtg4w8xAsFEABZi7NZvf+X/5jz7zOllsCajliPAjCIej4tkKgVrMoGEnjx4UROuA3IM6cK288JybWGYmrDwGQtu2VY4bW+7549HjZnx2f8E80p5VIxA7yLAZNm7ePPZGIGdisCfb7r6zsf+/rdLy6y8iDl54SSTYgASehqaWkQkFhV5VwjLhlFphuU4HCsnDKwC4YghsvmMiCDZpwVkKsqrxecvueSKEy75/i926oD54IxAiSDAZFkiE8XDZAS2hsAL995z2e9vu/m2ULbNjGi20KyMCOFDunCE5urCxb9sjf4yhKPr8nCmQ+85wnZAmmBNG1aoiMIKNcLixPO/dvNZP7zx6q2dl99nBPoDAkyW/WGW+Rr7PAILnn3qs9d949IHyzSEH0GSwkrDxerKWCVtkiwlURJpGpI0aQuDLK1cViTKoohpZhDD1EVWM0SbHhJf+s73rzjuosvZsuzzdw9fYHcQYLLsDkq8DyMQYATctnWDvnrU8Qsza9eXR2EZJkLIbjUskcokhQ73KjyvKpMPhEl2pk+WGt4w4YaNIuGntbVVxCvKRTKdEk4kLlqR+PPj3//uqMkcswzwzPPQehMBJsveRJvPxQjsBAR+ftHZz8yZNfuYcCYjKjRTGLojMrmUiMBaTKO+0m3/luuwMJHYgzE4sCx1/CMagpIPiDJEwgT4ycDSzKHeMjp40IZ7XnhzFBKBkjthyHxIRqDkEGCyLLkp4wEzAgoBqqV88le3fPcfd//mRqulTVRFo7AUkb0D16uNuknd1IUF87GdLPGP9i88WZkaYpX5vIigrhJ5sSKL91stuG7LysUF37n8Gyd85ZLfMNaMACOgEGCy5DuBEShRBN5//qmjf/6dbz6eqv8kPKCqWliZLDJblcXogDSpDMQMR2BFOjK5h8hRfunxvi5dsohghjWRSiIRyIQVilISK14hyoePWn7rH+/Zq3r06KYShYaHzQj0OAJMlj0OKR+QEdj5CLgNi0eccdKpH0fWrookbAukF4K4gCvSqYxIoKbScHRhQmnAhkg6kaVK6FFkSf8ykAEL21S0WUlRXlElbMsUGTcktJoB7i/u+fO4yj32WAoXrPoAb4wAI8CWJd8DjEApInD7ZV//56vPPX1mFXReo4gzJtFNJBKPwf2K8o+cBTI0hE6iA34GLB6LiTSJMIkoDbhpyT3rxsOiuQ1yeGZCVA4Ztvpnv/79SYl99nm7FDHhMTMCOxMBtix3Jrp8bEZgJyDQ+O6bU79x5ilvhzNpEUGZB9VJuvCtOkjsoeQd2jQiS7haTSOK8hFX5GFhavDPUjmJbWVhdToij1pLyywXbXlNxGoHpH951x+n10ybNncnDJkPyQiUPAJMliU/hXwB/QkB122qvvDgwz8w1n0yNIyyD8tBaYj8Fiu3KhGm3CgmCcJMp/OiPF4mrLwjwigpCYV1lIc04y1b2KilzOgVIlpZl7rj//6yX/nEiR/0Jyz5WhmBbUGAyXJb0OJ9GYEiI/Dv22/+3sP33HVLIpsUGsQEdOi4UhSy0LqUXEmRSZBlCEo8JspJ8ikk/yA7Ngt3bdbNCDMaFi6Sf9rchLj86h999YDzzrunyJfGp2cEAo0Ak2Wgp4cHxwh0IJBd9v6Ec0847aMyaL66qWYRR2st2+7IcKU0V1VDST+qTMSFgI+GfSI6tGDRZSQPl61eFobrNSuyRkicc9EVN55y2XevZZwZAUbg0xFgsuQ7hBEoEQTu+MaFD73xzDOnRsGAmguRdFiJJnpQUqkIlYNIi1ISpfqhFzUbcUrQZhjWZTaL7iImellCsafRzoqpBx/2wnV/fuBkbsNVIjcAD7OoCDBZFhV+Pjkj0D0Elr7ywrE/uOCCp2PQbzXRfxKNtEQiERNZJPkYMC5JmUdtJJYOsqTYJcgyRD0r0aZLR5KPhhhlFhZmC14fucfkFbc8/MwEEGWqeyPgvRiB/o0Ak2X/nn+++hJAAEo98YsPm74gvXrl8DIQpYP2W1kq+wARmlQK0k6WSvvVRomIJV9Ej0q4XYksNbhjTXQTaUiDZIeNcA8++dSfn3/t9VeVwOXzEBmBQCDAZBmIaeBBMAJbRmDxzJknXHvJl59IoI2WjqQeStSxTWSyQvcVya2dyJISe6ie0idLHeRK4gSCVPC0sEibcXHOt77x/WPO/srvtZqaZsadEWAEuocAk2X3cOK9GIGiIACrsuLrBx3wUWbN0mExkYdn1UKsEkNBJivJ2RkIWBZalrJnJdVbgjAduFsN/Oiop7QRu8xpEVEzevwHv7z374dpw4dvLMoF8UkZgRJFgMmyRCeOh90/EJh57x+++Zef//zX8WyL0CEmQPqulNGq6RFJglBClwk+SubZ61dJWrCeUp3lIr4JdrUhXhCtrcv86bEXd9OGDVtZSujhgQGmsYhuwAVuWNtU6+Zby1qzerll5ELpZDKCJ4GIG9INTTNTmq7biVAoZ7uhprgRahs4anBrvqnJLquqsgdqWmspXTePNVgIMFkGaz54NIxAJwQuO+7wxevmfbhrtakJJ58RjgHhAZKwg6UYCkVQGuKTJRFlx+b6aj6ow3RCIZEGoZ589gU3f+Gan/wQST2+0E+g0AYpht/fsGLPlesbP7Nmdf2kxpZkTc6OxFqzVmVrOrtfcyofhecZhjS4E+SPIlOhoXwGn5PX4eLBQIrDw+es6VKxCHJFWU0HcPGYZtXWVr4aS0TWaIa7MhE2WmoqqhvGjNpjycDaynkTNW1NoMDgwQQOASbLwE0JD4gRUAi8/ug/zr/9yqv+HANDxEEALiX3UHYrlHisPMiA5Ow8eWep34NvMyhVfpasTRJPR5QT/SnD6CaSyN0/65lBWnUwOonUu2750vXL91y/oXXX+pYNY9esWz9l7frGY5ta2qI5G9cVSggjXC7o3znXFJaLOlGUv7gGHhC0kKDyUtjX0ML17xaqn1HatxDxA1HSu+SmhlXtZAgFdFahrKgspP9SwjA0EcfDht2G0hpdd6vi4dbBgyufHVFX+drAuqFzR9ZWLt2jsm4NZwvzt9FHgMmS7wVGIIAIkJV10eH7LUmuXjksip6TGn5CsKKkC9Ygr6RQEnaUvIONykXI9UqtncluNFBoaYNc0rDA8om4uO6Xd5w48agTnyzWpeJ6tGXJZYPeXJ46/KP5K49a8UnreSlb19NOFgSItmJwKWuoGSW6x654MKDfZEFT1i8sSDwW6Hhfg1UprxJsSVi4sLRdPBm4eDAAsakHhfb+EHgfbmp6mR4i1IME7FL6m+K5+HwYx7SyiAPjLRNJU5QM5aJ+VThpK2q0uXtO3OXBsWMHPDhh9IhXw6J142htdKZYGPJ5i4sAk2Vx8eezMwKbRWDtCy9Mv/JbX341BCtIeLWUYST15EGasDHRpzIkCUN3iGBAnAYWfErmIcsK7bkUWSL7FWQwbPKUV25++ImjQSbJ3ob7o5Urx72zeN7nl61du+/Kja1HNFuxspQVxTWUCy1SDksZYwdTOd4PFb8Q6RFpETkSicr30J/TtnHl8KzS+whR4olAPSCQiDx5YolkqeuKdMvCGqXfJkQYYDlKFy19XvcSnoiFLWjraniNSFITSJgiLy4+hz9xXiLMZmDZJKIhtDFDwHhwbfyZccMGvzB2+NhH9x89YVlvY8nnKy4CTJbFxZ/PzghsggAW+eg1Jx/38qr5c/cO2Rlp6YRJro4sJmrQjIVeDxEBgBxBlqTWQ2RJpEHWErlgQzak8ERY6NV16d/MfnmUVl6+vregXuKmR773waIjl6zZeMy785Z+PmuHhRYuE21pEBNqPcmCtDDOfA5jxXWB+qSlRyQo24ZR+zD6wRXYIEp6XYMLVf7GD5GnJEQHblayJP0EJ1ii0gqVpiQYj+xI7/PqmKrzijwP/k0PG2SrhhDTpdfyqEfF/9GujDq5qM9SdxYN8oIGXLlhYGzlmuXvsSOHPT5iWM3/Dtpt2HPjq4e/H9Q4cG/NeX84D5Nlf5hlvsaSQmDBzKcPuuHSi2fHLFiVLiTt4DfUsfjn0uhZGYIAOhZ+CNcpy0lEPcsyJy1LittRKYkJsrRQKnLwaZ/7x3m/uPOcnQ0ACSfMWb166ux337roo6UrvtiYwRjR/ksza0Uqq4tIpBJkhKSkMETd82kVT4Tr1HWI1OA4hcKQ6rfpNalGbJY2yuMhYnVAjHKjmK1HmmA7EYY12C71R1alrDOlxwrlnqYkIPVZcvWSwDzivuRzhQVO1iuJzOdyOUmeeghWOo5PbxOyBoiccobk8XEME8Cicyh2QWu0MEg32ywiyWYxZvCAlr2nTP7BYdMm31+haUja5a0vIsBk2Rdnla+ppBG497rLf/X83/7+7TJpGpF71Uvegc9SuinJy+gRCxyuIpVOi4rqCtGaaUGPSkfE0ZIr3wxZvPIa9w9vzhqmJUbttEzPxa5b+d83V1zy2py3v9/Y2lKhhWNwrSJOCrJxIdRu2XAXU2KOHLlHPBRbBQF6bCbfk9dEEn3UWswre/EncYupu9jP70jmH4t+tyv/yT+8423muO3j8U60yecU23rjJkUkRbKkjKRT7BiED7qHSD0IONsqYnDdTpsw6t8nzTjwmjHR6MclfRPy4DdBgMmSbwpGIEAIwEKLXXr4tCXpFSsGh3PI6kTyiyRLb9FGPksnsqREGIrL2UiUQWtLWHOayOUpCzQmZpx42r8u+NVvv7AzLu+9VGr4e/OXXPjfN5f9oDGrhaj7iUmlLLCA84gD5khij9qHkWlYsPnZuoXC7ztjfL1xTCJxkhykJKIYLjNqwt5P1sPWT4upu424d/p+e917UN3Q2b0xFj7HzkeAyXLnY8xnYAS6jcATd//8a/+444679OZmkaDMTFqMPbKUWa4FZNnubiS1HhBkCD0qk7AytVhCOIky8dM//O7I4fse/Xy3T96NHd9Zs2bUK3MXXvr2x2u+24i8UIv0AswwSjEQI4XRZVHGDmW2wqokF6jXQaz9yH2JLFVmrYodO7aXUETyg3peRLQ2EUaC0OjB0UeOm7HHDfsPnPguxzW7cYMFeBcmywBPDg+tfyGARdf89omHvVf/8fyJlZSEkiVrkeJwtClXpU+WStIOf8PyzKbhcoV1ifxRGW/LRWPiM5896b5Lfva7c3pqgV7U2lo366XXf/TuwhWXNORgyYZqZUxUpwQYjFXK6dnUPBMpMyBKKuWg7NO+bFnSrFBGrYHr1UXMy8DFiyRgT7FN0SoSEdR05hrFpF0H/vWow/f93j470SXev74tvX+1TJa9jzmfkRHYLALuqveGf+mUMxfm6+ujA+Jov5VuE7bnhtURc6P4HJElbYosZeaJqh9EyQO5QiviNaJR0/L3zn56tDZg/Cc7CnWz69Y88uY7l7757orrVzfkdNdEJBW1FQ4SjyxqQg3fL6noGGj/RfWfNonmeGUcMhbp1T764+iwLFXMkki1VDe6Ph3lPJkMmdg2YpYhEZIPCcAFHgEyrnNOGvWxSMZCMlB1yBWHTR7/68PG7fmLXYfGlpfqdffXcTNZ9teZ5+sOHAJP//r2b/31jl/ekUB6jJtFn0rKHPWSewxK7ikgS+oqQmRJZQ0qZolFmmorLVNMmXH4rMv+8o+jQFSFCnjbdL2wcvWZi+aeeN9TLz2aFBWIwlUjYacK7EbFjVROkZKycgbilO11krLKE2RJ5RcoDyHXrMo87dj6ElmSQlIaJBmNRkWClA6QVatBfpA2BzjlaU4Qt81C07eiHA8YmUYRzTWI4ZWGc/T0KZ87fvLkR7ZpUnjnoiLAZFlU+PnkjIBCgBR7Lj1kv1WZVZ8MjIAAbVhulMBpoR0XbUSWpurnLDdFliArKrRHjJAqDm0dqSWou7zxnt+fNGbGCU9sL7ZL2toGPfPqW799Ze7i07KhKpGCaDtJzuXh9zVBAlRuYUKGjsowSD2HSjNkPSOIgQiSXK/0dx71oFI8oM+SJS4MDzSZTAokmRExlJ5EyJIm1SEH9aNGDOUoZSKTRVmPmxfhMJXLtIhMao1A8rKYNKLu7xcfe/IltRpe5C3wCDBZBn6KeID9AYH5zzwx45YrrpilNW4UZSHEKcExKRtScFT7h43IqTC5B39KspQyeLDuSEOVpO2GTZi84GdPzpwEq5L0aLZpo+4e/3jzrW/MnrPgV2uaYbGW1aHJdBhEiWUCpEikTHWHNrT1DGi1hkCOedSCmhBIUHFLlFBgX6m6Q/oJIEwSquurZEnPLXk8tJCgAlnZBA7VuFI5j476UaohtS3K+KHkHwgyRGB8Wo1IxKJaTyQA2SkxZfCAV6ePn3Dr8ZPHs5W5TXdr7+/MZNn7mPMZGYFOCICkQg/dcsOPH7rr7h8Mgkh6NtUssmQrxkCCXnqPJEtYl+TGpBpLnyyp60gknBC5LEQAoglx3lU/vPKIr37t59sK8Tsr14+b+e6iW99esvazrbCKXNRLUvkHGba+3iwdExpBsmA/75WEkE6QUtDZ2qbcsf6C49dZlnbMkgSVVKKVao+mNlULC7c5idkjSzkaQTyX5PWgxKTDZU7WeB7/NiHqXi4yImInxaEH7H3dl/ebejsLt2/tPire+0yWxcOez8wISARAlonrP3fSrBVvv7tvHPEtaO8IOwLSROyS+lCS69VEaYJK7vHJksTDHWXdQVDd1BNiI4yb37349MQBo/acty3Q3v/qqxe/+Nbi365L4VixgSILd24eiToGqeVAbo8k9Ewo7NBG46EWYXmyMkELpievt/Xz9T2y9K/ZU+SVpEkWtSRMKVpA84P/4oGm3X2OhGGKL4fwMBKLIq6ZXIN4Z1JEIac3ZdzQhy8/4dgzQJieXNHWUeU9eg8BJsvew5rPxAhsFoF1K+aM+e7xZy2KJZPCQPwrFEYMMqKJFMoSSOaOLBQiS/Vl7UyWJBxukYycFhejp+77zrWPPLp3d2Fe3uTu+sDLL9y4YNWGs9Y1orE0JOnccKVIIUeFMmvDEGvXYRHRok+LPynYSA0bECV1OVHlLMqC2vLWmSSlAk6nrXSzYSmoTNa+7Gki8aAHmI45IqtTls9gM1GLilRi1GNCst1MyCzitrYGJP5k0dS7AS3YkiJhtYmj9p14/emHHHkbW5jdvYt7bz8my97Dms/ECGwWgcd+fevVD/zmtzfFICgA/RsKcYlWahMFl6xckCmxBmQp3XpIiVWuP7UwE4c5KFmg3o/X3PqrE0addNJT3YH5rfrktN/8+Z9zWpG8k8fiTceANxgkiN9ws7ZnvZLl6LW26iBL1TVS6q1KotwS4XUQY8dC03fIUqPuLgUPC75L1v9N0FD8ljrFaLDITfTidPAZ5G/hISgMvVxkM1vrRMhtFGXwIxyy1+53nHjY/tcOECK5I5nM3Zl/3mfbEWCy3HbM+BOMQI8icNVnj35n47wFe+lJJH2QrxU/LUjuiaAkARI5sO7QGQNkSVshWdLfBhbhLMgtPnRY253/m1PVncSeJz9Yc+nfn3jmTjdegazahEjC+MlTvQfcqwbIkxZ26h8pY5UQGpDxRXgGpZsR5yTLkvp1SJokRaFNrMWu8GxaweLrsJJlWqobJfOEkMSkGm3T3KiG2+0as15zbsoQzlNGLPAMRaCdi99ZNPQOYebK3CZRE8qLL5x6zOGHDhvwJrDIsBs2mHcEk2Uw54VH1U8QcKGM89Uj93/PXlc/GBowcNtBrg5u2KwkJwMZk6o3pSH7VqrEHgeJrrQgUxwMGt4ii2zYur2nvXHL/U8c+GkL7UoIDDz45Oxr31686rIUFExzWkxkYOWYKKw3kHVLOrOWhXgpVAWkJURlH9R92RcQxwj8ZJZ2YfTtIEqa2r5AloR/SD4HkLWvxO3VYwERJqUr4zfakMkWYPSOA7e6QRnDafnwUYZWX8dMn/az86aNvYHdrsH/wjNZBn+OeIR9GIGV77w27kcXnP+R29BoxlEykkH7Kh1kmQMhUj1/lJoRU6kGyNLPgrXBkL70XRjvZeIJccxV37rqtK9ceduWoHpl/fqxr7877xevfrDkJAu1k1lEybI5HBdWDyUJUWsqIkrZIxOvEVlSnWR7qytJAUTQfgxS2pjeq4Vn3bwOQqeOHkSWfjePEp5bWTDiZwWjjlK2HaPaGokMJUKhvMaMitZWdCSB0noF2nolm5eJuJ4U+0wZOeczUyb9YMagMf8pYQj61dCZLPvVdPPFBg2B/91958W/vfH631YQQcHlSVYjkWUGGZSkOQpDRNZYkquPrBeZWCMtPSzV1L+REkUiYfG3mTOHaqMmbrYV1/ym9Ohf/999H6+GYoFeNkBkXMQpLYqhIemEmh4jpkYkGQ6jkF42QYZ1SUUiOD/VTcqCD1hJMtGHzkuuRxCDimGq2GXHVnpkSbFFP3nKz1ql6/GtaPnvTjeOul66dorxKmqkLGZqEq2uH/akzBrG7KFkJCXKQZQiWy8SiE8ec9Bed5673yHfDNq9yOP5dASYLPkOYQSKiMA1JxzycuPypQckm1pEGAk9pHhDFp0t44Qo8PeaGPuLOJEZEZsGCyYHSbkUCM6oGZj7+yvvxDaXFPLkWx9f8OzrH/5xaaur29FKEqgDCeK4JHhA3TJwDJnQ074pl6IkQBlP7FgiVHxSuWU1169u8FyORcLQJ7GucdNC0us8tA5ilwlSnutUCT4o6lf9QpXdTO5UJTmAhCq8SPjrUDBSjAhKRGKUI+O6yGrFQXTMH8pTZXkIebE1JGrFoNwj0mvFxF0HPH3OUfv9YHzZoPeKBBefdgcQYLLcAfD4o4zAjiDgrlkz8CtHT1+vtzXLlZlcohrqGYnEUL0uD60WbUUJtIjLOKX37wwK3JPRuPjseefffPb3fnR117E89Pa733nmpYW3r27D4l1Wg2QeiLNnXCzeuoiIFKxS1HG2W0B01EKrkJJ4VLPpggCjl+xD+3WQ5ZazYXcEne59dofJkq4aGFMtqU+W/pl9siTr2gXzSZIkcvWSeqg9Vz4L0QHS8M1ngaWNDFdkE4MgbZT9xKHYo+XaRDxs2cceuM93z5468VfduyreK4gIMFkGcVZ4TP0CgY+ff/aQH37lrP9WYJENow5PWnpQfKFyA6Slyho9av4sydPbJFlKwoS7VA+LdKRMXHv7raeOP/7UTnJp98yee/tzs+d+JxcqF1l0CdErQiIDd66djokoShhMu1VYiI9qIZzXtyQ7adCouKKysrq6WVXNpbLeipvNSpah/yCx+ZvmU8YnLWc/e9WLwRZqz5PrGTFJaVGCUXUSS5dKPBlpkZKAvYY5gNcaRCrNSBBlm4iZ0InVW4Sbrhd7jh1x6w9OPuNaWKSoBeKtlBFgsizl2eOxlzQCz959x9f+ftstd8UoS5KqGWGxuOhiQRYmtXjKoYsFLch+5qukJo83iajySMxpsg3x7xefnaCNnjyf3l/qutEnZ8+++T+zV1wWrxkFfVkXPynUIySxsIfQkLgWqjuIhUIxxkDNpg13qq864x+/429FNH4yTuckna5iA8WZih0hS3ldEOGl2KLUdvXrSdsvxSdLzy8rVXnIosYDDbllMUdp+FwjEZTbUMxXOrlbQZLrxIQR5f/vmP32+eWho3ZfWhxk+Kw9jQCTZU8jysdjBLqJwF0/+Nadrzz0wKVmFl0ryFqk+kVy8eG36QmTS7Ki3ohe7JCsTN/SzIFUa8bs9snP7/33FG348I31rlv+0Guv/fi5Nz++3NKHilQOCTxkDcGosdBkK4yEHtMpF1YWot44TzSKXowoVZGEU2ChFdYJ0vmJTGR8z7MiO8hU1RgWdxHZvMhBhy2+ZctSJeioriiqXlIJ15E71peuQ5mrtPJVJxUL0V3UStJ8YJ88YpUuROQdNwMVHqgv5ZvF0IpI5tCpEy45e9997+3mbcC7lQgCxb3PSwQkHiYj0NMIUIeP68869X9L57x2gAl3KNU0kkVJ5RtEmCEQpmy9hb/pt99EuZAs04iVDdxz6pqfP/iHXRtFZeTux2bf9uaShgszkQEinS9D2UIcXsM8Ymc4DtVvUtIQWVJUWwnrkjZbJ8tSkR5tXRcEn3RUHSHZU4o8/U1poBZz2wGy9B4ANDCjIZOmOix3X60I6KC5NXYEQboQbiD5PyJMHRY7YRqKEOWmoe+aE3uNG/7DK4464mfdEYYoJmJ87u1DoLj3+faNmT/FCJQ8AiC9yIUHT91grV1XFoKaiyAew00AACAASURBVI4aSyJFG2UcRJamT0i0iMPKpB/HsyrJ0qR9M9GIc80//j6lcvIey5/536Ifznpv0fcanSqRQw9FoUF0IIdSBizwJOady6WoBgWyeMSIVDaCTiVp1QtTkqTHin7vDPk3yerJN1WxvZ8Z2p4ti9eKTZZdu5d0x6L0bx7KoCULWynwqIQmRwrF0x4q4YnaU1LmsU69Q/GbHj6o0wu1JUugHMRNrQVJjrzxoAP2/t1BAweuLvkbky9giwgwWfLNwQgUAYGG+W9N/uoJJ75XTZ09skgYQfzQX6LJwqQFnOofTSkQoL6mNhZ2Wsgp6Uc3DZEqK9v4q5n/GfPiksbzn3hp7k0b8rEyt2yQaE46IhaJSs9qiPpL4jOWA1G8KJKCoB6TATmHzUovMcWTrfMIszNpdiS9+PabT5gKMlV7WcxtR8iSiD4M1yo5mMkdKwkTP4o4CXN0B8GDhp2F5Y9m3FHSbqCSGystqsqjYkRt2e37Txr152Mmjv2gmBjwuXsHASbL3sGZz8IItCMAq9L849WXPfrsv/55fAVVOVJij0eWtHAXugNdipOR+xNuWuUCRYoJxcvgDiybNGXtoVff8OOZ89d9a0VDdoIerxU2smptJP2EHCSdWFRPCSsSHldbyyCZJyeJVlYTWsiQRXlKHtFMqdpDarD4LBhZun5DFKejWkoZy+zcMUplxxY3C9YHc1Oy7DIuP5sY1yWvkxo1e25t2ZAZDxNkLZI1Ly+J9pfatypdhzJhHbRNo4bcRr5FJNC0udLMtB1/yPQvnDh14pN8W/cfBJgs+89c85UGBAGKV/7uO1+785WnnrgomoeLrwtZ0jDbS0RocSc3IeVh0oKPbswO1fyhfZYYNT6jH3rK86ujA0aKSO0eDkpC2jIojidhdT0m8hmUpECXVFqlSPKhpsNUCiF5wYLcAWXdIh5HAgjUkkuKmpOeKUiFmj7r0g1LvRh9C9PLCvWsyiA0bt4aWWalEhI0dpE5bFJvSVy8lcvK3/TgIK1HiEGYML9tPJhQ6Y4s4aEqEc8dXlmGEp2mejEwYVpHf2by6afvM/YZWPvoacZbf0KAybI/zTZfayAQoHjlTeedOmvRa68eEEKpiKxl9CxLar3VLj7gZZpSJiy5BYnUHJSSQC9G2Fj4o7vv05yYce6LS91EmaVr+9pmpNwhqxLC6nAqigx6Y6JGBCUj+AzqAZGTgiQVFWdEsyip5JOXL6DPIhRnXGo5BYk7IkwHVqWMR2JcqlyCMmbV2FRhZmGNYvFg3RpZ+klTZKFL5SJcDcUgpWub2meBMDM5ECTSXsN4CKFMV1ROirCWFxHwoZPeKPYYN/y+cSPrHvzc1KlPs+B58ea62Gdmsiz2DPD5OyEAIglhQUK+JtZkWGDeqkz3Kf79fjTXuHFYS0tyYLI5WWMlkwNQBhELWZaW140aLHQbW9NpIxyLNOtGNBOKmWuHDa5dFhk+wEu8mEaF4TaO35EHUgT83abl1ZefdsYb9R9/NDZhRlQqiexRSTykhiaF0mVWDTRaaQ/KjCUhAiopgaWUhGLMAWd+6f1PKnf/cI1RWa1Ftd0sPTQ6l4X8Gj5nhpB8YsDJCnFZRD7hukU7LhelJDgGtck0oDCTTaMlGDJlNcQ/NbwHIxeEEpPWJ1lkBBORpdSBlXTdQZaykbG3enQVSe9NSLdGljKBCeRILtd2hR6K/eInT8lTMQjK48LhZRVlsLJ1ZCaLdLNIIMO1Ku6kPnfssV88bPwuD/fmNfG5gokAk2Uw56VfjQqkGBaL/rXHunWr9s4mW47VI1adbmcGZPNtVU3Na2OGacXCph4hAqCsRJmlSVYPpOHI5UgbEQRZDplsXgqCU+yJLCpZ8kAkgwURPQQbXVdPlpWXtSTKKjeGzMrm1qbEY6NHH/qctusRyzEO8OjOJ1KcJ3b5kdMWpVesHKrlFTluiSypXyVdnA1GsrDwZ4k8E3FJljf97g9Hjzvi5NdXZbN1CxYvnv7RwiVHL1mRPrk1la8UZhYKPxaFJkVrHlalMQzZPpXAISOJIgYLMoT3ddEsZe80tOtKYywweuHihQuXxBFQmmJTnYknmk51iFRmoVzEwJZI3CP5Yt2w/mz5hO3XgvrjoXgktciS4jt4QKBrlXWSeOCwIV/XBGdqPBYREQs4JOvFoJgjpu4+/O7p48f9bsrIkQvYkizWzAbvvEyWwZuTPj0it3VRXWvjO+PbWpL7pNev+kzj2o+mVoTc3aMR0t1EAorADy3y+TaRs1pFHP2PNfT9kwLe0raipBPVBkmJilN6KDEi4mxYFDOZjFS9sb0yizx8j5S4IokThErGGold0+bacfwMFOlMVISi5W7Wir5aXjtiphkd+M7Q8ZNf1ir22bAzJsN1V9VePP3wJfa69RXSapQlC56AeYFlqaxLdY2yXB4LfAqJPUYiKixc499fnjlIKx+7vusYF250J61cv/jAtQ31n6lva91t8fJ14z9p1AdpYZSUUF0lHjIMOwbisC0z1GKm4K6Nxaql5ZkjsgzF0fUExEjJQJIMCXdp5srxqNimp13bnpi0M5Da+jG3RpaU0EMWJbleHSQuGfjbMAEsMKBEpgi0dXPJZlFXYbjTdh9x616TRvzxgLq6RVs/M+/R3xBgsuxvM96L10uWGk4XFmsfGbLo/Ve+kU2u+1LYTNUapJ2JGrW25EaQGDISkU1Ci5pD/ROpLyD+HSKXGDiNatpkRiYWN/rx1WtQwi+VbWzsTwo0dCIiS18iThIjJWhQKigt89JnSMkr1NZK3fawMtH0GG5HWKdwTorWNpQIgFCgbQMuKBfJtLlk2MhJX6+detQrQkxL95TV2da2dPDlhxy+Qt/YiGo9RZY2SEcOqwtZakRasC51WILkgs1i9zxIs3rY0PW/eX7mBE2rbNjalNI8rMi1TVy6eu3n5i98/7QN65qGZloMu6nVKjMqw2WrGxpEJDEAeCZEKo8RhculTB6p11BBvpKU84opSC+VXpfNqDtirVsbw856f2tkSSTvQmmHEpYMSnDCPUbWJpXTIF9HlDutn8w4cO9bz5i2x+9Zv3VnzVLfOC6TZd+Yx8BchSTI1FuD57/67NnlUev0lo1Lx8Ui+VorswG1f1ikXFiMkAWLxwUsR9SsgcyoFEIqyBDpUQE+JaJ4TXTJoKS4E7Wq0qhkQRImWZLKBaihLRKclFJ0nNxtRJbSDSs3tbBTpidtRDokHKdUcKjQX676smMEnYM+Z8A1l4M7MmdTUV0FTlcm7FBt0hUDFiZzZU/utddJv9SG77dxRwBvWTp392+dfOKHRmuzHpZhWVLSwZg8l7Ecq4wP4oHBz1AlHVJcoxNCuQdijBP32vvN6+668xitamTjtowF107sHF2z5qUJM2e9cqdRHp8+f+lyXGsUGgVmuDkFYolXyThnTtYeYn6ACdUhOlD9cfEgAY034IfYKPah1ykrVs4ZGfmFCbOKTdul9DqP0xdA7yj12GzsczOf7+Qo98TQO3dMUfcSxVqpz6QG7d0QHsoM0sFFJmxloqx+j4l7/OOw6ePvmBwVq/wY+bbgyPv2PwSYLPvfnO+UK3bXzRmz4sMXj2jaMPfcWHnyIM1twNM8NE9BZDI1heJcnisPBYBYzFQxeCexNG8V9KXXOg9U3aodC6VSWFEL7JbydTZze8vFdTNbuzaqIi2iKwduSdi4+GcCVipcnxaaJtuIb8Uq3qguH3RfIjHmf6HJX5uHxRZZId3f3n76iZNvvurih6LpNiMG65caBqMhiHS1yvPJNBwq2QBZol5S1gDiZQvWZxslq0QTYv8ZRz94+Y9uuUAbOLC1O2emDNzcun/vlsmunDF/3pzzIro1DfRHgTylDoRz5mBNNqWyogXlJ5YehwhQlVi2PinSeGBoyiERRlSJtmxCGLFBImtHYX1ibEY5HOdIHCLDH6QpNWypRyYeSOjBhTJz5Tz52b4y2YZcvPAEUO1ojrJylfVPtaPUDks+MJHwgtTKJQ8BSI6yhvE6VXv46kb0wGPoUCpCm6xQGC7qtlZRVo65suCKh6s+jNpSw21GrWmDmDRukDOwIvHR8IGD/nTgpH3+kRCifnP9P7uDJe/TPxFgsuyf894jV41FLyGWPjP85ScfvaeiMnPgkOGGaEl+DNdnE2JBlshlWuSCSN3iSZOU4lyKiMjlqEoR9GKmUkqeLSBPSZgqgUhueM9CVwkDZRcG6hbJorJRn+g6SBjBa45eK1Y3xDcmaib8eeKhR90u4tNoAe5cwb8ZpJ+9+//deM/tP7064eQ1k+oAqSRE1jSS6iiRC1E1Xqf4IMiS1HqyVkrgnyJDWbGIwZ505tl3fvHa2779aQs+EaRofGvQyrkzL6qv//iysNESq65xkQW7FmdIwdpCMpR6LFA1h+TmxXigsw6LEQpAaBZtQemnOYtMWXOwaMnFxAcLN6DpdJXQwlWiAfZ2c4aaHZsiGi+XlntbGxKOkeEbAaFnKWEIREiGvXwooh6dZK3KhyRKuwKWqGukz1HCDWX8ku+dlIps6QZWovL0MhGkTrFpaowNC5tYlLRaqfkyvUZufbIidQd6rVArclMbHOQMO8OHhBqrE7p77JEHnFlZUbmxOjx+uabVtvTIF4AP0q8QYLLsV9PdMxfrus8m3nnkyRuiWvMpYbN1jI7efbqeweLYIOIJslHyItnWIirLKoWdI98ixbeIMKmJrkrUceRvcr8SWRXxNtyELKVOTjtQKuwK0iLTjsgexED1iFLZhSwpJCa1ZVG3GKsT2VxkbThctwoxzwW7DBr/z8geI17RtGM3iSn+7YqvPDrzwQdOjnhkQCejmKVqGVVIlvQ8gaxVuJeTKGcwY3AzgzjToJuvXvS1G4749udv1LR9ZJmN5PaWOQM2LH3jgA1rF33OtVonxyPZXfK5hlpDQE4PbbqiIZSRoMMJZRRTzC4aDcv2XdSmS5WUUAmJyiwmUtMgcpDO4PAGxXARy9UgepAFKYUTIEFY2dSQKp3FPiCtSFzgn2Lpqo2Ie5JoQrVoBJmKSAWShTBuNworFA8coYR0juaIkEF6cfjjs8jQpYcSeiiQCjp0Ld5DlFTdkW54ckzTh1QfzRCCkBGkuFrAJaonhZ7bKEYMxANMyyoxedcBIuq0UNIO3m8QVZUJxKMzGOOAdH1j9F8HnHb+VZp2SH3PfBv4KP0FgSKuUv0F4r5znetWPDWmcfmcLzWs+OC8YdXaCDPUACtkPQwJtCjCYp/DQkxammRN5jMo7Iagt4OEEZ8oaZWjzEpywTqqlFKWIBSXLFWiSjtBSqvSd+uSZUNZtFSXR8E4JALJuKcpX6esXQ19ItNEQCHUMTpxWEiVcAeSixHVGyjV+GR9Y2Nl2dDF1XXDltfWDp8fDdUsvvPaW749f877UwwQbx5kbcsQLArjyVFN2agSEWVxarCPTCqeB6HoEcQJkQXbkm9xv3TxFx454KC9F25sbhzS0rZ+DBo5j4mEc4MiUXwO5OGir6JlQZ4NerAmHkxyqKmMIN5pg5TKy8pEGslMaWjEagkqD8E1UzaxjD163TVk42NVYkFklSbVGxw1jN6NRGgZ/I1Dwf0ZhWsaZEmJUXCJJtPAyqgAWVaKthxoGtfTnBSiKZkHiQIzM4r7pQw6tXDnYjwtLU0imUyKbBbWIOnkeuU+dE6DenmCH4kkZZyZkr1gbZOIeRzat7Ew1HcEDp5vEqOHlouQtVFUhxCjzNSLStSYZpMbRAXakLW0tIhYGaQAtWqQdJ1YtzHcMmT4PncPGD7hr2XjT3qv73xD+Up2JgJMljsT3T5ybNd9vfajJ++93Mmv+WEshEL2MBbfHKwBJynKKlwsRuvxGlxxIdTzka4oXGOGHoGsGJUcqHiU3GQZArk5fbKExQCXptQbKNbmlUBsnixVopHq+uGPUWXTyrgbPQbgwYBKEGihJ/3WcAjkQdX9cDtbIFgNbT50WGVtKVhkWg3KHyvEL39yr8ihKCUCUqFEGhmvBC5kTBWSJZXJRDA+iwTVQRyy6whk2zKIB59+/gwxceogNB5uheuUcnwo8xdkC6FvcktSEjB5NkGiXtkH1E5hudG8+Rqp0RhqK+GyJLcoZReT21nDuGXyE6xnFctE7BFEHYkhfosHIlIFIs9nJI5emGm4XKEYRC5pIk4ZQwQZghFBoJTtQyU8FBlV/9bgkiUcLViUZFXKek+IAlBsU44J5EkPDISnfJCSYgkqNt3+QAPsqfyDLE0dyV2kd5vLtaHEyJTZrvlkq7wPFfGr3pRkMStReowZ82Aj/hw2a5G4VC2yZt0fd9v9lOu0UYesKdYtyOctDQSYLEtjnooySrfxnaoXHv7THbVlzScOq8vWWJmVWGha4DZrE4nKAeheAddrrlXUVmPRx2KUTmbkQiXtIkq6gPvQL/VQCx5ZlhSr9GKWWAiLb1mq0o3OZOnDrUpVpJKN1/mDFnj/mjQiAFiHssAdaS4OFfBLwQRYYGArag6cxU84CksONR/R0GAhkgPE7Tc8ILQ2kE+uHJYlZZxSAgyVwCiylEQBy1uHezQMcsmngSvqAa08ibqCEMNN4uQz9wBZVqLkAxYk5oRqR2kcykhU45Uap6SBSuQiW3Gp376lRokzMuuYLDp6GCBi8lzMlDUsfbWEDMZHRGyBiJE7LDVU6eGIzpFHgDMBK5HGRvcAJfRIdRz8OwIrVGLjkaNffiKvj0o5iMRwnyhXK6x10qrFKWVMksiQxor31Oa1KlM+Wjlun2CTmbQoR2JPKpWSZG2RdB1qRemhhYiX5sIE0VPWs3qgQ04v3k8jFuuEdxEbWuJNeXfQY/uecepFmnbANiVrFeWLySctCgJMlkWBPdgnpfKP3NK/nr5k7nPXxkTDntFISrr0bBdWBQq641AKaGlFEg8sE1Kko2xEaSV4iyNlLpJ1QxZk52xVVVyv8mJVSQHpj7Yn1BQDli1lx9JYvFIWUgvyF2e50MtcFLJtED9EvDIMV5/tkCsa6zhlbuLSo7AwcyBKXdYphvCAQUkqdcJuGyh+cvWDIpStFA7EEMil6JBVaaSl89dxEdfzyJIsS7K7LQT4InBxEm9QtqiIbhSnfXGcmLh3JQ4KyxDWlcyNkdmjCk+6LCIdDa+FiCDwb3J1UuJMDORGljAp2lDcz2+zJS1mcgl7/CTnCJsJ0Xay/kjwoaaqWlqXREQxxGvz6JNJxElWJR1bxwOEIjhPJUdip4jO751J9bTt9bJUeuL36aTVyHP/+j07/YcTUmuSx4H1KPVdfWvf8wxYdkaOI5WCtwNu5lQKiT6k3ANrVnUUUdm5sRhip77cXQ7lQnod5iksGiE678brFtQNnX7TkCmX3c9C6cX4Mgb7nEyWwZ6fXh+dm3pq+NI3XnzTap0/OCI2iriZxMJECzml7dBCjCWclFCoDFGyg3LbSdcdyMORVoFy+dECpgJwZO6oSJwiS5JKU25NOqoqIwnA9illJVJeTy7QqjaTFm5yPZJ7kdyHlDhD3SsMWGZEGuTy88nSQqzNxX4G3H56bpi45rsPi7hbi5q/hBRhELAiHR0xO0lUJHFOCS2eUpFNNYKw0C3qnBGVOqYivF584csjxB7TqmViECXo0OYTOgkJ0NzkUXwvMcdYqSwjHkPNKBEaNY4Ge1MXDpMItSChiaZHNqEmL4B0NVO8VFmMlF9Dakg2MljDyHi1UKKhh9DFA/PsW6YU2yWXMf1N5GRgf5/wVGssxcQd1jnFKXEuELWygsmd3WEVyyxZb/MJ07+fVKEKjk/SfLgf81YSMVW8hhgt3aNSyAF4mXCFy/QpL/YaQeyXiJ8s4nwKblpcmwY384ZWhA0iI+FZHvPJ2DHHHRwbdczSANyVPISAIMBkGZCJCMIwGufe+ZONn7zydd1aOzBqNsOKIfceLZhSJE5ls8o7RiWlyGxWLPRq/VPE6cugyevxlF9kwoxHmFBflftQQbv6FOJefqlGUUAorNGUmTbeKLrWY3pxs4IEIF93Vl4q1ZOSWxkJOYLqM5HFKhGChF8IZQ15CDCEjCqRa60SP7nuP1QDAlWGKimCoOoQ4eIkN6wsHVEyc0RZGqxOB25DQ8QkAVuw4kV4jbj8mmmicnCrJJ+O6hs15k30Ub25UhemrkN1NyHRAxCbFxf0XeSSFdvnjzJyaW5VPJMeBmh8dK00RgtShORGVk9FakZVnWxn/NQ5um5KSk9mRheUEG2pmqi9xtZTPlB4ewlaMnEMDyVwZ/tatiq7mN6nuKnKxu4YhSoR0rw6U3Jju8j2zaGWNuNUoUxnTKsWHnP3bgf98Gq2Mjczdf3wJSbLfjjpXS/ZXfLkyPkL/3Ofm12+f7nZiKWFBGrgckXHCmk1Un4GSMBfxGRsTbpRSXCA9FwpU9QnSi/21b7YkjXqLb5yIVcLaYdl2VGm0ftTUVgm4i+jPmF2Jc2CJBOP3NUrKt5JkUAiCZmwROo2RJg4lIlkqEy2RUmtWXC7imHi2qtnCtKt090amEMKDcoOlvE6uGyp3tKvRaXjytggninQQAolEzEgvkxcd+shUNpZJYv05bx0KsFR5EZbB/EUurv9BwRK5PHVjoi4/H2onyNdnSJBui4iOyJLX1GI/pbjRRYvWbc+OW6OKAvnVRGe2l+dr7NXQWLaVQ6oQBaoE+XKa/SzmT1LHA8n6n7z5ks+mNE9SQ8vBZnPch9qrK3k8AzyGlBjMxwzD8GFvF6DzOPhcM8OfXXsxKO+XjPmhPd7//7kMwYJASbLIM1GEcaSefuXRzY3vfNcY9s6ZO0jzgPdVqrJM5DMESYVFW/RlUun1C+lRVVlgqo6SbKq/MXaJ0pFIMpi9LqEbOJq9Rd05Z4tzrYtZOmPsIPcFaGoazUoa5b+InciiQtQ7I4+gvpTB67UKBXnZxHbzAwSP752FuKQBl4bhKJ8xBuBkePFd+EUlJahaqwMyw0uVoq9OZQyC3PepYeW0Cfi2p8dLKDqKjV1JelsYrkpWiHrcdOtgHL8z0lRBLWpOVaWY1dL278fiCzlw4HnAva9A4WnU5qydLyOUhz1fge5GrieTa3ODlx9fLtaqvKWo0c1uuXwW3rH5UMLZWDTg4unDUWkLi1LUmOipz71IICovNwvTO/72bfyVqQkKcqYpeuPgzzhLjeGiF12O/rk6K7nPV6c+5TPGgQEirVKBeHa+/UY3Ka51SvnPvRPt/Gto6NmA56kUZeGMgI0OpSZj7RkU9d4Q65uyoqgxU8tNLIVscSPFk+1IHsLcMHi62fAqpKRLhZkJ3dnsW7DLZClXImVu7Fj8x4APHJUJOC7PEGPIA1lYZMlTvRHajXIwITyThmSSjTEzjS7QiSbKsTPbnoRyTawdOwqEZJxQWUJKQuRFnZFliqGCeserCRjd7CSMhAJKKtoEN+6em9RORBtpSjj9VPg6ywd2HnHztKBvtVfeF2KODfZyEUs5x22Gt5WUneKBH2Sp6NJD4T3eV+MvXCsdAwDlnhnstyap6HAkYrjQ1DJI0tyJ6sZIw1YFTrwwwdEmNSujeaG8KJSH1JIQp0oykgoIZiyfCkZS8ZPKSmJ3LP0QAC3uIV5a0nVikTd1P+MOPTbp2la9yQG+/UC0wcvvlirVB+EsnQuyW19uW7x64/8xcl8fGyZhs4fTpNcIKS3Cq5Xm6xAaTYoa0ZZEWoxkjwiSdOrhWsnFW+Ra19cPz0WuGmcrFj4FY6TxlDwlehkrW2OLCl2q14P+RaW1+dR1U7SoosMTFiGeSjIhLValIsMEtdf+xROExOZZFhEqKNIe3mEjwGxpNdcGfMgheJxHFmoj6xYM7JeXHn9gSJSvkGSsiIoRVbtv715kM2RCyy7Tu9787rlayY46JjeQ0W7a7Ywjk2PVX4SjsqC9Wm3kGg7LMrCeSbCpXur4zMd73YlzU4OWHmejj0oHolEKzxoyEuFi5VavXV2/3eEB0gAguKb0rVsQyWWamJx30NEVpI7tfNC61TZi8ZAQpSDWlLXQKmJNkCkjZGzdtv/9LO08mM2aY1WrDuYz9s7CDBZ9g7OgTmLu+x/Q9585Q9P1ZRv3CtioDIewgKUpBOm4nmsRxaesKkbCCVtSPkxL3GHEjsUwSly6LAUCxbqwoVVXrHnYm3/XEcszXfjKkWfrVkTOxu+LsTezdMpC1DtLNV2yLAkpypZlh5Z6rT4Im02jEQULVcGa2a4uOI7jyJrE2SYL8fnfC6jZBuiAGWd0lItM5BRuxmJQwknSw80VD+Ims1co7j1NzOwwK+ChQTLqP1b3JUs1Zh8spQeAXl473Waofa58Q7iPSB0LAweWbYTpSJfImFp/VJ8lnRbPety8yL4vuW5GWBlQFzFe8nqVL+Ve1/9Jneo//qm55GUSWOm+lTZwcV7qEHCFBFih3Xpv0djoMQpCCGQ9e+gVIfEE0CU9D8pQgGcQxiXjHLi72wuCcUhuNChztSUqYVE4Kj3px55zlFa2ZHrunmr8G59AAEmyz4wid29hPTSh0fNffO+WXXljaMNaxUkw7DgUdE4Fj6qlbRRd0fxsUiEsjlVXZrXJ1kuSGpRJquns4tSiaIXJFW0D4gWMbVI+bEutXiRG1ctwjI7NlBbV0vz0wfnuxVNlD34nTfoNVL5kzxASSSWJuJamXAzceFkB4nbb39MbGyg+GOFxIbc2KSYIx8tSC+WTulZqHnEOyOQpHMgX0cZtfR6zYCcuOLaQ7CSr5Gk3LEVZsb6xOnv4OU0F5CP/Fz7vHWNcXa15DrctPQxSWDeHMrDeBy/+Rgp7dHZTd+es+O79ds/T7gRGfukru479bfXvs37W47dk00U5E6lMhJp5QIHxIoL70lNKkV5mbpeGIFmmh5sXNKeJeuexBEAqD8XdF8bSNAidaW2NJUGVeBhZahobUaSVWv1ykn7nba/Nv6MTwJ1+/JgdhoCQVupdtqF9vcD13/wr5MWffDA4tJjvwAAIABJREFUHZWxNaMrY60ihvZZmWwSSTtYYKhWUIpVexvJtPmcIf+h4mnyX9KKUG5CtXV0EOlwA/oHKiTL9oN7bjK1mKsyhyLehp1irGpEHdvWE018K4gSSpQVpCwhm6TigJ2UZqPaRlLwMai2slb857kPxcuvrhDNTagCMcoklqqMo7N7kx5KyLrPWG3QUYXmqQECwHb4MePFYUfXQMQdsWYq8G+3GDdzl8vr80p+Oj3keBaY1yrN/2QH2RWQZfuDEs1wwetk+cn2a1u2zP2sWd/q7hwnpZKZrl4F/+8tuccLSZxcp3iAoFnzLEuVXEUPb152bHvcsiORSPVOVS5XqcuLH7LwyXtiSHeuegxAtSYk8WCB4lgmPUDiocfKROBOh+4vHnSWrTE+2fuYr18QGnkK0pt56+sIFHGV6uvQBuf6Whbcf1DDksdn685CiGm3YSFIQmYN4yOZs/aYUefxdixqikA6XH2d3XWdXahbWOAKY3+bxDSDfAsWxuD8uFrheNWDBG3yVXmdiG9Jmwv/lteKhRarM6nwEDFqTq3YgGjXXb99EQXxKLdshaZuBGo+yIqVLkCKUcK6MQ3E0lD351BdI5KuLKcRxJgStYOE+MblR6On5CcQB89LmbkOy2tz91wXfDvFYWng3XCBd/1M4Wm28vlOVSBkRXcZ4iaJX9v8tfHLkry4qWc5y3kpvInpYWSTY3dOjqKHQPURtacaW5d9ZGkQPdwgzikS0NatFrtNOWO6tst5r2/z0PkDJYVAkFeqkgIyqINd/dY/J1gNL822U2/VRvR1cCXheRmLQEYLY2GGHBgUXDZdRIJ6NUEcl/+A4Gde+v07FVlqyLq04UqVsnZIFNFQ8K5hgf34o3px713voL0U9s9HpRwdWfcmummQOhsJflONaywRhwcA7bmikJWL2+IL535GjBlfhsgyykYM9G+kHpHFtMyDOCW9NCayYg2tAtqyVRvH7HvF5MSIo1f30qn5NEVAgMmyCKD31imzK/8zed7bf3kkLFaMjhstsCqpAwUWb7gMLXI3UYd6WDPK6cTbjiHgkWZ7kkmHm5OqPhzqjgGPYTw6AO3L0PXCqBMP3z9bvPPqBliYEBuIkBg5XLdkVZJEHCyaCNprpdKNsgUauQv3nBoWnz9rBgxYeg19KKFHy0S5Y7O2I58msszD0rScgaKxYcDSsXufc1LtpJM/3JFj8meDiwCTZXDnZodG5rqrat94+Kez48aCCQnEtiKmSqcntRKl+YnaP+kypKxBJsvtBrtTzNNz2xZmDZMblkoqodNKlqKpl6M7C8V90fMRFuayBSnx+EMviIZGCN2FYyKLRsrU5stCFmwWflq8JMqrhPjs56eKCXsMQauvT0RFVRgC7o3QPyXNVl+BZ7uvgD+4nQiQqz2Hh85IpEZk2spEQ0v1h5858RuHaJUHbNLweztPwR8LEAJMlgGajJ4aCsgwMu/Zb78ccpZMM9x1WHzRIBe1ZQ5qAUmw2oCkmknZg9TtgQiU6s5423YEChNmuiTK+BYfJftSD0kqFSGB8UwaNXxmAmLkqLE0y6HgEwF5amLOG/OQ+LMc1iV6RYL/mtFAetAQIfadXif23GukqK4j+78VOrP4b1szWnZFJblmMqgnZDfsts9dD3yCHjHTeAiKogWbhnZftg1FJnPye6OOueIgTavDDPLWlxBgsuxLs4lrofZay16/+ZFc48snJ0L1SApUdZR5ECJJp5E1GdaiyBnxWxeRQgyT5XbdBpsly8KSDdX9w4Y1L3tiyuQd0noIyXrJtlZYjijVsXOo6zOgRWqBJanujywWlInEE0gicZuQCUtuWDR5zsGVDiZVra4MkUL/0Egkvl1D5w/tOAKU7exQw2m0Pouh2bkBPdmstYuwwuOe3PXIW06Bpm+HKPKOn46PUGQEmCyLPAE9ffpVb//sooa1L/6uTKxBey2kW8ouEUoWDJFKmVJPGbAGLBvZVgt6ZTuekdjTV1Eix+sGWZIIumxyjGxXakFFbbyo5RX1WSTOozpM2U5KQ7suSKu56K1ooJxHttVCCyxXz4my8ohobtmIPo1w06K1lm07yKCFbimSgmSrK3ajF+mGQWVnRBfJZKuMM+vIXk6n8TsyDonM0785asb37izSwPi0OwEBJsudAGqxDumufG7cogV/mmc6i42w2wjPK4lFU/cLSJKhd6GN5B4UMWBtpeIGqq2kRr1Up1esEZf4eQtik+2i8XRJRF7+e1RiADIMh5F9DOKk2lZqnp1B/0vS4HURm/T7gpJqj4WaHtKOCYfR+YL6SMJ929TUIKqqquRx6LV4nJobZ6Rb129HVeJIlujwIbiOBxpyiWfxMKThASiKGHJjE2ox4/vma4YdNrV80tmc8FOis9t12LxM9pGJhIURm/fsxR9FxXujyuOtItnQIsrjyLCE1JqUZZPF355Yt6/1Ka+9yKIApY4/kWJXmb8uZNnRGkra+EpZxtPW1WQ/xq5fQxL+9rfOakmd4VJzypZlcW4i2enEmygp6E6udppfNwYSHSKy7uglux307X20qsmNxRkhn7UnEWCy7Ek0i3is5S9f82sr9d43jdxCZFm2ivJYjWhuTSOmRc2EfUUTkvSivpRQLpFNcklzk+v0dmzaugoxFGYW0wqqZNaU7B/xIhElJeWocJZG77cTbod6TWdpQf+hputImSh3bO527NOSLL3m0xbptFOIQ84raeZCEs8ejk4+e9056cSbv7ljZ+JPBwEBJssgzMIOjmH93L8fv2rp356sjq4TZr5NxNBqyECXhKwFSS9P2kvT0rLHHy3esjUihKOV8ovf9WEHB9EvP96h4NNhoXeRfpPuWOqK4Qt5e1Zlu8i337GDACwUOPAA7RqP7KSmw16Bot52mAtNPmx6jayl9KMiTXoosiFAYTnjRMXAQ44ZtM+lzxV1rHzyHUaAyXKHISzuAVz3ldiHz/zz/YrYvDFOZpmsnjSh9dqWskQ0Rs1rqb6SsjH9DgxKj5W0S32ZNFbw2d45LCTLjhZQHW5ZaTsqHV1pYXqEKBfTgo4Ym5y+wDpt7/bRWatVfYTJcntnrkc+5z8I0SxLoXc/5EHzmwZ1RnArDIVi1viFux511xTErNM9cl4+SFEQYLIsCuw9d9LFs675qZP+4Achcz3qJ5sg1u2ibi+NejwIdEttHiU0LdtryUU6K0nSgZuIWhQRkbKCz/bOB/nhKEZV4G71W0QVPJyoRqEoCyl0t3Z6v+vjyiYKqop0/a2TIDq7Yrd39nric6TiQ2EOEmJXj0IkpE+5AeSOJUUmagI+CmrM+90w6djrf9QT5+RjFAcBJsvi4N4jZ3Xd1yrm/PvGJUMqmmuTqQaRKKfsVtRVwt0aNklvFHVg6PiueutSdxFFlupbjXo+csHKhBNW8Nm+CSkkS+qn6HVikV0vqPlwYT9FJcCtNnrfb2m2Obu+UKz+0+x+b954/rZv+nrgU3IGqLsMhTjk90oJ6ctZltrASOmCHF5bctc1k049d5ymHQOFEN5KEQEmy1KcNW/MM/921aO71b53clRbBVcPavTw5UxbTdAfRS1fphVfWQPyaqoFlI1sWGlR4rPSeYd1XrUqYqLc/lugK1l6yTyU5CH7KdKDiW9y0Hueq1Zi7tWr++7Z9oxafzTkvvXinXIR9rNuvWSt9ozmwpjn9l8Jf3J7EKCOJGo+ENiQB9Btrwk1vnPUHDsvW4Ghl6k7UKxcFXro0K8+9rntORN/pvgIMFkWfw62awTJ5bOmLXz7gTl18bnCSi8VodgAshERi0QhO1o5JSDCTW2hhAOFl05kqRrgKver34Jqu4bAH2onLM8N62cW+xmvha5WLxGkw53aVXjdd6f6ST4+WXqlI5uQpS8Ow3HL4t2IHWRJD0WyJyY6y1BCl4OHICJLGy/moYKv6Qh7uCPF8F3Omh6edDq38yrepG33mZkstxu64n5w6dOX/9nIzTvfDK3F42wbfVVl42FVxwdHkO8WKrBmlA2pXEQcp+yp+SsUT/fx7Up8Bdbi5k7bToSbeXNzvSQ7WaH8Fe6pmdzW48hul16hpUH9MukF729EMVXsEtrLpO6TyyJ+6Q4Temz6vaMOv/nL23ou3r/4CPA3rfhzsM0jWLn4gXHJOX/9sCa+OmQbKeEYVLfHGyPACPQmAtKZDjcNNY02kcgjeRIuWSJQlW2OFDrpXSB/QgQ6v3WiJT1STNz7lHHaLmcs6s2x8rl2HAEmyx3HsNeP8NID33xqsLHwuPLQerh5kN0K/VDeGAFGoHcRUJalMiYNWXOpykeIJJHaI3+7ebRogyyhnUfdpagSOX2kWN9a98jBZ/7h1N4dLZ9tRxFgstxRBHv58677VOT1++5aN2pgttLKrkYDZ+i9cteQXp4FPh0joBDw0+P80hF6TSbSEVFKlV9TCemjTZsw0MorOlQsXB7aeMgXrx2hafug0wFvpYIAk2WpzJQ3zvkzL7sxkvvwhxGzFaUhzRDh5jq7EptCHm4fRECj7i9yU2IfPlkaDuKV1M80hJgmhNYbU+g8E98dmQX7/XDC0Vf/tA9C0WcvicmyhKaW6io/fPim5rryDSJrU1IPWj1RRiaXf5TQLPJQ+xoCHUQpc2Kl5J1fpGVq6PqDlmqRCL6t6DDThmbd0bLdRGPDrmKPUy+o1LTpLX0Nj756PUyWJTSzy1/+/elay8P/DjtLhYP2TvSl1CBnxxsjwAgUB4FCopRWpVTw6SBL10Lyj47SEdTc5u2M0MMR0doWhaU5RSQqDz558MGXPl6ckfNZtxUBJsttRayI+899/DtP1ppvHm+6K0ReR5E7+lEyWRZxQvjU/RyBjhItsigVUVJpllekBadPyAiLbC4NciSRdWTKglA1rQZNoqtRVDLxwfEn/r/PQzO2a+uafo5rMC+fyTKY87LJqNzmV2qWvXTPxrCYCw3YDcKIoAUQMuzYBVsiE8jD7IMIEFmSFAjJe0CEgMQIPOF7qY6FjRZYatvlyrZs2CA76aKMRDgxkbbHiDEHfb9aq57a1AfB6XOXxGRZIlO6+KkbLjPzb/0yGlmNPnkboPnqijAI05FfVt4YAUag9xEgWzInLUrqXylF1WVTb7Rbp1ISWUBCYRKqvfSEJl2Sw1NlJhl3uMiHjrt4t6O/8/veHzufcVsRYLLcVsSKtP+aF66YbTXNOciMQYdZT8svouNQTRdruxZpSvi0/R4BnyxRR0ldfDwFLZKSVHWXSjBf1V5SL1lq1RaTrxvoBpR1B4lQ+XH/HXLwdYf1eyhLAAAmyxKYJBrixw9/fmNULK5xw9B0NWxIa6FPJXw9TJYlMoE8zD6IAEUglRu2nSzhbpVkKPWXlS+WvqOQh5X7CSciO/2YIg1FnxrRZk2u3+3EvwxB3JIz9QJ+hzBZBnyCaHjZ+Y9O3rDyT+9pNrJgqYYLbbfoC0cuWCp45o0RYASKgQDIUqr2kLMVLfDwrdTRyID+MmFIyrglWnbZOjVbV2IFtKn34Zp1KkQO4uojdz9zsjbmi+8X4wr4nN1HgMmy+1gVbc/HfnnKS1MmtRyYyy4WsQhUQBCvjERCwrJzECbgB9KiTQyfuN8jIMmSLEuNknvIdszCxQrLESES2XAdliS9l8czrQ2lLQ210dTEIERNoZHkY8O6XLK6YtYhFz5+RL8HM+AAMFkGfILcxheqVr35QGNLdraoqkQHA7QAyiYzIocC51DYhFAzW5YBn0IeXh9GQHOob6VAKZfq+EN9LQ0k/YQQJtEdCBS45XglJMnSgo6zhg5BlG8QzpcJw4qJjOUKy5wgdj3hvjhcsek+DFXJXxqTZcCnsHnOXfs1rHn2Na1sBdyvDcJEP2EDiQRamL6IiFnafl/2gF8ID48R6GsIyCQeZMJiFZUxScQmycVqUHgEYiEaXLCuk8B78AJBltKGjjO106N4pgmy1Bwox4YMkbR3EQN2vXCvsvEnvdfXIOpL18NkGfDZzM69+ZyN65//W2tmlYiEXRGVaepoAWQ4SBBAIgF8P6pDJW+MACPQ6wh4/UZ91R71XaTEH8p+pb98sQJ6nbJjVcsuHUQpNxBs0tpF7Lr7JaebY05/sNfHzyfsNgJMlt2Gqjg7Lnr2nD+Y1rwLXfSsNPF0auSpoSza/YRgVUJGS0fIksmyOHPDZ2UEdhQBnSzL9AAhyo+8c+wh139zR4/Hn995CDBZ7jxse+TIb9x37AcDy1ZPCsfwXGpnRQhak/SEmjfhy/GUtZgsewRqPggj0OsI2LaFpgiDxca2iXOnn3XPlF4fAJ+w2wgwWXYbqt7f0d3wyrD3X7xp1cDyNcikywsrnxZxdDGgXALIMss2QNSlnTdGgBEoTQRchFJcfYhobh3lTjrt5gGatktDaV5J3x81r7QBnuPFL//xBKP5iScSoZUi46SQzJMVMT0CIWYNUlmQ2cJvtioDPIE8NEZgKwhQsp7tVOFBeKyoGXfEEeW7f3kWgxZMBJgsgzkvclQfzbzt1nj+hSsj+grUY0EZBFXOIUpHRw1XHlalZqKDQXvT2QBfCA+NEWAENo8AaqatfBzdSUaLfHTS9SOP+OmPGapgIsBkGcx5oYzXyLIXbrnfSc08OayvpKQ6lIwgTJknWRA8jeIPqE7iNe7uE9Ap5GExAltFQKMvth0WpjtQ2Ikp/x5y2C/O2OqHeIeiIMBkWRTYt35SkGVs+ayrZ+v5V6fpYhVUs6iLAazJHHobmFD/MEyRymZEGL+5TdfW8eQ9GIFAIoDyElOPiXybEOHa/WfXHfq7QwI5Th6UbLfGWwARAFlq7z/01UUV8fm7Gvr6dl1JE24bqS4pOxx4+pPceSSAM8hDYgS2jgDpyZpI2hNpR7S4Y5fudsojeyAnIbX1T/IevY0Ak2VvI97N8xFZfvTvc1cnyhcP1o16ZL4imQc8acgYJZU8K+UQaBOwZdlNTHk3RiBICNBX13F0EdINoeds0WqPWj/2lGdGgCyh08Vb0BBgsgzajHjjAVnqSx45xw5FF4IRG0GOSgMWPQwkadLfTJYBnTweFiPQDQSILF1I4iFPTwqvt1qjxa4n/rVc0+rglOUtaAgwWQZtRnyyXPfUmE9e/dsiN7wQPWOJLEkeiyiygyxpV+pgwBsjwAiUJgLkIaJSsBC+x8ncCDFs7PenRHY/cm5pXk3fHjWTZUDnN/XGnWdsXPb8v/TEKuGYTUjtQVxDkiVpSxJBwtIk7UmOVwZ0BnlYjMDWEbDhHnIhuh4CYaZBlmb1OeePPPgr/7f1T/IevY0Ak2VvI97N8y2578o7y4zFl9rxlSDLFtCjyno1XJAlESR1NCBJAibLbiLKuzECAUSAupbAWwSuFNncSNHYeMjde5973UWwNtllFLDpYrIM2IT4w3n1F+e+OGFk+tBseLmwQm2KLMmyRMs7DRJZiHLI3gasdhfQCeRhMQLdQECHdiWJjJAr1s6PEvM/HPvfI6/8zTGc5NMN8Hp5FybLXga8u6d76rrDFu07JTzGjmxAc9i0zH71LUvZ/oeyYZksuwsn78cIBBYBarlHVdS2PUq8/lr8w8/d8Mg0JsvgTReTZfDmRI5oyaNn5MqMj0MWGsa6mgUhdXqV+lfS10rm0cn9SB+WN0aAEShNBIgoyapEJ3d8l4eIdH7P9NgTr6/jjNjgzSevtMGbE5K605c+e6IdFwtBiyRAgM4E3kwpsqQNjSzpda+kJICXwUNiBBiBrSAgU/VAlq5N3UcGijZ3jDX+mHOrNO2YJIMXLASYLIM1H8pahNTdoqeOS8Xcj4VuhpgsAzhHPCRGoCcQIM8QkaVj2RAeGSDa7NHu7gd8rUarntHUE8fnY/QcAkyWPYdljx3JddeXLX32glYiS5da+LBl2WPY8oEYgSAhYMMNayLJhyxLIsuW/Ggx8cRz4YY9vj5I4+SxkG4ab4FDwHU3Vix99rxmdsMGbmp4QIxAjyKQt21JltQ8iNywRJYTDrtwiFY2Y22PnogPtsMIMFnuMIQ9fwC3aW710td+0BCx5wsNXUXYsux5jPmIjEAQEPAtS0rwsUWtaM6NEpMOvHiEVnso+vLxFiQEmCyDNBveWFx3Zc3ymZdsjDoLOMEngPPDQ2IEegoBP2ZJbljLrZFkuceh547Rqk5c0lPn4OP0DAJMlj2DY48epWndnDH1c65ZlNAWoZwSarAcs+xRfPlgjEBQELAgSEBuWFk6Qtmw9hgx/rhLajXtgIagjJHHoRBgsgzgnZBe88KoVW//bGm5sYQtywDODw+JEegpBGSHPU+UIO9Ui6QzVkw44RtMlj0FcA8eh8myB8HsqUOlNv53l9Wv37KiTF/MZNlToPJxGIEAIrB5sry4RtMObgzgcPv1kJgsAzj9TJYBnBQeEiOwExBQwpX0o4mcXSVS7jix+/GXQ5Rgn+adcDo+5A4gwGS5A+DtrI+6yTlDlvzvutVUOsJ1ljsLZT4uI1B8BDZPlhdXaNpBrcUfHY+gEAEmywDeD27ry3VLXrppHYkScIJPACeIh8QI9BACXckyo41zdzv2qyDLGW09dAo+TA8hwGTZQ0D25GFc95Wapc/eJEtHmCx7Elk+FiMQLASozpLk7nw3bFbs7ow77lvlcMOmgjVSHg2TZQDvAbdpNkQJbmFRggDODQ+JEehJBHxRAlLwoZhlVuxmjzvuEpDlAemePA8fa8cRYLLccQx7/Ahuw5zKpW/8uIkUfKjns0PfJK+HpXBDQsefmsh7XUcoPYCnsccngQ/ICOx0BEi1B70sUWdpuKbIWJXCEmPtscf9pEzTRmd2+un5BNuEAK+y2wRX7+zsuvXl8x8/t6UmshxfnqxwdAt9LKmDJaTvREwOwhRp1GdRiy6Te1r2zrTwWRiBHkYAVGlQqz1D5PIhYZpDRSY92Bp34hVxuGHxNMxbkBBgsgzSbHhjUV1HLm6NuwvQ9BmhCzR/JmuSiDEnEtKiDLsgS1Cp64aZLAM4hzwkRmDrCNgi78KApM5CbjmcR3VCd0blR53w5wgaQqvu7rwFBgEmy8BMRcdAiCwXPX5pc5lYoLvhNGSw8vgSKbK0tJh0yLaTJVuWAZxBHhIj0B0E4II1LHyf4R3SEyKbqRFmflx65Cl/iHfn07xP7yLAZNm7eHfrbNT8+Y3/O/7jkdUbh7tmEl+kLKxIcrkasCVBlnjoDJEblixLCmpyzLJbuPJOjECwEFC5CBZ+mWaZSKVqROO6QSv2vfBfI4M1Th4NIcBkGcD7AGRpPHHzge9+ZoK+hxZuQcwyCzesA5esDnqMFJAlESgn+ARwCnlIjEC3EHAsGxrqKB0xoyKfHyTmfVj53gnff3ivbn2Yd+pVBJgsexXu7p0MZBl67OYZz0+fGDpYMxqRBJCUT6A2YhuWFiLlZdiYZFkyWXYPUd6LEQgmAoYGF6yDZVjXELccId55q+q/J11932HBHG3/HhWTZUDn/80/nf/XMXXNX7TcT/BFakMSjyJLG2TptpMlu2EDOn08LEZg6wi4OvxCBvbD99rJItN9tFi0aOzjh3/zN2ciwYfrLLeOYK/uwWTZq3B3/2QfP3jFz2LOgqsikXohjBa4YB24X3WZDEBWpo7vkrIsOWbZfVR5T0YgQAiALDXUVxr4XuctJPKJsWJD0wG/3eucay8DWXLpSICmiobCZBmwCfGHs/LpG79lZufeYegrQZZNwkKhpU2zhS8XlY5IspR1lmGexoDOIQ+LEfhUBCRZ0g9luudhXY4VSfuk740/+ZLbuHQkePcOk2Xw5kSOaMPs352aqf/vQ2FzOciyQeRNRZb0JErJPpqWlRYmk2VAJ5CHxQhsDQHPDYscBZSG5UUG7bmM6Dnn7nLkF/+2tY/y+72PAJNl72PerTO6Kx+dvOrtf79nGgtRi7VR5BDaILI0HAMRDpAlyd0xWXYLS96JEQgsAmRZYnAmMmJT9hhRvcul+1dOOf61wI63Hw+MyTKgk++6L5Uvf+KPLWFtHr5JRJawIhHbMG0DOpLkPyfLUgkVuOhawBsjwAiUKAIO+Ydios0eLUad8P1aiKg3lOiV9Olh8yob0OmFa0Zb8MiXnERkPizLemlZElmGrBDI0sEPNCW9chImy4BOIg+LEdgKAiQwghQEEbLjojk7Uow79THownImbBBvHCbLIM4KWYwgy/f+efaamqolgzSQZZ4yzOGAJbI0wZMkT0CZATasSnhweGMEGIESQ0ASJb7XTh4FJPmoaM6M3Djh9MeGgixzJXYp/WK4vMwGdJqJLN++/4vLaysW7aKbyrKEOoGI5MMCuT6wLIksIZUFAR8my4BOIg+LEfgUBIgsbcpsR9s9M1smWtKjPhn/+QfGgCxVjIW3QCHAZBmo6eg8mA8eu3BhIvTRWNNYJ0mRWNF0KG5JxczU55LimPQT4IvgoTECjMBmEaCGCDbCKaYeFSGnQjTlRi3b7aT7dmeyDOYNw8tsMOdFjmref78xN5r8YM+oqIeYeg6kaMu6LErvUWIEtOErR0EP3hgBRqDkECC5OwcPv5pRIVrdMQvGHf3XKUyWwZxGJstgzosc1YLXvjc73PDWQXF3HQgxA0F1NIvFjJF4uoO+I/Tbd8cG+DJ4aIwAI7AZBEiMgOTusohQ6uEq4SSmvjXioN8eyGQZzNuFyTKY8yJHteLtGx6z1/7vpLi7BkRJMUoiSyWejnxYjyzZsgzwFPLQGIEtIkBkSZZlBv2fRaRaRKv3e65u31+czGQZzJuGyTKY8yJHtfjNn96n1c/6QkysAVGCLEmEAN8wsi4lWZJIAcpIeGMEGIHSQ4DIMmSEhWWZIqtVCaNin0eG7//zs7l0JJhzyWQZzHmRo5r32k+/G2qcdVtcoPOIjEvSj0+WqmSEBAp4YwQYgdJDgMjSzkONS68QbfkKYVfsfcPEGb+4iUtHgjmXTJbBnBc5qnf/e/uZZcnn/hnXVqhReoRJ1iW1wKNN51Sy4cSeAAAgAElEQVTYAM8gD40R+HQETCTqaaEa0ZobKMrrDj2+bu/Ln2bMgokAk2Uw50WOqmnhg3vXL/rjW3FtmTdK0oSlChJq10UKPkSWKjuWN0aAEShBBCzUSmvV6DYyWkzY/8wJ2oDT55fgVfSLIfMqG+BpdhvmVH782g1NcX2pTOkhNyz1sFSxS1tal0yWAZ5AHhojsBUEQpDwSeUqRdqYJHY/9h6WugvwHcNkGeDJgYqP8fp9x9QPq62vpi4jBtyvuUxWxOIR0GVO5HI5YRghtiwDPIc8NEbg0xDQ0Z4r6w4Sq5pGNBx01n21jFZwEWCyDO7cyJG99Ndj3x1WvX6KGbaEiWyebCotwiFo36GUhPrgUaUWu2EDPok8PEZgCwiQimXaGSKWNuz61uHn/HkfBiq4CDBZBndu5MjmPnr+owl94cmhUJswTUtYWUsYxI8Caj46MmOZLAM+gzw8RmDLCCjLchexwd7/gX1O/OnnGavgIsBkGdy5kSNb9+r112eaX/mR7a4WYQNSH8jrMXREMNFZXW74N2+MACNQogg4jshrY0Rk0FlXDZl6wW0lehX9YthMlgGf5rYP7jx/w8pn/2y7y0TITAvDMYSOtlyOQyIFRJY8hQGfQh4eI7BlBECWWX2sGDbxitMiuxz9MEMVXAR4pQ3u3MiRZT66+6hVi558zoisQHeCVqFDdFn2fUb5iGFQbiyrEgR8Cnl4jMAWEEA/S3x90+5YMWTClQfGRx3xCkMVXASYLIM7N3Jk7sL7Jy768P4PQ3GUj2iNwrAhoE7Nn6UKM6n4sNxdwKeQh8cIbJEs0W9EtDm7iuF7XT86NmT/ZQxVcBFgsgzu3CiybHlhwJIX/1ZvRN7HX+tFWAvLTgUO3DfkitVUtg9vjAAjUEQE6NlVJtu1P7wWenyoVVDB99Tbhz4j3LAky3HHP8Y1lkWcv+6cmsmyOygVcR+Uh8SWPPrdpBZ9Q7PspaIqViGsHDJhqcs6RNShI1nE0fGpGYH+jYAmy7fAka7qAiQ9PVJhy0vAk++i96yLemjX9MRF8JBLmXp4zc6UCTsySYw87l6kIkj65C2gCPBKG9CJKRzWU7ed/d7ue6ydHI2vFVYyI+McuqkjEZayYvn7VQJTyEPskwiAHv2vn4PwiOaTpaXIkohTWpQgSyeC3/jO0v7oIKRpWbwWE05mgFiyrvyNQy56Yr8+CVEfuigmyxKYzPf/cd2NVYPf+qGVnSdb+oAnRTadFpFIBNYlk2UJTCEPsU8i0EGWLlmO7ZblpmSpE1n6rlgt55FlAi1qR4j1rcOvnHLW3T/vkxD1oYtisiyByXTrnx6//J3fzk+1vitqa2rwRJoT+WxWihIgaEmPqiVwFTxERqCvIaCyWeVWSJbIUXd0csNS8h2ebOGi1eGCVWpb9HUFWUK+0nXKsctYMXTqV0dpQ09Y3tfQ6WvXw6tsCcyo675e+/5D12yoqqjHlysvbCsjyuIhkQNhMlmWwATyEPsoAgVkSc3YfTKUZEn1XU5HowNJlvRYSwSK90CYtlMjGjYMSk7+4l8GadrgZB8Fqc9cFpNlCUyl675W8dFjNy+uLt8wIJ3aCG1YF6Lq0IZFRiyTZQlMIA+xjyJQEAKB9dhuORJN4vtJZqeKaXZkwyqyJI8QpCudASKT2XPJuM/+aQI3fA7+LcJkGfw5IsH0xPLnv/6mnf1wgmEmQZZ5kU+3QtHHZG3YEpg/HmJfRUCRpWzELpuwK+uRNh2Z6h1lJB3Xr9y2RJboG+QMEuHYjDlDDj3tAE3bpzB9tq8CVtLXxWRZAtMHsgyt+N/3nrXa3poRiyXxNFovIuhAQhqxttQk4GksgWnkIfZBBBw/aCnJkmKSKi6pLMquhFnotkWSnjNchCqOfXrYgd87CZal6ubOW2AR4FU2sFPTeWCv/+uSn9VVrrnKtpfDsmwFUWp4OLVhddIU8jSWyDTyMPsYAl3JUjVj79gsKydCYcQzvZpoqou2LNRJC+QcuCNFq3vQ9VNOuPbHfQyWPnk5vMqWyLQ2vXf34fWfvPh8yFgMomxAkg+aQeMrp+sUK+GNEWAEioFAZ7Iki9K3Lv9/e18CJldVpv3drbZes6ezJ4QQFsMuWwICIsvgoOOIqIjLL/KLzAzOqOjMP64zivqM4/wyyDgiizKjgAMqbuxLwKDsSJCsHQLZu9NbbXed9zvnVnenCSHprq7qqvouT6iku+rec95z6r73296PX0Ny0Hs2Ip88r6hUtwwDoRPDIcdIUTacT86096yYf9z7VlZj7HLNA0NAyPLA8Krau6OdK1ueeeDavkltnZSwu8hzfXwRWSdWvDdVWxS5cMMjUFJmhhzBkIdnkDARnYSQc4BSrwh+WRYRMQhylVaayE/S7kIHHX7BZ9sM48S+hgeyBgAQsqyBRSoN8ZGb3vvszMmdy9KpXeR7AZpBJ5BwJ2RZQ0soQ60zBPYkS55cfEuNS0XYumSytJM6GS/wue4yDVERk3rcWU8dd+HPToBrNu63V2fg1Nl0hCxraEFX3/W5G1ucVR90rC3k+pGKV9oqZCmdR2poGWWo9YTAoCqPrqs01L+5VCSuq0SUxA+KZCFu6QfQc/bxgGs2odSyBQp4S69deOa/XyGasLWxIYQsa2Od1Ch3Pnntx9zun/6HiUbQASXxpcMXE7FLIcsaWkQZav0gMOhu5azX4WTJU9S5BEGEekp4fxIJm1yPu89m0Ie2DQ+5k6ml45SPtR7x2f+sH0DqeyZCljW0vr0v3H7CzvXfWpUwNuPBNQOytMnCl1HIsoYWUYZaPwiALLUlycbksIdW9TNNlqxGGcSJPoUihESoGc+3GYr8Fpq96JyTM8s++bv6AaS+ZyJkWUPrG73y+JTNT395V8Z+mSB0B3VJH5mxkNRSqiByCAKCQEURKJElwiCGEiFAaGSw0whnwTJRorwL30/LghqsG1LKbqNi0A71njl00GkfmGG0nL2jomOWi40aASHLUUNXnQ/+4ZqzX14wozA3m+gmK8098QIhy+oshVxVEFCWJesSWPy8CqIMoAkbolWX6lWJu6vpmFR00SEIccwUSkaswKL+wjRas2PB2jMvu+EIkbmrnU0kZFk7a6VG+sx/fuQni6b3XzjgbKIw0Q+u9Aflm2tsKjJcQaAuEIBzh5wACT0sYWfBlmQvLMiSs189swiLskgtdooyRpKKvf1ktxxBz2055OYzPvKtD9YFAA0yCSHLGlto74n/OH3Xy/ffH2Y64YbdCUF1tP+psTnIcAWBekEgbsJFNpMll4nAsgyg0kNRAn+H+zWhE3+CfrhgzQQlkWeQ9edR68GXLW9desGj9YJDI8xDyLLGVjmKnnBe/PHX+5vaNibtRI/q9iNydzW2iDLcukBA9Q/BHZTdsHaoH1lDECRnEUQQVefOI27YRy1NTeQO4CdRElmwCdraOzl35Hvua4cLVsTTa2gnCFnW0GLxUCGqbm2+96oXw/Dhg61oC5n48glZ1tgiynDrAgHVmVIrpsMNy+KTqp9IHLMEYZou+caAsixNr4nSqclUyME523Lk6jmnXr9MxNNraxsIWdbWeqnRdq786v1B/69OTxgvC1nW4PrJkOsDAdaF9TlgicMGWZZ0YVXLLj5gODopj4qohQ7yFhogTIOaTzsl2o/7VceJ3/iz+kChcWYhZFmDa7121bWfCHfdds205p2UL3IRiRyCgCBQaQQ0WbJSnRmTJccttYA6N3dmsix4WUpnkirhJ19oRtnIPEo0n/Dhxad//sZKj1euNzYEhCzHhl9VPo24ZUfnPf+0xSysJjvBQROps6zKQshFGxoBJsuAyRLlI1aIshAVt8QfJfWK+kr8DuWV5KFNl4VG7cVwKsjycDrk3M/MNIw3bW9o8Gpw8kKWNbhoPORHbjjzhQXTdh9m2rAsDbdGZyHDFgRqF4ESWbL71QocJPrYKtmHyTJCyQhbmBZacRn4Ya6IxiLJBfSnTXOfO+ejtx9Zu7Nu3JELWdbo2m984MrrmqO1lxXczYhb5mt0FjJsQaB2EWCyjECMLExgwrI0QxtxSyZLlwKrqBJ+DD+l+limWhOU82eRnzr3uwtO+bvLa3fWjTtyIcsaXfv+1d+7aPu6u/474WyB5F1vjc5Chi0I1DICELJDCIQJ0kBM0oAbVheQ+Ios+UiELXDDopzEimggmk/TDrr84slLL7illmfdqGMXsqzRlY96Vx28+v5r1jSl1pNj7qrRWciwBYFaR0CXjhhccImD45ZMoCFbliyDF6DRM+orkRdLWVpES47/0hJj+mFra33WjTh+IcsaXXXUWzrP/vxvcm2JZ+yEubVGZyHDFgRqGwHddQStt9CiS7eWhYA6/hKYWm/ACRPku1CGTcyk7vwcOuIdP3Ck2XNtrrmQZW2umxr1ugeu/rZZuPtvkubmGp6FDF0QqFEEhnUdKSX0GCDHCHJ3Hnyz3A0ogf/7bgvE1OdQYtJx35z7li98pkZn2/DDFrKs4S0Q9T86ff3KL25Pm501PAsZuiBQowgosrRVkk9ocZIdCBKJPsiBRf0ll5CgI1BQIMfooGJ+CS0443K05DpFWnLV6HILWdbowvGw4Yo11/32nZ2ZaP1cXQSNL63KXUe1l37BoZe4VInJTiN+SxxiqeHZy9AFgSojoFywLESA756Zw3ePv2gpfLfiDrMgSwddSIqFyRQGJ2w+6Px/Xywtuaq8ZmO4vJDlGMCbCB995aErHrMKL5xkUh+5QR8FSZ9s9NAL8kUIN7NeJVoFKbeQHi03QdBkyWLPzJwiaDAR1lHGUHsIxEJ3iiwt1Y4dLldqUhOxI13/HEKMwA3mQmD91N8ddOaXTwFZDj7G1t6MG3vEQpY1vv4v3/8Pf5/revyfm9LdSL3rJd/hPHbUfnkBZZwkBWDJEGTpsldIkSWrjXACAicl1PjkZfiCQBUR0F1H2BUbghw5oWcYWSL3lf05RdBoLphPbdPfddXs4z/xjSoOVy49RgTkdjlGAKv98WjXrbPXrbrjlVankwyrB10ObOhRFmAw5imBp1oDhdJsWbqo8+L09oSPn8XZe5GyKq1qT0GuLwjULALcjoudrkak1AjgreEuQPg3ikX4excZTdTnzaGFh//VovSCszfW7ERl4HFAS4CoaQSe/9llf8iETx3nWF1kOc0qbskyeAaediOksnMsJVCPRXDKokmtcsOyHBeTJRIUpMVXTS+/DL6KCHDpiG7LpfMEVPmICnOgCTQl4YJthR7solWHvv2fTjeMhYUqDlUuPUYExLIcI4AT4eNbHvvXz4X9v/5qInwF39omECNcrIk8ueh44JjIzsMqx6XTcMHqJ18yOXsPAUwUTAtZToRVlDHUGgJMiqX4P3t0+HuVDDjRjruRwLaMWvDQOp+izGGfm3/yP19da/OT8e6JgJBlHeyIHc/cujy39YePpPyXEa5EUbQNl2vaR5eD/J6uAw5SRlz5xWTJMRV+BHbwKq7YOtgGMoUKIzCcLF00YefvVTLUAuquaYEsp1LenU8ds05fMfm4y1ZWeHhyuTIjIGRZZkCrcboo2tbUec9VA83BBrK8IvlRjrxkQC4y8mx8aXUrBOZGTZbsftXi6+yGZUtTtkE11k2uWdsIKDk7xCpVhNLUHhtNlgSydKgQdSCH4Gha+uZLJhmTju6p7dnK6OUuWSd74Pe3XfK9acbmS1sS/cpqdJEV6yNuwgd/qePKEXydOeFHJyAoC1NilnWyA2QalUZgOFn6pnbDlrJiPSNJ+XAeDbhH/9uxF3z1ykqPTa5XfgSELMuPaVXOGHX9du76B7/3cntqMxlmF+WRiYeCS7QH4hZC/ATMw0L9JRuXiixL4gWyBaqyYHLRmkdAxSsDSNol0H7LLZBloYwEhGla+HfBpsA5lA4+5Wqo9iwW1Z6aX23xv9XBEuopQM3H2vDry9eloycWWMYO8i0HxMixSE5rR21lnIwQor5SqfxAsEDTp4gS1M0mkIlUHAF8s1RzZ89nssSDJ75zYZQmP2yDZXnQxqXn3cSqPfIlq/jKlP+CYlaUH9OqnXHTI9+4N+y588yk/SpKQxwkGLD/FQ1pMSLH1/VggYVyEkWhnAXL6e74Hst3uWprJheuYQS4bAQ5AVyixYo9gapfTqFUpJlsC6o9TUf/esHyL59XwzOUoQ9DQMiyjrZD14u3nbxz7fcebU1uBiGizouTD/BlNvGldli5J9JNaVl1hGvAuC+CAYEusS7raBPIVCqGAAsShEpS0qeM5VLgu1TgllzGNNDmElp87EVHGTPe/mzFBiQXGlcEhCzHFd7Kn3ztb96/OW2snWNE/YhdonxEyXGZlIRlyWTJYgTgzWFkqb7ylR+oXFEQqHEE+JsTsGJP6FKzCb0B5AfkuUWXs4By4ZGdS8/59sIan6IMXyzL+t0DW1Zd9bVC16rPJq1dSDTwCMJ3MVna5EQQdlZkGRJn63EmrEpIELKs3w0hMxs3BDizPLTgoUG5VjoaQIcRk1yQp2cuprD5bV+cf9InvzRuF5cTVxwBsSwrDvn4XtDbcN2pLz1560OTW7oQi+ynImKXbFmmPRupCC5+ViQPSupMlkyTFmKWpbKS8R2ZnF0QqC8EAkWWaQpBlpmwn1K2CSEQm3rdhbTg6KvenJj31j/U14wbezZClnW2/lH0hPP7W/5505yp2zqicAd5DmvBDrlhKbYsfSiOQOdnjxrMOoNCpiMIjCsCTJZI7VFlWE1hgZJ4MO3PWrQ1O2vj8Rf/9hBkwXIrEjnqBAEhyzpZyOHTWH33V/4xk1/55eb0LhqAI5brKrmPpalilixUMCRGIG266nADyJRGj4Bq6LyPY1jmONcsBxZKsCC+3IK+sV4Of4LpZE876bJZKz7/vdEPQj45EREQspyIqzLGMUVRV+vaOy99xQ7Wt5gtSGc3EUnhps84L3dDYLLkDFk+2LoUwhwj4PLx+kHgAMhS9bNMmJTty1OzkaZ0ci7tHugoLj720oXGglO31g8oMhNGQMiyDvcBBArMnQ9/+snQfe6oQrhV6cBaaNWl2gmpHkIoF1H990CkiFhy3z05BAFB4EAQQFkWaxA4EP9wA2qxm6m3J0NO+/KXZp/xtaPhgmXxZTnqCAG5S9bRYg6fSudDX3t/fveDP2pKbSXLGABRorsIsl+1Fam1YVmMgMlSnpnqdBPItMYRgZgs8f3xfUh8RBmkz82jvH3CR5ee/Y/Xj+OF5dRVQkDIskrAV+Kyj/zw/A3zp21Z6Bi7IIeXHkGW6LsHqhSrshIrIdeYsAiU3K6vq2IVd+x5nQkEQUCOnaHAS9H2nkmbjnnfPYeKVTlhV3tMAxOyHBN8E/vDW5+4+trizl98PGkgfALLMoo7jqgEH5G4m9iLJ6OrDAJjJEtugccPov0DSWqZvuKaGad8869Blvtm2MrMTK5SZgSELMsM6EQ63e61t562e+31D6aNTpAl61iydmWs1jM8kUGIcyItm4ylkgi8Llm+Md8xJYawLG17Kg34s6l9wdlnTj384/dXcvhyrcohIGRZOawrfiUk+tjr7rrYazLXoG4kp6TulFWpNHs4hsni6nDHCllWfG3kghMEgTGRJW6fyPLxaQbl6bBgyblfajOMmdkJMjMZRpkRELIsM6AT7XS7nvzGh/pevu+GRGYb+u4NkOv6eBomSiQnUbFYJBvWppDlRFs1GU/FEHgNWb7WosRDpxoO3Ktkwu1aOkKILPtuRE7ToeSlT7tw/slX3laxccuFKo6AkGXFIa/sBaNdj83esOqG9Ynk88lcbh01pZooleQ09wK1tLWRV8SDsFiWlV0UudrEQeANyJIJkv8wYQZo9ByGCGXAmrQgRmCittJ2JtGW7sm9R531+QXGpKN7Js7EZCTlRkDIstyITsDzPfT9S++ePWftWabxMjXZSXKLPm4AqA/DDUAsywm4YDKkyiHwBmRZsiq5vMo00BvWRBcfNHjmn/thhnKFNurKzb31xIuuv0gSeyq3bNW4kpBlNVCv8DX7V//2iB2v/uD5oPhHak8lyXNzZCccKvpF1GC+cSJDhYcrlxMEKofAfpElrEu0IeBYPx8RipXZwvTCyVSMFtCso969uH3eO9dXbtBypWogIGRZDdSrcM2n7vzww5OSr6ywvC607spT0ctRpgmdR0Ihyyosh1xywiKw5/eBvx/scmWyBD+S5yHgz83UnQSF9hzqD990z2Fnf/1tE3Y6MrCyISBkWTYoJ/aJtj72/y8p9Pz+prS1FW6kLtRcQo0LyT1BwDcH2QYTe/VkdJVDYE+yNNA8nRPi2Jq0LIcsdBbh7wur9vS7M8meesF7F5/y8R9XbnxypWohIHfJaiFf4esixpJ45Lt/+eKcmV2LUukuMtDZPe8OUDLRJGRZ4bWQy01EBPbuYbFth3xPP1SaJnrCmrAoYWHmc0Xqyc9Zd+z7f3iUlItMxPUs/5iELMuP6YQ9445V3//IwM47rnfMTZRK4QYQuvqpWQmpxzeLKE6NVxmyWmydD9aWHX47CeMMWmkcPWGXWwa2HwhwyF7rJWutV1NtctZO5p+YFHAZMgjTQbN0lrbzQg8Pmmk8ZHaQkVx28YzlV9+yH5eRt9QBAkKWdbCI+zsFWJfpP9194daMuaktGNhJrRkk+4AtI75joBMJJzAoDVlla7r4H0QMVEsvZAD6zXgfhNj5VmKiL6Z6Pxp84U4jhLm/KyDvm0gIqG3P+sgYVMDlIfgBUneUZIcZcZMBm6D8CnJMIWLpkOsV8O8BshIzKece0b303H+aJ1blRFrR8R2LkOX44jvhzr7uoStvCnPPXtJm95MZZMnnmwITouHiFbQXwi3LGYL4t2r0DsLk1l4UpnDzSKinbbYqA8tVbb6ELCfcEsuA9hOBElny231FlkyegSJLnSRukhs6sCKbKZfNUlNThkLLo2xhCt614vtLz/nKpft5KXlbHSAgZFkHi3ggU4iiHc3P3XH5jqlN29JufgslUmmQH6xEM26/Fya5oy1OiaJr3BJ0Wz5tdaoWX3jC5mdvJlO+o5jSOfpA4Jf3TjAEjFidp9R9Z+jf2hlrOy2Uz+aorTlBvX0DaGyHh8nEkv4l51w32zCm9U+w6chwxhEBIctxBHeinrrv6X+9ccumOz84ZVKBCvmctioHdWNt3CWSEPXR7ljTyIIw2R0LK5PdtCjEVsQZu2Elk3airrKMa38QCOMHPvaeaGuSPS3sluUgg02hz2GGkBLcQD3RRv2F6dQ+a8V/TD7mC/93f84v76kfBIQs62ct93sm7urfHLN23fefTCY343aQAyEW8FkO4EDOixN3kMxjBi3a/QqiNNm6NLU+tBGwmxbp8yBLMSr3G3J54wREQKWwsesVWz8BnddSsg/+CrcsR+JNskP+R56SSZ9yxSZyjSNp0RHvOcZYcMHTE3BKMqRxREDIchzBncinfuQnl/xmSuurZ6etnXC4wrpUCiXMhrAgOSMWlqUmS45nFpA2z++BY4rJUr1XZ8kKYU7kVZax7QsB3sFMjJwBm/IgZYfXgGuPh5FlGkltDh4gswPdEEw/iDbuWPTLEy6+8XxBtvEQELJsvDXXJJe/b/6zd1+3oTW9HmXW0H9Wbtc4Fhm38SrJe6mYpXLTso4B3LQgy5JKnpBlg26gOpj2a8gS+94DWbIxiS6VqnwkAcUeG4SZ9yIq0gJa9OZPLTBmnbmpDqYvUzhABIQsDxCwenr7Azd/4JG50zuXp2kHpoWbQ5wFq61GpNSr3YFkesWM2pI0Yy1NzoJVpCs7qJ62REPNZaQblifvW4Gqt+QiEgusmcFrMQ8XbWoWvdIz7f5jLvqvsyCYHndQbyi4Gn6ycqtr4C0Q9d972B9/+/UXprZ0UbHQixR5xGjwFF0s5indkqF8Hsk9Dlee8cGZsBCUjpUJSqQp7b0aeAPVwdQNG0lrkK6LEG3gjiI+SkPCEF158FCYwJ5PwidbKLZQ0VgSLFh+yeHGtHNfqoNpyxRGgYCQ5ShAq6eP7Fz5qV8Ve58813J2wXjM4vbgoCsJaiy5dAR5PIHJ9ZdsV3KN5ZD7VSudsOEpD9n1tB8abS4RVHlY/5XQdgtadtjvHva5R06AbwJCDn4+okzrobQjf+htB59/9YWNho/MdwgBIcsG3w19z96wIrv9wYfz7h9wr+ihNKS80okWJDR4lEojVhP0IoYD1xRIlMmSay1507DCiZBlg2+eGp++yn6FgpUBizKE5mvA2eARsr8Ro7dBlEaQRL/XybSzdwodduzlJxsHn/u7Gp+yDH8MCAhZjgG8evnoqhs/cPfUmZ1npVOwLvOwJF3EK30olyRxA7GzSt4uVG7YEWQpVmW9bIGGnAcLEHCQwYBAuof9zdKPXCoFzyzZsCwjZH771EHbeqf/9oT33XxOQ4Ikkx5EQMhSNgNF3U/Me/bRL3W2ZLYbjt9PaRuF2D50Y4sgTocFC6Afq0XAgJZOsec6yyERagFREKhFBLCrURoVIs7gRymV2GPjwdDhxgJI7nH9ydQ9MDs89KT3H52ce8FztThDGXP5EBCyLB+WNX2mlT/96M+nT97x9jC7Di6oAWpNtpJfBCGCODlmGSnBAp0Nq1N+WGC91LGkpqcug29YBGBZ4kEQ+T3YzWkQp43IPGKW6MEVwrLMhzOoNzzyl8f++bfejQzYWA+yYcFq+IkLWTb8FtAARNG2pt/99Motc2buaE1EOyi/u4ua0q0UeDqxJ0Lig1bLZKLk15gsWQJPtfiSQxCoNQQQbkD2awArMkS3HU5uswNXNXYmxO7D5MED85Z88Ehj/vkbam1mMt7yIyB3ufJjWrNnfPWZa67p3XrHJ5xwEzWjjAR3ES1WANNSkWUcozQ4uUe17tI9/4Qsa3bJa37gStQfB4v+61pg/je7QvTP+QbHXpHXHty/kkkxQs9Kfn8S+q8Oais98gO05crMJrv1qPY+fqAAAB0aSURBVG9PP/5rn6x5kGQCZUFAyLIsMNbHSaKB52c8f8/nt81o2UV+AX37UKDNuiVMjKUbjhGy1J2+EfHPRJSgPta+FmfBRMli58rTobSL0V6LpRrRNcfg7jnchzWChjHikHq/8v90i7nSng6Q3e1wjZSHX/o+pZMOdWeT5KeODJeuuGS20Xz6tlrERsZcfgSELMuPaU2fsfeZr39gy5p7b57UjEa3YTeZ6FupXbB8cJsurrXkV7Yo46d2yYqt6TWv1cFrsuR2coitmwMq6cxE/8kSWQ4qUvHDnpokt3pGJxFFlohNKqUeSA+gdITcIiXsBBVdE4+Hs6l17jsvnrbs47fUKjYy7vIjIGRZfkxr+oxRFFmr77pifZv1/PyEsQ3dF0qyd7HgHW48nORjsoXJhAktzb27uWoaBhl8LSDAViJbloP9WBEUYLJk8YyQSZT5kT0jpX6siL0rS5QP3WEnsrhExKWkVUBiT4pcrwOCsIdvnffWSxcbxnHcPUAOQSB+1BIgBIERCHS/dOvynjU3PdKceBWZgsXBTFjtckURN/5vc8M/Fa8UV6xsoCohoFyqHBLQliK/mtw+TsUrWTwDJMlkWYplwuXKsUmOs/PveO9ylxEUFpNjFcnzkQFOR9OceeeclDjsw6uqNCu57ARFQCzLCbow1R7Wpvs/eV/Y+/QZyWQ3nr7z6Magk3n4sJDg44T4F14D3Kwkwafaq9XA148TeXTCWSmxR+9TZVEqskSJiPK5wtoEWepYJh7yEMsM0E0HxiW5hRzKpA4iI/nWn8877SsXNDCiMvXXQUDIUrbGXhHoWX/7cduevf0PLcmNkM3sJpdbXIIYOQ6kydKLyRJuLCkdkV1ULQRKZDl4fU2UpSQeSAvEZBmrTyk3rbZGVSwepSMuHvwMo50K4UJacuRlhxsd562u1nTkuhMXASHLibs2VR/ZrqeuvSq35X+utu3NhLwH1eePvVZMlja3aVC3IbEsq75QDTwA3QUntiTjpDNNlmxV8i91JqwS0yglp6lPcCsu/M4Kqb+IspHM4WQ1nfDZuSd87usNDKdMfR8ICFnK9nhdBJDsk1z3y4tfTZlrpgQ2ch0MV0ndWfhjQldTk6VW+JFDEKgGAvzwpmPnvBl1DF2TJccxS61xeL/qTco/YkENFktnRaoAMc7Amk25aFnX0rMuXmQYJ/ZVYx5yzYmPgNzmJv4aVXWE7vofH79t7e2/D8M1SM/vIdtOqf5/SSeltGOZPYUsq7pEDX1xk90dzJPxnWyQLGNUAiSiOQ465vgsku5TwoFj1s1Bzs5FV512ldTT782nucd85PimWX/2REODKZPfJwJClrJB3hCBzQ/+/R1hfuU7Mold1JfLohtJmhMIIZEXkIWbj/S0fEMI5Q3jhICqpRw8ODN7sNGqKisJ0bwZuq6ooYRDNiigNCRLzc0Z8l3EK9F+q69/MnUsOu/WtqM+9Z5xGqKctk4QELKsk4Ucz2lE+UfnP3f7F34/dVLXdCON+jR0kreQKMEl3kFUELIcT/Dl3PtGQAn788HuV/axgjCVqcmJPDZ6tELbGCGDvMeiBejRmtL1l75nkedNo1x+wfYjln/oBGPWmZsEakFgXwgIWcr+2C8Eos03/8Wrz93203y4Ge7YIiSn8Z/FdAkTUxV9yyEIVAEBtixBkNybcg8PB8iSBQg8N6RMJo0SpzzacLkgT4d297g0dfIi6oVVOf/gCy5MLn3/bVUYuVyyxhAQsqyxBavmcB+74QOPzujYfrJjdyErlm9FsCxDtiyFLKu5Lo187ZJEOgvf6Y44cV5PTJaW5VDRQ3KaXUQJFOfApkGsk8nPz6RNW+xHT7/sv1fATTuUCdTIYMrc94mAkKVskP1GIIq6Wtfc9VfrrWjj1JaWkHp7t6KNFxd5yyEIVAeB4WTJI2ChDFVKEtdTcrySHJ+8qJ+K6KJTdJuoJXMohflFXfPP/zyyX6dI9mt1lq7mripkWXNLVt0Br/vF33+6xdn4ja7872nGTIdy/VxOwp1I5BAEKo9AGBuFujSEVaX4xcArknvwV07qcVIGFaM+Mhxu8NxB2f5ZVMy/6XPLLvzK1ZUfsVyxVhEQsqzVlavSuKPoCWfNnd/9daJ5w5lBsJnS2EF8v1IqPkqrkwfG/SC0aIE+dI/Bwd6DfEOL+2HqjoNyCALlQYBjl0raLhYqMFAUXPQHyEygf6XZQvl8Byh16S+XnnfdhbA6RSi9PLA3xFnkTtUQy1zeSeY33rFgzR9/9lKTsy2RDjspYeapgIa5Jp7cvQCZsjbUUbx+SqKBdMh1cLA8AyQE6Y4PWuDaorwiVd1iSbZheVeoMc7GD2mWYVMQYL9xzBIODiZLzn7lhzdVVWJyL1Z0G2FBH2MWucEhhVnL/nJJZvbZmxsDJZlluRCQu1S5kGyw8+xY/f1Tt6174KHJiTVkBTsRF2qhggtlFDsEWSI7MczHCRcjyVJ3fDDJU7/XBCrbsMG2T1mmq9R4WLVHkSO64SCBh/9DaFJ5ONiq9IMcaoGbKPAmUf/AVJo649wzOpZ/4oGyDEBO0lAIyF2qoZa7vJN9+pdX3pSJnr2kLd1H2YEiNTUnqVjoAlnCXnQyVCwW0TyaWyDxI76l3bCx+7UkP1beEcnZGg2BSLEiHtJMxM5hQYZhBrW//AAGS5M7ihgFyhUsSmaOpVd2tt144kXXf7jRMJL5lgcBIcvy4NiQZ0H8MrP+gesepmLnsZHXTa3NBnmF3brujd2tpiouUdhopRXW69Rd69G3hH1kOnsx1vNsSBBl0qNGQGfC6gcwy0QJE4gzDGBFgizR/hn7Dxo+KGsq+JPgxzj6yYPO++AZov06argb/oNClg2/BcYGQGHDDw9Zs/qeP7WmN1GQf5VaE00gxoB6sruptb0NReFMjSDFkEmRA0ccQ+IW0hzDZJcs25ulAoCxjUU+3VgIDJIlUmBZHJ39rwgCqExYNJLDPkyBQJvQgqsjmHf8hxYbHed2NhZCMttyIiBkWU40G/RcfWtv/PMNq//7Z+2p3ZSCSop+ms/CHYv0fdVwly1IJkqdJQtta/zhbiW6Ce9wdc8GhVCmPRoEOF5p6rKlKPJAlNhLCGTaBqQYwxSFfjvlC7No0eFnX2As/dDPR3MJ+YwgUEJAyFL2QlkQePG+z33H9l66IhGtx82qR3UlyRfQINoa6kyv3LPIjo3gHoug08ltlNgKkASfsixB450Ee8eA+IDyVKCRc4AWcg72lG0kkNCTRpnIHJrW8e7vtJ30wb9uPHBkxuVGQMiy3Ig28PkeuPkDDy7o2HKaEbxMSS67VD0vkba/ByY6dmkYRfUqpSMNvGHGOHUjRGwSZMnuWM9y1QOYqRLImiE6MJV6c4tWHnPR9aeKnN0YgZaPKwSELGUjlA2BaOD5Gc898NX1GWdTU2syS8Vcl8qKdV0IWCeTSLxgwWtUWpoGucUs2ibp2kslaCCHIHCACHDSWNJIUaFQIDOFVDLUVIZw83vBdAr8N+cP/rO/XWgYi7Yf4Gnl7YLAXhGQu5RsjLIi0L/2xsNfXXf3g1Hxxaltzai1DD3Vvd7lQCXXwSk5sogc+M6U5Ym4pTSPLusSNMzJ+MHLxL5iHXRWXIwgUFCI0tTnzt617MSrlhvTlr/UMGDIRMcdASHLcYe48S6w4YFrL87n7r3BidbbqQQsyERIAwVYl3ZK5b9GEC9ogtoPW5ysuiJk2Xh7pDwzZp3FAPFxG14MdBWxZ9CufEc085C3XTT98CtuLc815CyCgEZAyFJ2wrgg4G76wWUbX/zFdRath+wdegn6UO1B3SWLruP+Rkn83Q9AlmwVyC4clzWo/5NC75Vj40gas6mJcsUZNGvRX16ZedNH/63+5y4zrDQCcpuqNOINdL1tj3/rO7u7777CipDwAw0Crr/kpAwmzdAvkKWaRw8XXG8gcGSqY0ZAVeiimbPrZpArNpumzTzpB+3Hf+b/jPnEcgJBYC8ICFnKthg3BBCTTHQ++unbvb5n3p5COQmFA5AfQ7k43GZ5SOE5SST3hKwTK6IE47YIdXzigCA6YLZRd18TTZm+/Ddzll/8TsNYCCkfOQSB8iMgZFl+TOWMwxCIol8ltz/yyP8Ue/9wnhluoWSS6+GI8qyygi72Vgj9WCFL2TOjQCCIWqAQNZN85+D7lpzzD+8wjOkDoziNfEQQ2C8EhCz3CyZ501gQiHaubFmz8qY7k9aGM1KpHnK9XjTihcIKDEquixvShx1ekclCeKWuhPgLa8uyhixeh37D4gZjGVl8Xj7FAevTqqacsUj8yM/vOY99jVBr5upDfWp/x1HCY+iTg+eJ+yHr8akDGccjBsGCEPo3YzziHqZDDzwjr6QmFfc8LfU+HXbN0vyHzVuPn7vV6NFxNnVpvPrnHPt2yAun0u5cx2NHnfWx8432FRAllkMQGD8ExnqrGb+RyZnrCgG4ZK3nf/43D6Ts9StM/xVqzxhUKPbhfohgJkpKggDZjFD2SSSgvoL+hL6HCsxEEslAJRetFl1nclF6suomzWTJf/Z+g94DwGGktCewJboYLui+r/OVfqepnBVk1KFu9qWxDLmVQ7id4zv+npfFmLnzihmwgpEWalDEH5MGzyv+YPwaf1UH56E/E6K2UDXbjofF2KiSCt3MUfUS5dgen7v0YKGSYuLzj0luUK2BJmL1AFN68FH/HnaoNdMPA6XXGLS4RRtroGuN4FLzZiuAi5UFLfBzrp8MuEeqOgfwCtKUjKZSd3bK44e964enQXSAFS7kEATGFQEhy3GFV06+xz0TXUoevuXbv1k0M7/C611DLS1QXkHSj4dazCQygJDbSNlsPzmOQ6lUhnLZPNnQly3ZP0wIik8GuUyT096tyxFbe69kGROKGqTWro3tuxELN/JrovumlMhIvXnws2wFlT7OZDVk3fFPFakNEhX/lUW/9dn45yUSe90HgBHzGCLLWBkpvvSQdaavr8gytiOHxsczGFu8GOJyasxMurwwykvAU1EXLT2I8L+GPZToEWkxCiV3qIlWKTsxsYLgzRAyifi7j4eoiPujJiPKFiC/78yA67WdundmHj/h7VeehVrK/hGLJf8UBMYFASHLcYFVTvp6CLBL9rmVt9yZtjedkbJ3Iku2QNlcD5R+0ookC0U064WlmUiaSpnFsrgQc1/OwpG/e4Mt/ZpzDVLVXshypDVXYqLhVt+Qi1DzYsmSZIFv7UrUrlZuS6ytPk0KmhxZWF79RH32tW7l0nPBnuQzSEdDXBxfY4gImfz500MPAaqHKOupxv1FFWXtr9t3H1taPzaMcD2XLNtBPGJcYgtcWcXxnFWLLTTR0kDAosQYlQXJ+FjcJNyHgAU3Fp+Ket051Jeb/dhRx7/3fGO+uF7lTlM5BIQsK4e1XClGAH0wnZfuueUuv7D6bRlnKyXtIoWeJpaEA7dhVEC3pbi0ROnLahJiy2jIhahvvnzjL7kg9fsOkCxfQxYlZyEzSYmIRxJyTJYqlrZn6YsiTPU5bU2VYpLaLcrjHfqsIk2Q5XDCKll/pc1SIr/S50duIoOVkAYtRo2hOl88Nm058nVKrlp2HTNhcteXsQtCaPLXmA0a0SXiHrQmh+NXcnfrcZUsSkvhgrFHSe3aVeuCUiOIo3sQ5E8qopyMAt2jH11y7r+eBddrXr5QgkAlERCyrCTacq1BBLisZM39//CT0H3sHe1pJDEiRdbLFwgNvRDCRHwqQhiKX7lDibod23iLbsekCYRdfjEl6cyYA0N3MEFmZHxyuDU5kixLFuVw1+WeRKCTj14b8xweLyzRi+rCUiJP/hTHN2NSDWO93CGSjN2bipeGzs/W4uBohsduFRnGZB2fs0ScTFClT2miPUDsYqT5ckOXjOOi8e/0Q83IJYmxUfNWK0kWXpUViYQdHVtlAvV1f0oIo6ta3LCdCu58hF8Pu/OgYz51iTFtmrheD2y3y7vLgMDoviVluLCcQhBgwtz17Be/sv2VVZ8xvX5qSxtkcx9MuOQsJHQUPBgPbGlil7K1wT0wNXmwpaQJY8iqPMCtvAdZxvFHdUa+yw+PZe5tnYYl8OBGPxiZ4wQkZcHp+F0ciYwTkTR5KHtpmB5uyaLiazJBqsSlERaZnqO2yErkOuj2ZFFUNewhklYPE4qpmHx1zHcQJ0VEugk3H2MnSz53KdlKPyaUMlc57jpoGceUXiJJhVnsFYBSMKgRyVz8WbTaMrH+jGOEnRAEzYhpd9CUmW/5t8nHfPrvYFGKioXcOqqCwAHeYaoyRrlonSOw9r6rP1voXf2F1qZdqWS4C8kd/ehMQuRCIi/CX3yVJ8MuT21NsjWiE0k0ZYy+a8kQoQ0loOyNLIe7TocWQ9FT/A2yILnGf7WY02KXJxO6Grd6H2d1KgNavcZUj/ez9aeJjYmL3bbawhz6auoHgzhbVNNtTJx4H7JxNVlpQtW9QodiqkNuXMWocQKNJqpSQtFoy29UMg7GP0iWsRdAkSU4bWgcOnGHj1KWrrZKdQyV5+6b2jIN4XZVsUq8P0D3kFxuoZuZfPwXFp7+V1fX+ddApjfBERCynOAL1CjD2/bsj87s2vzQvY6/ESLrvai/LIAi2BULh5xy6WkCsBDDVG2+YhbQRDpalEaSZYko1W1dkY869siS3dMFW7Li+ObOw1Dkwa/KutTv1RaWTt7RlhcTYxzT5GzYYTHOQau2NKnYQtXWIM+dFY9KyTt8iTiRSF1Hj7hEmPxwoX+ibVVNbsg0ZYKKySuw8EAyyiSfElnqOWqctEdcP9iUrl1CUyc7WXGcWbucSzHo0sOEyq4NM2jn1o5WW3Np6RF/cYqx4PzHRrvC8jlBoFwIjPo2U64ByHkEgRIC0cv3HbTqsZ/c3JrZdnJzZjtu6t24ocJCAUGyALsBt5yKU+IOawZcgwcidXQLsNEdr0eWQ0RpwowNAo9sx6R8Po+SlpQaD/8x4D6E31C9cm0ot1AxkdEbBD5u9C5qRhFn5Z9zJicsJ5stRpCV7yNWx/9ZSGYBy1hmAueG/J+TREIL5satppAJnOQeoL4Wm086mCuSnkIWn+faSsgE2jazL+K6UHcwbZAmNHc9jCtQ5IxX/DxAWQ7XrqoHDGDouz6SZdJcs8OpRTBMh1uiB47iHmHSQfdxfB4mT147zF09SoTADPOPeP1UyQmGgf+SqLnN5box/yZyw8mIT86i/sKS3x234n3vMzqO7jzwUcknBIHyIyBkWX5M5YxjQAA31+TGx7/6rWzPE5cbwauUsfOUgPWDUjslUMAkY5uIY8KX6YMIQsQ2x0aWpcGOdL/GMUK2ktiaiwOTTGZBALLEDd8AOVqGgwxeViNCjSgSlJi2U5m0sphyWSQsgVwtM4naQHCZmcGrjabXbVR0zWzkRj12OpVrb5/clXDsvBuE0Y7t23K9/f1uyskYCxfNyyQdx+rv701CwKG9mMu2G6Y7xbIpE4GQbatICTOHa+dUaYWHn/FYHZCjk0DkF0RtI+bLHV9CD+8HbuyKhTovSIv92XB14v1jtsz5YUW5U0tuVY1pqTyGyd4ruor8Qy9UNbQ+2rTxo4oPv7WLcfPhJKbTgDudnMyyaxee9oUrgPVrM6XGsLfko4LAWBAQshwLevLZcUOguPneZc89eccv29KvzrGhKZsIe8mBRcXtmHxOpIHFx4LsASv8DCbrHMhw9pIFu0dij467cWYmExEfbKF5HtRkfFzbSmgLE3E61y2AiExYf9rqDPF2E8pEkZmiYhFuVmcK9WZhNTozKUrM+va8pcd9py1zwk6aymftAw0v6tsXMeCcKhyq2QgmWf7BKauf+uMnenat+WxLAthApD7lIKcUYw09ZBZHLucOK5H6yAdhQtjBSmA8IDUfP3NhnbKJrmpYlVt2tLcBNvNd7XJlIQFktA7VcWpXNGgSyVpcEuIpAi+iDIQfONi6Vs1MDeBot8NankOd22jr8tM+fo4x963PHchKynsFgUogMNpvSSXGJtdocARQj5nZ+PBd3wzzay43vM2wyLLk2D4iduiPGeYVMdlmGglBfNM9UFfs65FlrChTqgEcRpZsSTIZsBRfOtUGjVtYdMYAyIhdi/g5J9tQGuNKU9GHOzaCJRk2PTZj3qE/zMw87IlMx/wNRCf1gCwOdLB73QmYv5nb9KOjXt3+wpt7t79ysRFkT2mCWzpju3AMo/lGkINVzm5suIVRilNkSUFYmhZIi0tyvCJcsrCMx0KWoQniZRtRkSXqN2P5v5JVGWG14AxWlnnAcVxuz4YX20nAKm+GNY6HCGsW3MGLrzno+Hd9yWg9bleDb3uZ/gRFQMhygi6MDGsIgR1P/ejcnm1P/UtEnYfaziu4NeN+CiGDDLRjgyziYSrJJT7ekIdGkqTOqtUuRH4dQZZxyYYFS7HAxfGJFpClASuyGVZjP6WT7AKNKFeAi9GeDiKaSwPFto2Jtvn3HLT8jC8axnFbK7WWUW7VnO3Pr/p/3TvWnGEFOw5O2v2YVQ+8rVkQEmTjQJCqbIWLR2DdGcicYpFBXb4ymkMnLulEHk5UGpZtq3DjbGAmS8RH8TvTycBN7MAzAAvdR85w0A5X8tzV0+eceGX7my69ZzQjkM8IApVCQMiyUkjLdcaEQBRtTHU+9qP3du9+8gdNqV7cZHPkZXcjcxaW0vCb/ajIkodWktUrVU3G5Q/csBrEkkikEIMEWTrtuMnDavRgReHnBdSFplsmUX8uSWZi1vqDl73t3TTrXc/jdzoQV4UD5G176//ryNWrH/hxk9O/OAq64a7upZYmVDD6eVh/cCUj7ppKQwgA1qbKrh3lUaLZwWzgwZrQuI5TOZATlCuyhOEU6upDzDI9A9g1B03tiz8054Tz/gcPFLlRXl4+JghUDAEhy4pBLRcqBwJR3wNTO5/83cW5XZ2fzCR3z7Ptl+HiQ2PpkcdrSPP1ckVKt/u9kSVncyLTlLM54a70PY7xpVWCzu7uHE3qWErb8qnNU2Ycds2s+Uf8gqac+lK5XKxlwQpu2uLOew4q9rx83tbO5//W8brnhdmtNLUFJRsu2qTZHhWhGhcigWpUhyr90CUgpXKZUomLqvnknyKz10UHETdohTN2GjJeF6xJty7+zqzpy241Fp+yY1TXlQ8JAlVAQMiyCqDLJceOAGfNbrn/mx/LFp79iGF2H2pHXtIgLmhnBRgtl1Z61cX6TAh7EibX/JWK4jkllMUAkA6D9+mvhaoBVP+Cu9eD5Wi2Ut6N+puap760dWvv+kOPPP3brcs+/jTeAq/mxFeWiTb84sjVT999ZZvjLXULPYfZVraVkiBLE/WsyhDW1vRwwfehmlHdFWR4ZxRVval6S+raSaVLC1evwk6lGEGVJ2qj3pzd195xyAtWauYNc4752x/UAlZj36FyhnpDQMiy3la0webDLkfqXdny+K9u/5eElX1PJl3MhP5umpRBQkkRFqeXpaYWm3LRAGJlKF9ABi2Xeagwm58i02tTZGiiZjHrofNFuhnuVLQH60dtZQKnQirnQA4JMflp31+y5C1Xtx17bic+aeKGH7fJqD3AObuWs2+Lf7p32eOr7vjMpGb//akM4pnAyHV7qK0Z8Ve3CHUhUB7c0A4eNPKFHmpucZAkhFIVTN1A3anrIpEItaFWkKRi1qF0egrlUQZipVrRas0K/XBqLrTmfPeIPz+bY7fiaq29rSIjHoaAkKVsh7pBgBtMU8+dLdS3cXZhe+fMXVtfOsLv3XZu66TE2QW7QJ6RoyTKJVgogB2HVtTau3uL9XcZo/WV1kkpn5qaKTN9WrczeXofDTTjzZkcLTo2hxt9zRLj/iyuLk35dYK6u5O0q7OFnEKzty3b1t+3c3Kuv8sI87vtYrB7aduU5m+QhS4gUFdismQhPxP1rqGHmGSPc39L28xbU9PnvDCpY+EWmjd7u2Fckt2f68t7BIFaQOB/Adh0PuQVLiCwAAAAAElFTkSuQmCC;" vertex="1" parent="1">
          <mxGeometry x="100" y="210" width="120" height="80" as="geometry" />
        </mxCell>
        <mxCell id="WSmRnzZEHJ4d43bFwBce-6" value="" style="endArrow=none;html=1;rounded=0;strokeWidth=2;strokeColor=#2A3244;" edge="1" parent="1">
          <mxGeometry width="50" height="50" relative="1" as="geometry">
            <mxPoint x="190" y="79.71" as="sourcePoint" />
            <mxPoint x="320" y="80" as="targetPoint" />
          </mxGeometry>
        </mxCell>
        <mxCell id="WSmRnzZEHJ4d43bFwBce-7" value="" style="endArrow=none;html=1;rounded=0;strokeWidth=2;strokeColor=#2A3244;" edge="1" parent="1">
          <mxGeometry width="50" height="50" relative="1" as="geometry">
            <mxPoint x="240" y="360" as="sourcePoint" />
            <mxPoint x="320" y="360" as="targetPoint" />
          </mxGeometry>
        </mxCell>
        <mxCell id="WSmRnzZEHJ4d43bFwBce-8" value="" style="endArrow=classic;html=1;rounded=0;strokeColor=#2A3244;" edge="1" parent="1">
          <mxGeometry width="50" height="50" relative="1" as="geometry">
            <mxPoint x="300" y="360" as="sourcePoint" />
            <mxPoint x="300" y="80" as="targetPoint" />
          </mxGeometry>
        </mxCell>
        <mxCell id="WSmRnzZEHJ4d43bFwBce-9" value="" style="endArrow=none;html=1;rounded=0;strokeWidth=2;strokeColor=#2A3244;" edge="1" parent="1">
          <mxGeometry width="50" height="50" relative="1" as="geometry">
            <mxPoint x="190" y="250" as="sourcePoint" />
            <mxPoint x="270" y="250" as="targetPoint" />
          </mxGeometry>
        </mxCell>
        <mxCell id="WSmRnzZEHJ4d43bFwBce-10" value="" style="endArrow=classic;html=1;rounded=0;strokeColor=#2A3244;" edge="1" parent="1">
          <mxGeometry width="50" height="50" relative="1" as="geometry">
            <mxPoint x="250" y="360" as="sourcePoint" />
            <mxPoint x="250" y="250" as="targetPoint" />
          </mxGeometry>
        </mxCell>
        <mxCell id="WSmRnzZEHJ4d43bFwBce-11" value="$$x_1$$" style="text;html=1;strokeColor=none;fillColor=none;align=center;verticalAlign=middle;whiteSpace=wrap;rounded=0;fontColor=#2A3244;fontSize=24;" vertex="1" parent="1">
          <mxGeometry x="300" y="200" width="40" height="30" as="geometry" />
        </mxCell>
        <mxCell id="WSmRnzZEHJ4d43bFwBce-12" value="$$x_2$$" style="text;html=1;strokeColor=none;fillColor=none;align=center;verticalAlign=middle;whiteSpace=wrap;rounded=0;fontColor=#2A3244;fontSize=24;" vertex="1" parent="1">
          <mxGeometry x="250" y="300" width="35" height="30" as="geometry" />
        </mxCell>
        <mxCell id="WSmRnzZEHJ4d43bFwBce-13" value="$$\dot{x}_2$$" style="text;html=1;strokeColor=none;fillColor=none;align=center;verticalAlign=middle;whiteSpace=wrap;rounded=0;fontColor=#2A3244;fontSize=24;" vertex="1" parent="1">
          <mxGeometry x="142.5" y="320" width="35" height="30" as="geometry" />
        </mxCell>
        <mxCell id="WSmRnzZEHJ4d43bFwBce-14" value="$$\dot{x}_1$$" style="text;html=1;strokeColor=none;fillColor=none;align=center;verticalAlign=middle;whiteSpace=wrap;rounded=0;fontColor=#2A3244;fontSize=24;" vertex="1" parent="1">
          <mxGeometry x="142.5" y="140" width="40" height="30" as="geometry" />
        </mxCell>
        <mxCell id="WSmRnzZEHJ4d43bFwBce-15" value="" style="endArrow=classic;html=1;rounded=0;exitX=0.5;exitY=1;exitDx=0;exitDy=0;strokeWidth=2;" edge="1" parent="1" source="WSmRnzZEHJ4d43bFwBce-4">
          <mxGeometry width="50" height="50" relative="1" as="geometry">
            <mxPoint x="240" y="260" as="sourcePoint" />
            <mxPoint x="160" y="140" as="targetPoint" />
          </mxGeometry>
        </mxCell>
        <mxCell id="WSmRnzZEHJ4d43bFwBce-25" value="" style="endArrow=classic;html=1;rounded=0;exitX=0.5;exitY=1;exitDx=0;exitDy=0;strokeWidth=2;entryX=0.5;entryY=-0.333;entryDx=0;entryDy=0;entryPerimeter=0;" edge="1" parent="1">
          <mxGeometry width="50" height="50" relative="1" as="geometry">
            <mxPoint x="159.89000000000001" y="290" as="sourcePoint" />
            <mxPoint x="160" y="320" as="targetPoint" />
          </mxGeometry>
        </mxCell>
        <mxCell id="WSmRnzZEHJ4d43bFwBce-26" value="$$-g$$" style="text;html=1;strokeColor=none;fillColor=none;align=center;verticalAlign=middle;whiteSpace=wrap;rounded=0;fontColor=#2A3244;fontSize=24;" vertex="1" parent="1">
          <mxGeometry x="220" y="110" width="40" height="30" as="geometry" />
        </mxCell>
        <mxCell id="WSmRnzZEHJ4d43bFwBce-28" value="" style="endArrow=classic;html=1;rounded=0;exitX=0.5;exitY=1;exitDx=0;exitDy=0;strokeWidth=2;" edge="1" parent="1">
          <mxGeometry width="50" height="50" relative="1" as="geometry">
            <mxPoint x="250" y="145" as="sourcePoint" />
            <mxPoint x="250" y="180" as="targetPoint" />
          </mxGeometry>
        </mxCell>
        <mxCell id="WSmRnzZEHJ4d43bFwBce-30" value="$$m$$" style="text;html=1;strokeColor=none;fillColor=none;align=center;verticalAlign=middle;whiteSpace=wrap;rounded=0;fontColor=#2A3244;fontSize=24;" vertex="1" parent="1">
          <mxGeometry x="140" y="70" width="40" height="30" as="geometry" />
        </mxCell>
        <mxCell id="WSmRnzZEHJ4d43bFwBce-31" value="$$m$$" style="text;html=1;strokeColor=none;fillColor=none;align=center;verticalAlign=middle;whiteSpace=wrap;rounded=0;fontColor=#2A3244;fontSize=24;" vertex="1" parent="1">
          <mxGeometry x="140" y="240" width="40" height="30" as="geometry" />
        </mxCell>
      </root>
    </mxGraphModel>
  </diagram>
</mxfile>
